SplineFontDB: 3.2
FontName: LSP_ICONS
FullName: LSP Icons
FamilyName: LSP_ICONS
Weight: Regular
Copyright: Copyright (c) 2024, Vladimir Sadovnikov
UComments: "2024-3-3: Created with FontForge (http://fontforge.org)"
Version: 001.000
ItalicAngle: 0
UnderlinePosition: -102.4
UnderlineWidth: 51.2
Ascent: 819
Descent: 205
InvalidEm: 0
LayerCount: 2
Layer: 0 0 "+BBcEMAQ0BD0EOAQ5 +BD8EOwQwBD0A" 1
Layer: 1 0 "+BB8ENQRABDUENAQ9BDgEOQAA +BD8EOwQwBD0A" 0
XUID: [1021 619 1459645105 15071693]
StyleMap: 0x0000
FSType: 0
OS2Version: 0
OS2_WeightWidthSlopeOnly: 0
OS2_UseTypoMetrics: 1
CreationTime: 1709466937
ModificationTime: 1733852607
OS2TypoAscent: 0
OS2TypoAOffset: 1
OS2TypoDescent: 0
OS2TypoDOffset: 1
OS2TypoLinegap: 92
OS2WinAscent: 0
OS2WinAOffset: 1
OS2WinDescent: 0
OS2WinDOffset: 1
HheadAscent: 0
HheadAOffset: 1
HheadDescent: 0
HheadDOffset: 1
MarkAttachClasses: 1
DEI: 91125
Encoding: ISO8859-1
UnicodeInterp: none
NameList: AGL For New Fonts
DisplaySize: -36
AntiAlias: 1
FitToEm: 0
WinInfo: 96 16 10
BeginPrivate: 0
EndPrivate
Grid
-1024 1402.59997559 m 0
 2048 1402.59997559 l 1024
EndSplineSet
BeginChars: 256 120

StartChar: zero
Encoding: 48 48 0
Width: 1024
VWidth: 1000
Flags: W
HStem: -205 58<57 967> -45 159<115 909> 228 158<115 909> 501 158<115 909> 762 57<57 967>
VStem: 0 57<-147 762> 967 57<-147 762>
LayerCount: 2
Fore
SplineSet
0 819 m 257
 1024 819 l 257
 1024 -205 l 257
 0 -205 l 257
 0 819 l 257
967 762 m 257
 57 762 l 257
 57 -147 l 257
 967 -147 l 257
 967 762 l 257
115 659 m 257
 909 659 l 257
 909 501 l 257
 115 501 l 257
 115 659 l 257
115 386 m 257
 909 386 l 257
 909 228 l 257
 115 228 l 257
 115 386 l 257
115 114 m 257
 909 114 l 257
 909 -45 l 257
 115 -45 l 257
 115 114 l 257
EndSplineSet
Validated: 1
EndChar

StartChar: one
Encoding: 49 49 1
Width: 1024
HStem: -205 58<57 967> 606 213<57 967>
VStem: 0 57<-147 606> 370 284<307 535> 967 57<-147 606>
CounterMasks: 1 38
LayerCount: 2
Fore
SplineSet
0 819 m 257
 1024 819 l 257
 1024 -205 l 257
 0 -205 l 257
 0 819 l 257
967 606 m 257
 57 606 l 257
 57 -147 l 257
 967 -147 l 257
 967 606 l 257
370 535 m 257
 654 535 l 257
 654 307 l 257
 855 307 l 257
 828 280 l 257
 820 270 l 257
 768 218 l 257
 597 47 l 257
 584 33 l 257
 535 -16 l 257
 519 -32 l 257
 512 -37 l 257
 505 -32 l 257
 489 -16 l 257
 440 33 l 257
 427 47 l 257
 256 218 l 257
 204 270 l 257
 196 280 l 257
 169 307 l 257
 370 307 l 257
 370 535 l 257
EndSplineSet
Validated: 1
EndChar

StartChar: two
Encoding: 50 50 2
Width: 1024
HStem: -205 213<57 967> 762 57<57 967>
VStem: 0 57<8 762> 370 284<80 307> 967 57<8 762>
CounterMasks: 1 38
LayerCount: 2
Fore
SplineSet
0 819 m 257
 1024 819 l 257
 1024 -205 l 257
 0 -205 l 257
 0 819 l 257
967 762 m 257
 57 762 l 257
 57 8 l 257
 967 8 l 257
 967 762 l 257
169 307 m 257
 196 335 l 257
 204 344 l 257
 256 396 l 257
 427 567 l 257
 440 582 l 257
 489 631 l 257
 505 646 l 257
 512 651 l 257
 519 646 l 257
 535 631 l 257
 584 582 l 257
 597 567 l 257
 768 396 l 257
 820 344 l 257
 828 335 l 257
 855 307 l 257
 654 307 l 257
 654 80 l 257
 370 80 l 257
 370 307 l 257
 169 307 l 257
EndSplineSet
Validated: 1
EndChar

StartChar: three
Encoding: 51 51 3
Width: 1024
HStem: -205 58<57 967> -90 116<458 529> 589 116<404.192 512> 762 57<57 967>
VStem: 0 57<-147 762> 967 57<-147 762>
LayerCount: 2
Fore
SplineSet
0 819 m 257
 1024 819 l 257
 1024 -205 l 257
 0 -205 l 257
 0 819 l 257
967 762 m 257
 57 762 l 257
 57 -147 l 257
 967 -147 l 257
 967 762 l 257
795 587 m 257
 805 580 805 580 827 550 c 256
 867 499 867 499 889 434 c 256
 915 358 915 358 908.5 278 c 0
 902 198 902 198 867 127 c 256
 842 78 842 78 801 33 c 256
 766 -4 766 -4 719 -33 c 256
 673 -61 673 -61 627 -74 c 256
 594 -83 594 -83 554 -87 c 258
 526 -90 l 257
 501 -90 l 257
 458 -86 l 258
 395 -78 395 -78 345 -54 c 256
 256 -11 256 -11 198 62 c 256
 155 117 155 117 133 184 c 256
 99 288 99 288 124.5 397 c 0
 150 506 150 506 226 585 c 256
 281 642 281 642 358 674 c 256
 429 705 429 705 512 705 c 257
 512 589 l 257
 459 589 459 589 407 568 c 256
 362 550 362 550 322 513 c 256
 243 440 243 440 232 334 c 258
 230 310 l 257
 230 258 230 258 248 210 c 256
 268 156 268 156 311 111 c 257
 322 101 l 258
 355 70 355 70 396 51 c 256
 451 24 451 24 519 26 c 257
 529 27 l 258
 638 34 638 34 715 114 c 256
 734 134 734 134 748 155 c 256
 788 215 788 215 793 292 c 258
 794 304 l 257
 794 312 l 257
 793 323 l 258
 788 405 788 405 744 465 c 256
 730 484 730 484 722 494 c 256
 714 502 714 502 712 502 c 256
 710 502 710 502 702 495 c 258
 682 474 l 257
 627 419 l 258
 603 395 603 395 599 393 c 257
 599 696 l 257
 903 696 l 257
 866 658 l 257
 795 587 l 257
EndSplineSet
Validated: 33
EndChar

StartChar: four
Encoding: 52 52 4
Width: 1024
HStem: -205 58<57 967> -90 159<432 591> 762 57<57 967>
VStem: 0 57<-147 762> 432 159<-90 69 126 705> 967 57<-147 762>
LayerCount: 2
Fore
SplineSet
0 819 m 257
 1024 819 l 257
 1024 -205 l 257
 0 -205 l 257
 0 819 l 257
967 762 m 257
 57 762 l 257
 57 -147 l 257
 967 -147 l 257
 967 762 l 257
432 705 m 257
 591 705 l 257
 591 126 l 257
 432 126 l 257
 432 705 l 257
432 69 m 257
 591 69 l 257
 591 -90 l 257
 432 -90 l 257
 432 69 l 257
EndSplineSet
Validated: 1
EndChar

StartChar: five
Encoding: 53 53 5
Width: 1024
HStem: -205 58<57 967> -90 116<487 537> 762 57<57 967>
VStem: 0 57<-147 762> 432 159<307 705> 967 57<-147 762>
LayerCount: 2
Fore
SplineSet
0 819 m 257
 1024 819 l 257
 1024 -205 l 257
 0 -205 l 257
 0 819 l 257
967 762 m 257
 57 762 l 257
 57 -147 l 257
 967 -147 l 257
 967 762 l 257
432 705 m 257
 591 705 l 257
 592 688 l 257
 592 584 l 257
 591 568 l 257
 591 307 l 257
 432 307 l 257
 432 705 l 257
645 681 m 257
 654 680 654 680 679 668 c 256
 715 651 715 651 743 631 c 256
 800 590 800 590 841 530 c 0
 882 470 882 470 898 401 c 256
 906 368 906 368 908 332 c 258
 909 319 l 257
 909 295 l 257
 908 283 l 258
 906 249 906 249 899 219 c 256
 881 133 881 133 824.5 61.5 c 0
 768 -10 768 -10 689 -49 c 256
 617 -84 617 -84 537 -89 c 258
 524 -90 l 257
 498 -90 l 257
 487 -89 l 257
 444 -84 l 257
 352 -69 352 -69 274.5 -11.5 c 0
 197 46 197 46 156 130 c 256
 121 202 121 202 116 283 c 258
 115 295 l 257
 115 322 l 257
 116 332 l 257
 121 375 l 258
 133 452 133 452 175 519 c 0
 217 586 217 586 281 631 c 256
 310 650 310 650 345 668 c 256
 370 680 370 680 379 681 c 257
 379 563 l 258
 379 557 379 557 378 556 c 256
 377 554 377 554 369 549 c 258
 350 538 l 258
 313 512 313 512 286 474 c 256
 238 408 238 408 231.5 327.5 c 0
 225 247 225 247 263 175 c 256
 291 125 291 125 335 89 c 256
 412 26 412 26 512 26 c 0
 612 26 612 26 689 89 c 256
 733 125 733 125 761 175 c 256
 795 237 795 237 794 317 c 257
 793 328 l 258
 787 424 787 424 722 495 c 256
 697 522 697 522 667 542 c 258
 653 551 l 258
 647 554 647 554 646 555.5 c 0
 645 557 645 557 645 563 c 258
 645 681 l 257
EndSplineSet
Validated: 33
EndChar

StartChar: six
Encoding: 54 54 6
Width: 1024
HStem: -205 58<57 967> -90 159<432 591> 589 116<433.762 591.164> 762 57<57 967>
VStem: 0 57<-147 762> 248 125<468 528.469> 432 159<-90 69 126 228.653> 651 124<392.045 447 458 530.076> 967 57<-147 762>
LayerCount: 2
Fore
SplineSet
0 819 m 257
 1024 819 l 257
 1024 -205 l 257
 0 -205 l 257
 0 819 l 257
967 762 m 257
 57 762 l 257
 57 -147 l 257
 967 -147 l 257
 967 762 l 257
248 468 m 257
 248 513 248 513 269 558 c 256
 285 593 285 593 309 618 c 256
 391 705 391 705 521 705 c 256
 530 705 530 705 560 699 c 256
 607 692 607 692 646 672 c 256
 687 649 687 649 718 614 c 256
 745 584 745 584 759 549 c 256
 771 520 771 520 775 492 c 258
 776 471 l 257
 777 458 l 257
 776 447 l 257
 775 429 l 258
 770 386 770 386 747 346.5 c 0
 724 307 724 307 690 280 c 256
 666 261 666 261 644 248 c 258
 622 238 l 258
 608 232 608 232 604 229 c 256
 591 218 591 218 591 195 c 258
 591 126 l 257
 432 126 l 257
 432 214 l 258
 432 219 432 219 434 224.5 c 0
 436 230 436 230 437 232 c 0
 438 234 438 234 443.5 241 c 0
 449 248 449 248 450 249 c 258
 487 302 l 257
 501 321 l 258
 507 329 507 329 508 330 c 256
 509 330 509 330 524 332 c 256
 547 335 547 335 562 341 c 256
 596 352 596 352 620 380 c 0
 644 408 644 408 649 442 c 256
 651 452 651 452 651 456 c 256
 651 479 651 479 644 501 c 256
 637 520 637 520 623 538 c 256
 579 591 579 591 507.5 589 c 0
 436 587 436 587 396 530 c 256
 378 504 378 504 373 468 c 257
 248 468 l 257
432 69 m 257
 591 69 l 257
 591 -90 l 257
 432 -90 l 257
 432 69 l 257
EndSplineSet
Validated: 33
EndChar

StartChar: seven
Encoding: 55 55 7
Width: 1024
HStem: -205 512<512 967> -205 58<57 172 332 512> 488 159<332 967> 762 57<57 967>
VStem: 0 57<-147 762> 172 160<-147 488> 512 512<-147 307> 967 57<307 488 647 762>
LayerCount: 2
Fore
SplineSet
0 819 m 257x7d
 1024 819 l 257
 1024 -205 l 257
 0 -205 l 257
 0 819 l 257x7d
967 762 m 257
 57 762 l 257
 57 -147 l 257
 172 -147 l 257
 172 647 l 257
 967 647 l 257
 967 762 l 257
967 488 m 257
 332 488 l 257
 332 -147 l 257
 512 -147 l 257x7e
 512 307 l 257xbe
 967 307 l 257xbd
 967 488 l 257
EndSplineSet
Validated: 1
EndChar

StartChar: eight
Encoding: 56 56 8
Width: 1024
HStem: -205 58<57 967> 227 159<115 432 592 909> 762 57<57 967>
VStem: 0 57<-147 762> 432 160<-89.9651 227 386 702.965> 967 57<-147 762>
CounterMasks: 1 1c
LayerCount: 2
Fore
SplineSet
0 819 m 257
 1024 819 l 257
 1024 -205 l 257
 0 -205 l 257
 0 819 l 257
967 762 m 257
 57 762 l 257
 57 -147 l 257
 967 -147 l 257
 967 762 l 257
432 386 m 257
 432 631 l 257
 432 686 l 258
 432 702 432 702 434 703 c 256
 435 704 435 704 441 705 c 258
 557 705 l 257
 583 705 l 258
 589 705 589 705 590 703 c 256
 592 702 592 702 592 695 c 258
 592 386 l 257
 909 386 l 257
 909 227 l 257
 592 227 l 257
 592 -17 l 257
 592 -73 l 258
 592 -89 592 -89 590 -90 c 256
 589 -91 589 -91 583 -91 c 258
 467 -91 l 257
 441 -91 l 258
 435 -91 435 -91 434 -90 c 256
 432 -89 432 -89 432 -82 c 258
 432 227 l 257
 115 227 l 257
 115 386 l 257
 432 386 l 257
EndSplineSet
Validated: 1
EndChar

StartChar: nine
Encoding: 57 57 9
Width: 1024
HStem: -205 58<57 967> 227 159<115 909> 762 57<57 967>
VStem: 0 57<-147 762> 967 57<-147 762>
LayerCount: 2
Fore
SplineSet
0 819 m 257
 1024 819 l 257
 1024 -205 l 257
 0 -205 l 257
 0 819 l 257
967 762 m 257
 57 762 l 257
 57 -147 l 257
 967 -147 l 257
 967 762 l 257
115 386 m 257
 909 386 l 257
 909 227 l 257
 115 227 l 257
 115 386 l 257
EndSplineSet
Validated: 1
EndChar

StartChar: colon
Encoding: 58 58 10
Width: 1024
Flags: W
HStem: -205 58<57 516 743 967> 384 263<172 332 928 967> 488 159<332 516 743 928> 762 57<57 967>
VStem: 0 57<-147 762> 172 160<384 488> 516 227<-147 488> 928 96<384 488> 967 57<-147 384 647 762>
LayerCount: 2
Fore
SplineSet
0 819 m 257x9e80
 1024 819 l 257
 1024 -205 l 257
 0 -205 l 257
 0 819 l 257x9e80
967 762 m 257
 57 762 l 257
 57 -147 l 257
 516 -147 l 257
 516 488 l 257
 332 488 l 257xbe80
 332 384 l 257
 172 384 l 257
 172 647 l 257
 967 647 l 257xde80
 967 762 l 257
928 488 m 257xbf
 743 488 l 257xbf
 743 -147 l 257
 967 -147 l 257
 967 384 l 257xde80
 928 384 l 257xdf
 928 488 l 257xbf
EndSplineSet
Validated: 1
EndChar

StartChar: semicolon
Encoding: 59 59 11
Width: 1024
HStem: -205 58<57 967> 762 57<57 967>
VStem: 0 57<-147 762> 967 57<-147 762>
LayerCount: 2
Fore
SplineSet
0 -205 m 257
 0 819 l 257
 1024 819 l 257
 1024 -205 l 257
 0 -205 l 257
57 762 m 257
 57 -147 l 257
 967 -147 l 257
 967 762 l 257
 57 762 l 257
115 422 m 257
 115 705 l 257
 401 705 l 257
 287 590 l 257
 512 360 l 257
 737 590 l 257
 623 705 l 257
 909 705 l 257
 909 418 l 257
 795 532 l 257
 565 307 l 257
 795 82 l 257
 909 197 l 257
 909 -90 l 257
 623 -90 l 257
 737 25 l 257
 512 254 l 257
 287 25 l 257
 401 -90 l 257
 115 -90 l 257
 115 197 l 257
 229 82 l 257
 459 307 l 257
 229 532 l 257
 115 418 l 257
 115 422 l 257
EndSplineSet
Validated: 1
EndChar

StartChar: less
Encoding: 60 60 12
Width: 1024
HStem: -205 58<57 795> 762 57<57 967>
VStem: 0 57<-147 762> 967 57<26 762>
LayerCount: 2
Fore
SplineSet
0 819 m 257
 1024 819 l 257
 1024 -205 l 257
 0 -205 l 257
 0 819 l 257
967 762 m 257
 57 762 l 257
 57 -147 l 257
 795 -147 l 257
 758 -110 l 257
 687 -39 l 257
 656 -8 l 258
 645 2 645 2 644 3 c 256
 642 3 642 3 631 -1 c 258
 599 -13 l 258
 551 -29 551 -29 503 -32 c 258
 492 -33 l 257
 421 -34 421 -34 357 -10 c 256
 280 18 280 18 222.5 75.5 c 0
 165 133 165 133 137 210 c 256
 113 273 113 273 115 344 c 257
 116 355 l 258
 118 403 118 403 133 451 c 256
 159 526 159 526 211 584 c 256
 293 674 293 674 414.5 697.5 c 0
 536 721 536 721 644 667 c 256
 699 639 699 639 734 605 c 256
 762 578 762 578 778 556 c 256
 846 466 846 466 851 355 c 257
 852 344 l 257
 853 284 853 284 836 228 c 258
 822 191 l 258
 816 178 816 178 816 176 c 256
 817 174 817 174 827 164 c 258
 856 135 l 257
 929 62 l 257
 967 26 l 257
 967 762 l 257
468 590 m 262
 449 588 l 258
 424 585 424 585 401 577 c 256
 369 567 369 567 341.5 548 c 0
 314 529 314 529 292 504 c 0
 270 479 270 479 256 450 c 256
 221 380 221 380 232 301.5 c 0
 243 223 243 223 295 165 c 256
 320 138 320 138 351 119 c 256
 381 102 381 102 410 93 c 256
 439 85 439 85 463 83 c 258
 473 82 l 257
 543 81 543 81 597 109 c 256
 640 131 640 131 672 165 c 256
 732 232 732 232 737 321.5 c 0
 742 411 742 411 690 483 c 256
 668 515 668 515 637 539 c 256
 599 568 599 568 556 580 c 260
 508 593 508 593 468 590 c 262
EndSplineSet
Validated: 33
EndChar

StartChar: equal
Encoding: 61 61 13
Width: 1024
HStem: -205 58<57 967> -97 80<362 461.871> -89 81<306.032 362> 165 83<126.579 463 557 896.421> 402 82<239.031 621> 458 174<134.095 210.936 808 890.874> 554 78<215 466 551.279 808> 762 57<57 967>
VStem: 0 57<-147 762> 131 84<459.036 554> 463 94<-11.9053 165 248 263.935> 808 85<461.094 554> 967 57<-147 762>
LayerCount: 2
Fore
SplineSet
0 819 m 257x91f8
 1024 819 l 257
 1024 -205 l 257
 0 -205 l 257
 0 819 l 257x91f8
967 762 m 257
 57 762 l 257
 57 -147 l 257
 967 -147 l 257
 967 762 l 257
466 632 m 257x93f8
 465 634 465 634 464 635.5 c 0
 463 637 463 637 462.5 638.5 c 0
 462 640 462 640 461 642 c 258
 445 669 l 258
 438 681 438 681 439 687 c 256
 441 692 441 692 458 696 c 258
 467 699 l 257
 502 710 l 258
 518 715 518 715 523 712 c 256
 525 711 525 711 535 691 c 258
 551 655 l 258
 560 636 560 636 561 632 c 257x93f8
 816 632 l 257
 878 632 l 258
 893 632 893 632 893 616 c 258
 893 496 l 257
 893 470 l 258
 893 464 893 464 891 461 c 256
 887 458 887 458 878 458 c 258
 819 458 l 258x95f8
 808 458 808 458 808 471 c 258
 808 554 l 257
 215 554 l 257x93f8
 215 482 l 258
 215 460 215 460 211 459 c 256
 209 458 209 458 202 458 c 258
 142 458 l 258
 131 458 131 458 131 471 c 258
 131 594 l 257
 131 620 l 258
 131 627 131 627 134 630 c 256
 137 632 137 632 145 632 c 258x95f8
 466 632 l 257x93f8
621 402 m 257xd9f8
 455 402 l 257
 356 402 l 257
 266 402 l 258
 265 402 265 402 262 402 c 0
 259 402 259 402 256.5 402 c 0
 254 402 254 402 251 402 c 0
 248 402 248 402 246 402.5 c 0
 244 403 244 403 242 404.5 c 0
 240 406 240 406 239 408 c 256
 238 410 238 410 238 417 c 258
 238 473 l 258
 238 484 238 484 251 484 c 258
 654 484 l 257
 746 484 l 258
 768 484 768 484 770 483 c 256
 773 482 773 482 775 479 c 256
 776 477 776 477 776 470 c 258
 776 409 l 258
 776 400 776 400 764 391 c 258
 731 369 l 258
 696 344 696 344 632 306 c 257
 624 302 l 257
 599 288 l 257
 588 282 l 257
 571 272 l 258
 560 267 560 267 558 264 c 256
 557 262 557 262 557 248 c 257
 819 248 l 257
 886 248 l 258
 894 248 894 248 896.5 245.5 c 0
 899 243 899 243 899 234 c 258
 899 176 l 258
 899 165 899 165 886 165 c 258
 557 165 l 257
 557 -2 l 257
 557 -32 l 258
 557 -62 557 -62 532 -80 c 256
 521 -89 521 -89 505 -93 c 0
 489 -97 489 -97 479.5 -97.5 c 0
 470 -98 470 -98 450 -98 c 258
 438 -97 l 257xd9f8
 416 -96 l 257
 408 -94 l 257
 393 -93 l 257
 384 -93 l 257
 376 -91 l 257
 348 -89 l 257
 339 -89 l 257
 332 -87 l 258
 330 -87 330 -87 324 -86.5 c 0
 318 -86 318 -86 312.5 -86 c 0
 307 -86 307 -86 306 -85 c 256
 301 -82 301 -82 299 -61 c 258
 294 -25 l 258
 292 -13 292 -13 295 -8 c 256
 297 -5 297 -5 307 -5 c 258
 325 -6 l 257
 333 -8 l 257xb1f8
 354 -9 l 257
 362 -11 l 257
 396 -13 l 257
 404 -15 l 257
 438 -17 l 258
 458 -17 458 -17 462 -12 c 256
 463 -9 463 -9 463 -2 c 258
 463 165 l 257
 203 165 l 257
 137 165 l 258
 129 165 129 165 126.5 167.5 c 0
 124 170 124 170 124 178 c 258
 124 237 l 258
 124 248 124 248 137 248 c 258
 463 248 l 257
 463 303 l 258
 463 310 463 310 465 313 c 256
 467 316 467 316 478 323 c 258
 502 336 l 257
 523 348 l 257
 543 358 l 257
 574 377 l 257
 621 402 l 257xd9f8
EndSplineSet
Validated: 1
EndChar

StartChar: greater
Encoding: 62 62 14
Width: 1024
HStem: 227 159<115 432 592 909>
VStem: 432 160<-89.9651 227 386 702.965>
LayerCount: 2
Fore
SplineSet
432 386 m 257
 432 631 l 257
 432 686 l 258
 432 702 432 702 434 703 c 256
 435 704 435 704 441 705 c 258
 557 705 l 257
 583 705 l 258
 589 705 589 705 590 703 c 256
 592 702 592 702 592 695 c 258
 592 386 l 257
 909 386 l 257
 909 227 l 257
 592 227 l 257
 592 -17 l 257
 592 -73 l 258
 592 -89 592 -89 590 -90 c 256
 589 -91 589 -91 583 -91 c 258
 467 -91 l 257
 441 -91 l 258
 435 -91 435 -91 434 -90 c 256
 432 -89 432 -89 432 -82 c 258
 432 227 l 257
 115 227 l 257
 115 386 l 257
 432 386 l 257
EndSplineSet
Validated: 1
EndChar

StartChar: question
Encoding: 63 63 15
Width: 1024
HStem: 227 159<115 909>
LayerCount: 2
Fore
SplineSet
115 386 m 257
 909 386 l 257
 909 227 l 257
 115 227 l 257
 115 386 l 257
EndSplineSet
Validated: 1
EndChar

StartChar: at
Encoding: 64 64 16
Width: 1024
HStem: 256 102<284 922>
LayerCount: 2
Fore
SplineSet
283 487 m 257
 283.666666667 480.333333333 284 459 284 423 c 0
 284 369 284 369 284 358 c 257
 922 358 l 257
 922 256 l 257
 284 256 l 257
 284 126 l 257
 222.666666667 185.333333333 162 245.666666667 102 307 c 257
 283 487 l 257
EndSplineSet
Validated: 1
EndChar

StartChar: A
Encoding: 65 65 17
Width: 1024
LayerCount: 2
Fore
SplineSet
102 717 m 257
 358 717 l 257
 346 704 346 704 274 632 c 256
 269 627 269 627 269 625 c 0
 269 623 269 623 276 615 c 258
 298 594 l 257
 384 508 l 257
 729 163 l 257
 877 15 l 257
 910 -18 l 258
 920 -28 920 -28 919 -33 c 258
 901 -50 l 257
 867 -84 l 257
 855 -96 l 258
 851 -100 851 -100 849 -100 c 256
 847 -100 847 -100 836 -89 c 258
 801 -54 l 257
 664 83 l 257
 313 433 l 257
 225 521 l 257
 204 543 l 258
 197 550 197 550 195 550 c 0
 193 550 193 550 187 545 c 258
 170 527 l 257
 127 484 l 258
 107 464 107 464 102 461 c 257
 102 717 l 257
EndSplineSet
Validated: 1
EndChar

StartChar: B
Encoding: 66 66 18
Width: 1024
VStem: 461 102<-102 535>
LayerCount: 2
Fore
SplineSet
332 537 m 257
 512 717 l 257
 603 627 603 627 692 535 c 257
 563 535 l 257
 563 -102 l 257
 461 -102 l 257
 461 535 l 257
 450 536 450 536 396 535.5 c 0
 342 535 342 535 332 537 c 257
EndSplineSet
Validated: 33
EndChar

StartChar: C
Encoding: 67 67 19
Width: 1024
LayerCount: 2
Fore
SplineSet
920 717 m 257
 920 461 l 257
 916 464 916 464 895 484 c 258
 852 527 l 257
 835 545 l 258
 829 550 829 550 827 550 c 0
 825 550 825 550 818 543 c 258
 797 521 l 257
 709 433 l 257
 358 83 l 257
 221 -54 l 257
 186 -89 l 258
 175 -100 175 -100 173 -100 c 256
 171 -100 171 -100 167 -96 c 258
 155 -84 l 257
 121 -50 l 257
 103 -33 l 258
 100 -29 100 -29 112 -18 c 258
 145 15 l 257
 293 163 l 257
 638 508 l 257
 724 594 l 257
 745 615 l 258
 752 622 752 622 752.5 624.5 c 0
 753 627 753 627 748 632 c 256
 676 704 676 704 664 717 c 257
 920 717 l 257
EndSplineSet
Validated: 1
EndChar

StartChar: D
Encoding: 68 68 20
Width: 1024
HStem: 256 102<102 740>
LayerCount: 2
Fore
SplineSet
741 487 m 257
 922 307 l 257
 833 215 833 215 740 126 c 257
 740 256 l 257
 102 256 l 257
 102 358 l 257
 740 358 l 257
 740 368 740 368 740 422.5 c 0
 740 477 740 477 741 487 c 257
EndSplineSet
Validated: 1
EndChar

StartChar: E
Encoding: 69 69 21
Width: 1024
LayerCount: 2
Fore
SplineSet
920 -100 m 257
 664 -100 l 257
 676 -86 676 -86 748 -15 c 256
 753 -10 753 -10 753 -8 c 0
 753 -6 753 -6 745 1 c 258
 724 23 l 257
 638 109 l 257
 293 454 l 257
 145 601 l 257
 112 635 l 258
 101 645 101 645 103 649 c 258
 121 667 l 257
 155 700 l 257
 167 713 l 258
 171 717 171 717 173 717 c 256
 175 717 175 717 186 706 c 258
 221 671 l 257
 358 534 l 257
 709 183 l 257
 797 95 l 257
 818 74 l 258
 825 67 825 67 826.5 67 c 0
 828 67 828 67 835 72 c 258
 852 89 l 257
 895 132 l 258
 915 154 915 154 920 156 c 257
 920 -100 l 257
EndSplineSet
Validated: 1
EndChar

StartChar: F
Encoding: 70 70 22
Width: 1024
VStem: 461 102<78 717>
LayerCount: 2
Fore
SplineSet
332 78 m 257
 338.666666667 78.6666666667 360 78.8333333333 396 78.5 c 0
 432 78.1666666667 453.666666667 78 461 78 c 257
 461 717 l 257
 563 717 l 257
 563 78 l 257
 692 78 l 257
 632.666666667 17.3333333333 572.666666667 -42.6666666667 512 -102 c 257
 332 78 l 257
EndSplineSet
Validated: 33
EndChar

StartChar: G
Encoding: 71 71 23
Width: 1024
LayerCount: 2
Fore
SplineSet
102 -100 m 257
 102 156 l 257
 106 154 106 154 127 132 c 258
 170 89 l 257
 187 72 l 258
 192 67 192 67 194.5 67 c 0
 197 67 197 67 204 74 c 258
 225 95 l 257
 313 183 l 257
 664 534 l 257
 801 671 l 257
 836 706 l 258
 847 717 847 717 849 717 c 256
 851 717 851 717 855 713 c 258
 867 700 l 257
 901 667 l 257
 919 649 l 258
 921 645 921 645 910 635 c 258
 877 601 l 257
 729 454 l 257
 384 109 l 257
 298 23 l 257
 276 1 l 258
 269 -6 269 -6 269 -8 c 0
 269 -10 269 -10 274 -15 c 256
 346 -86 346 -86 358 -100 c 257
 102 -100 l 257
EndSplineSet
Validated: 1
EndChar

StartChar: H
Encoding: 72 72 24
Width: 1024
LayerCount: 2
Fore
SplineSet
922 -102 m 257
 102 307 l 257
 922 717 l 257
 922 603 l 257
 332 307 l 257
 922 11 l 257
 922 -102 l 257
EndSplineSet
Validated: 1
EndChar

StartChar: I
Encoding: 73 73 25
Width: 1024
HStem: -127 21G<361.318 387.75> 721 20G<84.682 138.069>
LayerCount: 2
Fore
SplineSet
368 -127 m 257
 78 741 l 257
 946 452 l 257
 866 372 l 257
 240 580 l 257
 447 -47 l 257
 368 -127 l 257
EndSplineSet
Validated: 1
EndChar

StartChar: J
Encoding: 74 74 26
Width: 1024
LayerCount: 2
Fore
SplineSet
922 -102 m 257
 808 -102 l 257
 512 487 l 257
 216 -102 l 257
 102 -102 l 257
 512 717 l 257
 922 -102 l 257
EndSplineSet
Validated: 1
EndChar

StartChar: K
Encoding: 75 75 27
Width: 1024
HStem: -127 21G<636.25 662.682> 721 20G<885.931 939.318>
LayerCount: 2
Fore
SplineSet
656 -127 m 257
 577 -47 l 257
 784 580 l 257
 158 372 l 257
 78 452 l 257
 946 741 l 257
 656 -127 l 257
EndSplineSet
Validated: 1
EndChar

StartChar: L
Encoding: 76 76 28
Width: 1024
LayerCount: 2
Fore
SplineSet
102 -102 m 257
 102 11 l 257
 692 307 l 257
 102 603 l 257
 102 717 l 257
 922 307 l 257
 102 -102 l 257
EndSplineSet
Validated: 1
EndChar

StartChar: M
Encoding: 77 77 29
Width: 1024
HStem: -127 21G<886.138 939.318> 721 20G<636 662.682>
LayerCount: 2
Fore
SplineSet
656 741 m 257
 946 -127 l 257
 78 163 l 257
 158 243 l 257
 784 35 l 257
 577 662 l 257
 656 741 l 257
EndSplineSet
Validated: 1
EndChar

StartChar: N
Encoding: 78 78 30
Width: 1024
LayerCount: 2
Fore
SplineSet
922 717 m 257
 512 -102 l 257
 102 717 l 257
 216 717 l 257
 512 127 l 257
 808 717 l 257
 922 717 l 257
EndSplineSet
Validated: 1
EndChar

StartChar: O
Encoding: 79 79 31
Width: 1024
HStem: -127 21G<84.682 137.862> 721 20G<361.318 388>
LayerCount: 2
Fore
SplineSet
368 741 m 257
 447 662 l 257
 240 35 l 257
 866 243 l 257
 946 163 l 257
 78 -127 l 257
 368 741 l 257
EndSplineSet
Validated: 1
EndChar

StartChar: P
Encoding: 80 80 32
Width: 854
VWidth: 787
Flags: HW
LayerCount: 2
Fore
SplineSet
701.365234375 576.669921875 m 262
 700.91796875 587.836914062 697.233398438 596.434570312 690.309570312 602.46484375 c 4
 683.38671875 608.495117188 675.01171875 611.509765625 665.184570312 611.509765625 c 260
 659.377929688 611.509765625 650.221679688 607.936523438 637.71484375 600.790039062 c 260
 635.03515625 599.002929688 621.634765625 591.41015625 597.514648438 578.009765625 c 4
 573.39453125 564.610351562 555.08203125 554.336914062 542.575195312 547.190429688 c 260
 498.801757812 523.0703125 472.89453125 508.552734375 464.85546875 503.639648438 c 262
 371.0546875 450.709960938 l 262
 370.162109375 450.262695312 364.801757812 447.360351562 354.974609375 442 c 4
 345.1484375 436.639648438 334.65234375 430.721679688 323.485351562 424.245117188 c 4
 312.318359375 417.768554688 302.044921875 411.849609375 292.665039062 406.490234375 c 262
 278.594726562 398.450195312 l 262
 259.834960938 387.73046875 231.471679688 371.873046875 193.504882812 350.879882812 c 262
 178.094726562 342.169921875 l 262
 173.181640625 339.490234375 169.384765625 337.14453125 166.705078125 335.134765625 c 4
 164.025390625 333.125 161.009765625 329.663085938 157.66015625 324.75 c 4
 154.309570312 319.836914062 152.634765625 314.030273438 152.634765625 307.330078125 c 260
 152.634765625 297.502929688 154.98046875 290.356445312 159.669921875 285.889648438 c 4
 164.360351562 281.422851562 172.735351562 275.83984375 184.794921875 269.139648438 c 260
 201.322265625 260.20703125 240.627929688 238.3203125 302.71484375 203.48046875 c 260
 318.794921875 193.653320312 333.311523438 185.389648438 346.264648438 178.690429688 c 260
 380.211914062 159.483398438 399.1953125 148.762695312 403.21484375 146.530273438 c 261
 403.21484375 145.860351562 l 261
 406.341796875 144.966796875 412.483398438 141.83984375 421.639648438 136.48046875 c 4
 430.796875 131.120117188 442.186523438 124.532226562 455.809570312 116.71484375 c 4
 469.43359375 108.8984375 480.711914062 102.533203125 489.64453125 97.6201171875 c 260
 497.684570312 93.599609375 508.0703125 87.9052734375 520.799804688 80.53515625 c 4
 533.530273438 73.1650390625 548.828125 64.3427734375 566.6953125 54.0703125 c 260
 583.221679688 44.2431640625 601.087890625 34.193359375 620.294921875 23.919921875 c 260
 629.228515625 18.5595703125 635.705078125 14.9873046875 639.724609375 13.2001953125 c 260
 650.891601562 7.3935546875 659.825195312 4.490234375 666.525390625 4.490234375 c 260
 676.3515625 4.490234375 684.502929688 7.83984375 690.98046875 14.5400390625 c 4
 697.45703125 21.240234375 700.91796875 29.5029296875 701.365234375 39.330078125 c 262
 701.365234375 576.669921875 l 262
EndSplineSet
Validated: 9
EndChar

StartChar: Q
Encoding: 81 81 33
Width: 954
VWidth: 787
Flags: HW
LayerCount: 2
Fore
SplineSet
252.634765625 576.669921875 m 262
 253.08203125 587.836914062 256.766601562 596.434570312 263.690429688 602.46484375 c 4
 270.61328125 608.495117188 278.98828125 611.509765625 288.815429688 611.509765625 c 260
 294.622070312 611.509765625 303.778320312 607.936523438 316.28515625 600.790039062 c 260
 318.96484375 599.002929688 332.365234375 591.41015625 356.485351562 578.009765625 c 4
 380.60546875 564.610351562 398.91796875 554.336914062 411.424804688 547.190429688 c 260
 455.198242188 523.0703125 481.10546875 508.553710938 489.14453125 503.639648438 c 262
 582.9453125 450.709960938 l 262
 583.837890625 450.263671875 589.198242188 447.360351562 599.025390625 442 c 4
 608.8515625 436.639648438 619.348632812 430.721679688 630.514648438 424.245117188 c 4
 641.681640625 417.768554688 651.955078125 411.849609375 661.334960938 406.490234375 c 262
 675.405273438 398.450195312 l 262
 694.165039062 387.73046875 722.528320312 371.873046875 760.495117188 350.879882812 c 262
 775.905273438 342.169921875 l 262
 780.818359375 339.490234375 784.615234375 337.14453125 787.294921875 335.134765625 c 4
 789.974609375 333.125 792.990234375 329.663085938 796.33984375 324.75 c 4
 799.690429688 319.836914062 801.365234375 314.030273438 801.365234375 307.330078125 c 260
 801.365234375 297.502929688 799.01953125 290.356445312 794.330078125 285.889648438 c 4
 789.639648438 281.422851562 781.264648438 275.83984375 769.205078125 269.139648438 c 260
 752.678710938 260.20703125 713.372070312 238.3203125 651.28515625 203.48046875 c 260
 635.205078125 193.653320312 620.688476562 185.389648438 607.735351562 178.690429688 c 260
 573.788085938 159.483398438 554.8046875 148.763671875 550.78515625 146.530273438 c 261
 550.78515625 145.860351562 l 261
 547.658203125 144.966796875 541.516601562 141.83984375 532.360351562 136.48046875 c 4
 523.203125 131.120117188 511.813476562 124.53125 498.190429688 116.71484375 c 4
 484.56640625 108.8984375 473.288085938 102.533203125 464.35546875 97.6201171875 c 260
 456.315429688 93.599609375 445.9296875 87.9052734375 433.200195312 80.53515625 c 4
 420.469726562 73.1650390625 405.171875 64.34375 387.3046875 54.0703125 c 260
 370.778320312 44.2431640625 352.912109375 34.193359375 333.705078125 23.919921875 c 260
 324.771484375 18.5595703125 318.294921875 14.986328125 314.275390625 13.2001953125 c 260
 303.108398438 7.3935546875 294.174804688 4.490234375 287.474609375 4.490234375 c 260
 277.6484375 4.490234375 269.497070312 7.83984375 263.01953125 14.5400390625 c 4
 256.54296875 21.240234375 253.08203125 29.5029296875 252.634765625 39.330078125 c 262
 252.634765625 576.669921875 l 262
EndSplineSet
Validated: 1
EndChar

StartChar: R
Encoding: 82 82 34
Width: 935
VWidth: 787
Flags: HW
HStem: 32.97 548.06<243.49 771.51>
VStem: 232.8 549.4<43.3146 571.01>
LayerCount: 2
Fore
SplineSet
262.280273438 581.030273438 m 256
 302.48046875 581.030273438 302.48046875 581.030273438 504.485351562 581.030273438 c 0
 706.490234375 581.030273438 706.490234375 581.030273438 746.690429688 581.030273438 c 256
 756.962890625 581.030273438 765.337890625 577.791992188 771.815429688 571.315429688 c 0
 778.291992188 564.837890625 781.752929688 556.686523438 782.200195312 546.860351562 c 258
 782.200195312 67.8095703125 l 258
 781.752929688 57.537109375 778.291992188 49.2734375 771.815429688 43.01953125 c 0
 765.337890625 36.7666015625 756.962890625 33.4169921875 746.690429688 32.9697265625 c 258
 268.309570312 32.9697265625 l 258
 258.037109375 33.4169921875 249.662109375 36.7666015625 243.184570312 43.01953125 c 0
 236.708007812 49.2734375 233.247070312 57.537109375 232.799804688 67.8095703125 c 258
 232.799804688 546.860351562 l 258
 233.247070312 555.79296875 236.038085938 563.38671875 241.174804688 569.639648438 c 0
 246.311523438 575.893554688 253.346679688 579.690429688 262.280273438 581.030273438 c 256
EndSplineSet
Validated: 1
EndChar

StartChar: S
Encoding: 83 83 35
Width: 935
VWidth: 787
Flags: HW
VStem: 301.827 171.52<50.2114 565.273> 541.687 171.52<50.2114 565.273>
LayerCount: 2
Fore
SplineSet
331.306640625 581.772460938 m 256
 340.686523438 581.772460938 340.686523438 581.772460938 388.590820312 581.772460938 c 0
 420.528320312 581.772460938 439.623046875 581.548828125 445.875976562 581.102539062 c 256
 455.703125 579.76171875 463.073242188 574.625976562 467.986328125 565.692382812 c 0
 472.899414062 556.758789062 474.686523438 547.155273438 473.346679688 536.881835938 c 256
 473.346679688 493.33203125 473.346679688 493.33203125 473.346679688 300.037109375 c 0
 473.346679688 106.7421875 473.346679688 106.7421875 473.346679688 64.5322265625 c 256
 472.899414062 53.8125 468.209960938 45.548828125 459.276367188 39.7421875 c 0
 450.342773438 33.935546875 440.516601562 31.7021484375 429.795898438 33.0419921875 c 256
 421.755859375 33.0419921875 421.755859375 33.0419921875 379.2109375 33.0419921875 c 0
 350.84765625 33.0419921875 333.986328125 33.265625 328.625976562 33.7119140625 c 256
 318.352539062 35.4990234375 310.983398438 40.8583984375 306.516601562 49.7919921875 c 0
 302.049804688 58.7255859375 300.486328125 68.3291015625 301.826171875 78.6025390625 c 256
 301.826171875 120.8125 301.826171875 120.8125 301.826171875 313.772460938 c 0
 301.826171875 506.732421875 301.826171875 506.732421875 301.826171875 549.612304688 c 256
 302.272460938 557.65234375 305.399414062 564.6875 311.206054688 570.716796875 c 0
 317.012695312 576.747070312 323.712890625 580.432617188 331.306640625 581.772460938 c 256
571.166015625 581.772460938 m 256
 580.545898438 581.772460938 580.545898438 581.772460938 628.451171875 581.772460938 c 0
 660.387695312 581.772460938 679.483398438 581.548828125 685.736328125 581.102539062 c 256
 695.5625 579.76171875 702.932617188 574.625976562 707.846679688 565.692382812 c 0
 712.759765625 556.758789062 714.545898438 547.155273438 713.206054688 536.881835938 c 256
 713.206054688 493.33203125 713.206054688 493.33203125 713.206054688 300.037109375 c 0
 713.206054688 106.7421875 713.206054688 106.7421875 713.206054688 64.5322265625 c 256
 712.759765625 53.8125 708.069335938 45.548828125 699.13671875 39.7421875 c 0
 690.203125 33.935546875 680.599609375 31.7021484375 670.326171875 33.0419921875 c 256
 662.286132812 33.0419921875 662.286132812 33.0419921875 619.40625 33.0419921875 c 0
 590.819335938 33.0419921875 573.846679688 33.265625 568.486328125 33.7119140625 c 256
 558.212890625 35.4990234375 550.842773438 40.8583984375 546.375976562 49.7919921875 c 0
 541.909179688 58.7255859375 540.346679688 68.3291015625 541.686523438 78.6025390625 c 256
 541.686523438 120.8125 541.686523438 120.8125 541.686523438 313.772460938 c 0
 541.686523438 506.732421875 541.686523438 506.732421875 541.686523438 549.612304688 c 256
 542.1328125 557.65234375 545.259765625 564.6875 551.06640625 570.716796875 c 0
 556.873046875 576.747070312 563.573242188 580.432617188 571.166015625 581.772460938 c 256
EndSplineSet
Validated: 1
EndChar

StartChar: T
Encoding: 84 84 36
Width: 935
VWidth: 787
Flags: HW
LayerCount: 2
Fore
SplineSet
494.000976562 581.739257812 m 257
 516.110351562 581.739257812 l 257
 524.150390625 581.069335938 l 257
 530.180664062 581.069335938 l 257
 554.30078125 578.388671875 554.30078125 578.388671875 573.060546875 573.69921875 c 256
 648.100585938 554.938476562 648.100585938 554.938476562 701.700195312 501.338867188 c 0
 755.30078125 447.739257812 755.30078125 447.739257812 773.390625 373.369140625 c 256
 778.080078125 353.938476562 778.080078125 353.938476562 781.430664062 329.819335938 c 257
 781.430664062 323.7890625 l 257
 782.100585938 317.088867188 l 257
 782.208700054 307.898064077 782.299366372 300.190501916 782.299366372 293.521233928 c 0
 782.299366372 258.864829946 779.851111464 252.245395763 764.680664062 211.228515625 c 256
 743.91015625 155.619140625 743.91015625 155.619140625 701.365234375 113.07421875 c 0
 658.8203125 70.529296875 658.8203125 70.529296875 603.2109375 49.7587890625 c 256
 564.764115831 35.5388999844 556.539199177 32.4968435171 527.443304648 32.4968435171 c 0
 519.524832686 32.4968435171 510.060529281 32.7221567039 498.020507812 33.0087890625 c 257
 489.98046875 33.6787109375 l 258
 456.48046875 35.0185546875 456.48046875 35.0185546875 421.640625 46.4091796875 c 256
 363.350585938 65.8388671875 363.350585938 65.8388671875 319.80078125 106.0390625 c 256
 252.130859375 169.018554688 252.130859375 169.018554688 237.390625 261.478515625 c 258
 233.370117188 284.928710938 l 257
 233.370117188 290.958984375 l 257
 232.700195312 297.659179688 l 257
 232.700195312 315.079101562 l 257
 233.370117188 323.7890625 l 257
 233.370117188 329.819335938 l 257
 238.060546875 380.069335938 238.060546875 380.069335938 256.8203125 420.268554688 c 256
 297.690429688 509.37890625 297.690429688 509.37890625 384.120117188 552.258789062 c 256
 400.870117188 560.298828125 400.870117188 560.298828125 412.260742188 564.319335938 c 256
 440.400390625 574.369140625 440.400390625 574.369140625 467.200195312 579.05859375 c 258
 484.620117188 581.069335938 l 257
 494.000976562 581.739257812 l 257
EndSplineSet
Validated: 1
EndChar

StartChar: U
Encoding: 85 85 37
Width: 935
VWidth: 787
Flags: HW
VStem: 232.8 103.18<39.4948 575.769>
LayerCount: 2
Fore
SplineSet
281.709960938 581.865234375 m 257
 305.16015625 581.1953125 l 258
 314.540039062 581.1953125 314.540039062 581.1953125 323.919921875 573.825195312 c 256
 335.98046875 565.115234375 335.98046875 565.115234375 335.98046875 545.014648438 c 258
 335.98046875 450.544921875 l 257
 335.98046875 70.6552734375 l 258
 335.98046875 62.615234375 335.98046875 62.615234375 334.639648438 56.5849609375 c 256
 333.299804688 51.89453125 333.299804688 51.89453125 330.620117188 47.875 c 256
 323.919921875 38.4951171875 323.919921875 38.4951171875 314.875 35.8154296875 c 0
 305.830078125 33.134765625 305.830078125 33.134765625 291.08984375 33.134765625 c 258
 272.330078125 33.134765625 l 258
 244.860351562 33.134765625 244.860351562 33.134765625 236.8203125 53.2353515625 c 256
 233.469726562 60.60546875 233.469726562 60.60546875 232.799804688 88.7451171875 c 258
 232.799804688 150.384765625 l 257
 232.799804688 484.044921875 l 257
 232.799804688 528.934570312 l 258
 232.799804688 551.044921875 232.799804688 551.044921875 234.139648438 556.405273438 c 256
 238.16015625 573.155273438 238.16015625 573.155273438 253.5703125 579.184570312 c 256
 261.610351562 581.865234375 261.610351562 581.865234375 277.690429688 581.865234375 c 258
 281.709960938 581.865234375 l 257
752.719726562 561.764648438 m 256
 766.120117188 559.084960938 766.120117188 559.084960938 774.16015625 549.705078125 c 0
 782.200195312 540.325195312 782.200195312 540.325195312 782.200195312 526.924804688 c 258
 782.200195312 447.1953125 l 257
 782.200195312 81.375 l 258
 782.200195312 66.634765625 782.200195312 66.634765625 772.485351562 56.5849609375 c 0
 762.76953125 46.53515625 762.76953125 46.53515625 748.030273438 46.53515625 c 256
 744.009765625 46.53515625 744.009765625 46.53515625 740.66015625 46.8701171875 c 0
 737.309570312 47.205078125 737.309570312 47.205078125 733.625 48.8798828125 c 0
 729.940429688 50.5546875 729.940429688 50.5546875 727.9296875 51.5595703125 c 0
 725.919921875 52.5654296875 725.919921875 52.5654296875 721.23046875 55.2451171875 c 0
 716.540039062 57.9248046875 716.540039062 57.9248046875 714.530273438 59.9345703125 c 258
 658.919921875 94.10546875 l 257
 573.16015625 147.03515625 l 257
 510.849609375 185.224609375 l 257
 432.459960938 233.46484375 l 257
 374.169921875 268.974609375 l 258
 365.459960938 274.334960938 365.459960938 274.334960938 361.440429688 277.684570312 c 0
 357.419921875 281.03515625 357.419921875 281.03515625 353.065429688 287.735351562 c 0
 348.709960938 294.434570312 348.709960938 294.434570312 348.709960938 303.14453125 c 256
 348.709960938 320.565429688 348.709960938 320.565429688 360.76953125 330.615234375 c 256
 362.780273438 332.625 362.780273438 332.625 376.1796875 340.665039062 c 258
 404.3203125 358.084960938 l 257
 536.98046875 439.825195312 l 257
 586.559570312 469.974609375 l 257
 672.990234375 523.575195312 l 257
 695.76953125 536.974609375 l 257
 719.889648438 552.384765625 l 258
 720.559570312 553.0546875 720.559570312 553.0546875 724.245117188 554.73046875 c 0
 727.9296875 556.405273438 727.9296875 556.405273438 728.599609375 556.740234375 c 0
 729.26953125 557.075195312 729.26953125 557.075195312 731.950195312 558.415039062 c 0
 734.629882812 559.754882812 734.629882812 559.754882812 735.634765625 560.08984375 c 0
 736.639648438 560.424804688 736.639648438 560.424804688 738.985351562 561.094726562 c 0
 741.330078125 561.764648438 741.330078125 561.764648438 743.004882812 561.764648438 c 0
 744.6796875 561.764648438 744.6796875 561.764648438 747.360351562 561.764648438 c 0
 750.040039062 561.764648438 750.040039062 561.764648438 752.719726562 561.764648438 c 256
EndSplineSet
Validated: 1
EndChar

StartChar: V
Encoding: 86 86 38
Width: 855
VWidth: 787
Flags: HW
VStem: 599.02 103.18<39.1186 575.988>
LayerCount: 2
Fore
SplineSet
653.290039062 581.818359375 m 257
 657.309570312 581.818359375 l 258
 673.389648438 581.818359375 673.389648438 581.818359375 681.4296875 579.138671875 c 256
 696.83984375 573.108398438 696.83984375 573.108398438 700.860351562 556.358398438 c 256
 702.200195312 550.999023438 702.200195312 550.999023438 702.200195312 528.888671875 c 258
 702.200195312 483.999023438 l 257
 702.200195312 150.338867188 l 257
 702.200195312 88.6982421875 l 258
 702.200195312 61.228515625 702.200195312 61.228515625 699.51953125 53.1884765625 c 256
 692.135685755 35.5811634137 691.011475026 32.900401692 673.696086276 32.900401692 c 0
 670.586296879 32.900401692 666.954260533 32.9868697445 662.669921875 33.0888671875 c 258
 643.91015625 33.0888671875 l 258
 634.530273438 33.0888671875 634.530273438 33.0888671875 628.834960938 33.7587890625 c 0
 623.139648438 34.4287109375 623.139648438 34.4287109375 616.10546875 37.7783203125 c 0
 609.0703125 41.12890625 609.0703125 41.12890625 605.049804688 47.828125 c 256
 601.700195312 51.8486328125 601.700195312 51.8486328125 600.360351562 56.5390625 c 256
 599.01953125 61.8984375 599.01953125 61.8984375 599.01953125 70.6083984375 c 258
 599.01953125 450.499023438 l 257
 599.01953125 544.96875 l 258
 599.01953125 565.068359375 599.01953125 565.068359375 611.080078125 573.778320312 c 256
 619.790039062 581.1484375 619.790039062 581.1484375 629.83984375 581.1484375 c 258
 653.290039062 581.818359375 l 257
182.280273438 561.71875 m 256
 184.959960938 561.71875 184.959960938 561.71875 187.639648438 561.71875 c 0
 190.3203125 561.71875 190.3203125 561.71875 191.995117188 561.71875 c 0
 193.669921875 561.71875 193.669921875 561.71875 196.014648438 561.048828125 c 0
 198.360351562 560.37890625 198.360351562 560.37890625 199.365234375 560.043945312 c 0
 200.370117188 559.708984375 200.370117188 559.708984375 203.049804688 558.368164062 c 0
 205.73046875 557.028320312 205.73046875 557.028320312 206.400390625 556.693359375 c 0
 207.0703125 556.358398438 207.0703125 556.358398438 210.754882812 554.68359375 c 0
 214.440429688 553.008789062 214.440429688 553.008789062 215.110351562 552.338867188 c 258
 239.23046875 536.928710938 l 257
 262.009765625 523.528320312 l 257
 348.440429688 469.928710938 l 257
 398.01953125 439.778320312 l 257
 530.6796875 358.0390625 l 257
 558.8203125 340.618164062 l 258
 572.219726562 332.578125 572.219726562 332.578125 574.23046875 330.568359375 c 256
 585.620117188 320.518554688 585.620117188 320.518554688 586.290039062 303.098632812 c 256
 586.290039062 294.388671875 586.290039062 294.388671875 581.934570312 287.688476562 c 0
 577.580078125 280.98828125 577.580078125 280.98828125 573.559570312 277.638671875 c 0
 569.540039062 274.2890625 569.540039062 274.2890625 560.830078125 268.928710938 c 258
 502.540039062 233.418945312 l 257
 424.150390625 185.178710938 l 257
 361.83984375 146.98828125 l 257
 276.080078125 94.05859375 l 257
 220.469726562 59.888671875 l 258
 218.459960938 58.548828125 218.459960938 58.548828125 213.76953125 55.533203125 c 0
 209.080078125 52.5185546875 209.080078125 52.5185546875 207.0703125 51.513671875 c 0
 205.059570312 50.5087890625 205.059570312 50.5087890625 201.709960938 48.833984375 c 0
 198.360351562 47.158203125 198.360351562 47.158203125 194.674804688 46.8232421875 c 0
 190.990234375 46.48828125 190.990234375 46.48828125 186.969726562 46.48828125 c 256
 172.23046875 46.48828125 172.23046875 46.48828125 162.514648438 56.8740234375 c 0
 152.799804688 67.2587890625 152.799804688 67.2587890625 152.799804688 81.328125 c 258
 152.799804688 447.1484375 l 257
 152.799804688 526.87890625 l 258
 152.799804688 540.278320312 152.799804688 540.278320312 160.83984375 549.658203125 c 0
 168.879882812 559.0390625 168.879882812 559.0390625 182.280273438 561.71875 c 256
EndSplineSet
Validated: 1
EndChar

StartChar: W
Encoding: 87 87 39
Width: 1024
Flags: HW
LayerCount: 2
Fore
SplineSet
561 213 m 257
 561 85 l 258
 561 63 561 63 546.5 48 c 0
 532 33 532 33 511 33 c 256
 498 33 498 33 487.5 37 c 0
 477 41 477 41 465 50 c 0
 453 59 453 59 445 62 c 258
 420 79 l 257
 402 89 l 257
 390 97 l 257
 374 106 l 257
 337 130 l 257
 302 152 l 257
 278 168 l 257
 258 179 l 257
 241 190 l 257
 230 197 l 257
 210 210 l 257
 187 223 l 257
 169 236 l 257
 151 247 l 257
 134 257 l 257
 122 265 l 258
 103 281 103 281 102 305 c 256
 102 333 102 333 123 349 c 258
 134 357 l 257
 156 371 l 257
 169 379 l 257
 187 391 l 257
 210 404 l 257
 230 418 l 257
 241 424 l 257
 257 435 l 257
 279 447 l 257
 324 476 l 257
 337 484 l 257
 375 509 l 257
 390 517 l 257
 402 525 l 257
 420 536 l 257
 445 552 l 258
 451 555 451 555 463.5 563.5 c 0
 476 572 476 572 486 577 c 0
 496 582 496 582 507 582 c 256
 531 582 531 582 546 567.5 c 0
 561 553 561 553 561 529 c 258
 561 401 l 257
 603 426 l 257
 618 437 l 257
 637 447 l 257
 682 476 l 257
 695 484 l 257
 732 508 l 257
 770 530 l 257
 798 549 l 257
 816 559 l 258
 817 560 817 560 825 565 c 0
 833 570 833 570 835.5 571.5 c 0
 838 573 838 573 844 576.5 c 0
 850 580 850 580 855 581 c 0
 860 582 860 582 865 582 c 256
 876 582 876 582 885 579 c 256
 892 577 892 577 898 572 c 256
 909 564 909 564 914.5 552.5 c 0
 920 541 920 541 920 535 c 0
 920 529 920 529 920 509 c 258
 920 468 l 257
 920 85 l 258
 920 63 920 63 905.5 48 c 0
 891 33 891 33 869 33 c 256
 862 33 862 33 857 34 c 0
 852 35 852 35 845.5 37.5 c 0
 839 40 839 40 837 41.5 c 0
 835 43 835 43 826.5 48.5 c 0
 818 54 818 54 816 55 c 258
 798 66 l 257
 771 83 l 257
 731 108 l 257
 694 131 l 257
 675 142 l 257
 637 167 l 257
 620 177 l 257
 603 188 l 257
 589 197 l 258
 565 211 565 211 561 213 c 257
EndSplineSet
Validated: 1
EndChar

StartChar: grave
Encoding: 96 96 40
Width: 1024
Flags: HW
HStem: 667 100.5<537.287 947.435> 674 93<685.873 963.138>
LayerCount: 2
Fore
SplineSet
695 667 m 258x80
 655.666666667 667 621.333333333 666.333333333 592 665 c 257
 569.333333333 660.333333333 548.166666667 651.833333333 528.5 639.5 c 0
 508.833333333 627.166666667 490.333333333 611.5 473 592.5 c 0
 455.666666667 573.5 441.166666667 555.833333333 429.5 539.5 c 0
 417.833333333 523.166666667 404.666666667 503.333333333 390 480 c 256
 361.333333333 431.333333333 333.5 376.166666667 306.5 314.5 c 0
 279.5 252.833333333 258.666666667 201.333333333 244 160 c 0
 229.333333333 118.666666667 209.333333333 60.3333333333 184 -15 c 256
 160 -87 160 -87 148 -123 c 256
 142 -139 131 -148.666666667 115 -152 c 0
 99 -155.333333333 84.1666666667 -152.166666667 70.5 -142.5 c 0
 56.8333333333 -132.833333333 50.6666666667 -119.333333333 52 -102 c 256
 54.6666666667 -89.3333333333 58.1666666667 -75.8333333333 62.5 -61.5 c 0
 66.8333333333 -47.1666666667 72.6666666667 -29.5 80 -8.5 c 0
 87.3333333333 12.5 91.6666666667 25.3333333333 93 30 c 256
 121 114 144.166666667 181 162.5 231 c 0
 180.833333333 281 206.166666667 340.166666667 238.5 408.5 c 0
 270.833333333 476.833333333 305 537.333333333 341 590 c 256
 420.333333333 704 507.666666667 763 603 767 c 256x40
 606.333333333 767 630.833333333 767.166666667 676.5 767.5 c 0
 722.166666667 767.833333333 769.666666667 767.833333333 819 767.5 c 0x80
 868.333333333 767.166666667 905.333333333 767 930 767 c 256
 944.666666667 765.666666667 955.833333333 758.833333333 963.5 746.5 c 0
 971.166666667 734.166666667 973.833333333 720.666666667 971.5 706 c 0
 969.166666667 691.333333333 961.333333333 680.666666667 948 674 c 256x40
 936 668.666666667 920.333333333 666 901 666 c 258
 695 667 l 258x80
EndSplineSet
Validated: 33
EndChar

StartChar: a
Encoding: 97 97 41
Width: 1024
HStem: 666 101<75.4424 486.503>
VStem: 876 96<-143.508 -58.374>
LayerCount: 2
Fore
SplineSet
421 767 m 256
 516.333333333 763 603.666666667 704 683 590 c 256
 733 516.666666667 775.333333333 438.666666667 810 356 c 0
 844.666666667 273.333333333 884.666666667 164.666666667 930 30 c 256
 931.333333333 27.3333333333 937.666666667 9 949 -25 c 256
 964.333333333 -69.6666666667 972 -95.3333333333 972 -102 c 258
 972 -104 l 258
 972 -105 972 -105 972 -106.5 c 0
 972 -108 972 -108 972 -109 c 256
 972 -122.333333333 965.333333333 -133.333333333 952 -142 c 256
 942.666666667 -148.666666667 932.333333333 -152.333333333 921 -153 c 256
 917.666666667 -153 913.333333333 -152.666666667 908 -152 c 256
 892 -150 881.333333333 -140.333333333 876 -123 c 256
 868 -99 855.666666667 -63 839 -15 c 256
 813.666666667 61 793.666666667 119.5 779 160.5 c 0
 764.333333333 201.5 743.5 253 716.5 315 c 0
 689.5 377 662 432 634 480 c 256
 618.666666667 503.333333333 605.333333333 523.166666667 594 539.5 c 0
 582.666666667 555.833333333 568.333333333 573.5 551 592.5 c 0
 533.666666667 611.5 515 627 495 639 c 0
 475 651 454 659.666666667 432 665 c 257
 402.666666667 666.333333333 368 667 328 667 c 262
 141 666 l 262
 129 666 129 666 123 666 c 256
 100.333333333 666 84.3333333333 668.666666667 75 674 c 256
 66.3333333333 678.666666667 59 689.666666667 53 707 c 256
 52.3333333333 709 52 712 52 716 c 256
 52 717 52 717 52 719 c 256
 51.3333333333 727 54.3333333333 736 61 746 c 256
 69 758 80 765 94 767 c 258
 135 767 l 258
 162 767 162 767 191.5 767 c 0
 221 767 221 767 253.5 767 c 0
 286 767 286 767 315 767 c 0
 344 767 344 767 367.5 767 c 0
 391 767 391 767 405.5 767 c 0
 420 767 420 767 421 767 c 256
EndSplineSet
Validated: 1
EndChar

StartChar: b
Encoding: 98 98 42
Width: 1024
HStem: -154 103<444.066 957.56> 256 102<77.3477 192.784> 666 102<444.643 957.56>
LayerCount: 2
Fore
SplineSet
267 306 m 257
 271 304 277.666666667 298.666666667 287 290 c 256
 297.666666667 279.333333333 308 266 318 250 c 256
 321.333333333 244.666666667 324.833333333 239.333333333 328.5 234 c 0
 332.166666667 228.666666667 335.5 222.666666667 338.5 216 c 0
 341.5 209.333333333 344 203.833333333 346 199.5 c 0
 348 195.166666667 350.5 188.833333333 353.5 180.5 c 0
 356.5 172.166666667 358.666666667 166.5 360 163.5 c 0
 361.333333333 160.5 363.666666667 154 367 144 c 0
 372 129 372 129 373 126 c 0
 373.666666667 124 375.666666667 117.5 379 106.5 c 0
 382.333333333 95.5 384 89.6666666667 384 89 c 258
 397 50 l 258
 401 38 406.333333333 25.6666666667 413 13 c 256
 430.333333333 -21 453 -41.3333333333 481 -48 c 256
 489 -50 497 -51 505 -51 c 258
 919 -51 l 258
 935.666666667 -51 948.666666667 -56.3333333333 958 -67 c 256
 970 -79 974.5 -93.6666666667 971.5 -111 c 0
 968.5 -128.333333333 959 -140.666666667 943 -148 c 256
 936.333333333 -151.333333333 928.333333333 -153.333333333 919 -154 c 258
 509 -154 l 257
 497 -153 l 257
 487 -153 l 258
 472.333333333 -151.666666667 460.333333333 -149.333333333 451 -146 c 256
 433.666666667 -141.333333333 419 -135.333333333 407 -128 c 256
 393.666666667 -120.666666667 381.666666667 -112 371 -102 c 256
 365 -96 359 -89.5 353 -82.5 c 0
 347 -75.5 341.833333333 -68.8333333333 337.5 -62.5 c 0
 333.166666667 -56.1666666667 328.5 -48 323.5 -38 c 0
 318.5 -28 314.833333333 -20.3333333333 312.5 -15 c 0
 310.166666667 -9.66666666667 306.833333333 -0.833333333333 302.5 11.5 c 0
 298.166666667 23.8333333333 295.333333333 31.8333333333 294 35.5 c 0
 292.666666667 39.1666666667 289.833333333 48 285.5 62 c 0
 281.166666667 76 278.666666667 84 278 86 c 256
 272.666666667 104 268.833333333 116 266.5 122 c 0
 264.166666667 128 259.833333333 138.833333333 253.5 154.5 c 0
 247.166666667 170.166666667 241.333333333 182 236 190 c 0
 230.666666667 198 223.5 206.666666667 214.5 216 c 0
 205.5 225.333333333 195.333333333 233.333333333 184 240 c 256
 176 244 166.333333333 247.333333333 155 250 c 256
 139.666666667 254 126.333333333 256 115 256 c 256
 114 256 114 256 109.5 256 c 0
 105 256 105 256 104 256 c 0
 103 256 103 256 99.5 256 c 0
 97.1666666667 256 95.6666666667 256.166666667 95 256.5 c 0
 94.3333333333 256.833333333 93 257.166666667 91 257.5 c 0
 89 257.833333333 87.5 258.166666667 86.5 258.5 c 0
 85.5 258.833333333 84.1666666667 259.166666667 82.5 259.5 c 0
 80.8333333333 259.833333333 79.5 260.5 78.5 261.5 c 0
 77.5 262.5 76.1666666667 263.5 74.5 264.5 c 0
 72.8333333333 265.5 71.3333333333 266.333333333 70 267 c 256
 56.6666666667 278.333333333 50.5 293 51.5 311 c 0
 52.5 329 61 342.666666667 77 352 c 256
 84.3333333333 356 97 358 115 358 c 256
 126.333333333 358 139.666666667 360.333333333 155 365 c 256
 166.333333333 367.666666667 176 371 184 375 c 256
 194.666666667 381 204.666666667 388.833333333 214 398.5 c 0
 223.333333333 408.166666667 230.666666667 416.833333333 236 424.5 c 0
 241.333333333 432.166666667 247.166666667 443.833333333 253.5 459.5 c 0
 259.833333333 475.166666667 264 486.166666667 266 492.5 c 0
 268 498.833333333 272 510.666666667 278 528 c 256
 278.666666667 530 281.166666667 538 285.5 552 c 0
 289.833333333 566 292.666666667 575 294 579 c 0
 295.333333333 583 298.166666667 591.166666667 302.5 603.5 c 0
 306.833333333 615.833333333 310.166666667 624.5 312.5 629.5 c 0
 314.833333333 634.5 318.5 642.166666667 323.5 652.5 c 0
 328.5 662.833333333 333.166666667 671 337.5 677 c 0
 341.833333333 683 346.833333333 689.666666667 352.5 697 c 0
 358.166666667 704.333333333 364.333333333 711 371 717 c 256
 381 726.333333333 393 734.666666667 407 742 c 256
 419 749.333333333 433.666666667 755.666666667 451 761 c 256
 461 763.666666667 473 765.666666667 487 767 c 258
 497 767 l 257
 509 768 l 257
 919 768 l 258
 935.666666667 768 948.666666667 763 958 753 c 256
 970 741 974.5 726.166666667 971.5 708.5 c 0
 968.5 690.833333333 959 678.333333333 943 671 c 256
 936.333333333 667.666666667 928.333333333 666 919 666 c 258
 505 666 l 258
 497.666666667 666 489.666666667 665 481 663 c 256
 452.333333333 656.333333333 429.666666667 635.666666667 413 601 c 256
 407 589 401.666666667 576.666666667 397 564 c 258
 384 525 l 258
 384 524.333333333 382.333333333 518.666666667 379 508 c 0
 375.666666667 497.333333333 373.666666667 490.833333333 373 488.5 c 0
 372.333333333 486.166666667 370.333333333 480.166666667 367 470.5 c 0
 363.666666667 460.833333333 361.333333333 454.333333333 360 451 c 0
 358.666666667 447.666666667 356.5 442 353.5 434 c 0
 350.5 426 348 419.833333333 346 415.5 c 0
 344 411.166666667 341.5 405.5 338.5 398.5 c 0
 335.5 391.5 332.333333333 385.5 329 380.5 c 0
 325.666666667 375.5 322 370.333333333 318 365 c 256
 308 349 297.666666667 335.666666667 287 325 c 256
 278.333333333 316.333333333 271.666666667 310.666666667 267 308 c 257
 267 306 l 257
EndSplineSet
Validated: 33
EndChar

StartChar: c
Encoding: 99 99 43
Width: 1024
HStem: -154 103<66.4709 580.154> 256 102<830.714 964.233> 666 102<66.4709 578.592>
LayerCount: 2
Fore
SplineSet
757 306 m 257
 757 308 l 257
 750 311 750 311 737 325 c 256
 721 341 721 341 706 365 c 256
 700 373 700 373 695 380.5 c 0
 690 388 690 388 685.5 398.5 c 0
 681 409 681 409 678 415.5 c 0
 675 422 675 422 670.5 434 c 0
 666 446 666 446 664 451.5 c 0
 662 457 662 457 657 471 c 0
 652 485 652 485 651 488.5 c 0
 650 492 650 492 645 508 c 0
 640 524 640 524 640 525 c 258
 627 564 l 258
 621 582 621 582 611 601 c 256
 585 652 585 652 543 663 c 256
 530 666 530 666 519 666 c 258
 105 666 l 258
 91 666 91 666 81 671 c 256
 57 682 57 682 52 708 c 0
 47 734 47 734 66 753 c 256
 81 768 81 768 105 768 c 258
 515 768 l 257
 527 767 l 257
 537 767 l 258
 559 765 559 765 573 761 c 256
 599 754 599 754 617 742 c 256
 637 731 637 731 653 717 c 256
 662 708 662 708 671 697 c 0
 680 686 680 686 686.5 677 c 0
 693 668 693 668 700.5 652.5 c 0
 708 637 708 637 711.5 629.5 c 0
 715 622 715 622 721.5 603.5 c 0
 728 585 728 585 730 579 c 0
 732 573 732 573 738 552 c 0
 744 531 744 531 746 528 c 256
 754 501 754 501 757.5 492 c 0
 761 483 761 483 770.5 459.5 c 0
 780 436 780 436 788 424.5 c 0
 796 413 796 413 809.5 398.5 c 0
 823 384 823 384 840 375 c 256
 852 369 852 369 869 365 c 256
 892 359 892 359 909 358 c 256
 936 358 936 358 947 352 c 256
 971 338 971 338 973 311.5 c 0
 975 285 975 285 954 267 c 256
 949 263 949 263 944.5 260.5 c 0
 940 258 940 258 932 257 c 0
 924 256 924 256 922.5 256 c 0
 921 256 921 256 909 256 c 256
 892 256 892 256 869 250 c 256
 852 246 852 246 840 240 c 256
 824 231 824 231 810 216.5 c 0
 796 202 796 202 788 190 c 0
 780 178 780 178 770.5 154.5 c 0
 761 131 761 131 758 122 c 0
 755 113 755 113 746 86 c 256
 744 83 744 83 738 62 c 0
 732 41 732 41 730 35.5 c 0
 728 30 728 30 721.5 11.5 c 0
 715 -7 715 -7 711.5 -15 c 0
 708 -23 708 -23 700.5 -38 c 0
 693 -53 693 -53 686.5 -62.5 c 0
 680 -72 680 -72 671.5 -82.5 c 0
 663 -93 663 -93 653 -102 c 256
 638 -116 638 -116 617 -128 c 256
 599 -139 599 -139 573 -146 c 256
 558 -150 558 -150 537 -153 c 258
 527 -153 l 257
 515 -154 l 257
 105 -154 l 258
 91 -154 91 -154 81 -148 c 256
 57 -137 57 -137 52 -111 c 0
 47 -85 47 -85 66 -67 c 256
 81 -52 81 -52 105 -51 c 258
 519 -51 l 258
 529 -51 529 -51 543 -48 c 256
 586 -38 586 -38 611 13 c 256
 620 31 620 31 627 50 c 258
 640 89 l 258
 640 90 640 90 645 106.5 c 0
 650 123 650 123 651 126 c 0
 652 129 652 129 657 143.5 c 0
 662 158 662 158 664 163 c 0
 666 168 666 168 670.5 180.5 c 0
 675 193 675 193 678 199.5 c 0
 681 206 681 206 685.5 216 c 0
 690 226 690 226 694.5 234 c 0
 699 242 699 242 706 250 c 256
 721 274 721 274 737 290 c 256
 750 303 750 303 757 306 c 257
EndSplineSet
Validated: 33
EndChar

StartChar: d
Encoding: 100 100 44
Width: 1024
HStem: 256 102<60.3594 234.75 788.75 963.641>
LayerCount: 2
Fore
SplineSet
505 768 m 256
 511.666666667 768.666666667 519.333333333 768 528 766 c 256
 559.333333333 760 583.333333333 737.666666667 600 699 c 256
 604 689.666666667 614 654.666666667 630 594 c 256
 647.333333333 528 670 477.666666667 698 443 c 256
 744.666666667 386.333333333 819 358 921 358 c 256
 933.666666667 358 944.333333333 354.333333333 953 347 c 256
 964.333333333 338.333333333 970.666666667 326.333333333 972 311 c 0
 973.333333333 295.666666667 968.666666667 282.333333333 958 271 c 256
 953.333333333 266.333333333 948.333333333 262.666666667 943 260 c 256
 936.333333333 257.333333333 929 256 921 256 c 256
 836.333333333 256 770.666666667 236.666666667 724 198 c 256
 712 187.333333333 700.333333333 174.666666667 689 160 c 256
 673.666666667 140 660.333333333 115 649 85 c 256
 642.333333333 66.3333333333 634.333333333 39 625 3 c 0
 615.666666667 -33 608.333333333 -59.3333333333 603 -76 c 256
 591 -111.333333333 572.333333333 -134.666666667 547 -146 c 256
 539.666666667 -149.333333333 530 -152 518 -154 c 256
 512 -154.666666667 504.666666667 -154 496 -152 c 256
 464.666666667 -146 440.666666667 -123.666666667 424 -85 c 256
 420 -75.6666666667 410 -40.6666666667 394 20 c 256
 376 87.3333333333 353.333333333 138 326 172 c 256
 278.666666667 228 204.333333333 256 103 256 c 256
 90.3333333333 256 79.6666666667 259.666666667 71 267 c 256
 59.6666666667 275.666666667 53.3333333333 287.833333333 52 303.5 c 0
 50.6666666667 319.166666667 55.3333333333 332.333333333 66 343 c 256
 70.6666666667 347.666666667 75.6666666667 351.333333333 81 354 c 256
 87.6666666667 356.666666667 95 358 103 358 c 256
 187.666666667 358 253.333333333 377.666666667 300 417 c 256
 312 427.666666667 323.666666667 440.333333333 335 455 c 256
 350.333333333 475 363.666666667 499.666666667 375 529 c 256
 380.333333333 545 391 582.666666667 407 642 c 258
 420 688 l 257
 433.333333333 724.666666667 452.333333333 749 477 761 c 260
 483.666666667 763.666666667 493 766 505 768 c 256
512 639 m 257
 510.666666667 637 507.333333333 625 502 603 c 258
 482 530 l 257
 460.666666667 462.666666667 432.333333333 409.333333333 397 370 c 257
 383 355 l 258
 362.333333333 334.333333333 342 318.666666667 322 308 c 257
 322 306 l 257
 342.666666667 295.333333333 363 279.666666667 383 259 c 258
 397 245 l 257
 432.333333333 205.666666667 460.666666667 152 482 84 c 257
 502 11 l 258
 507.333333333 -11 510.666666667 -23 512 -25 c 257
 513.333333333 -23 516.666666667 -11 522 11 c 258
 542 84 l 257
 563.333333333 151.333333333 591.666666667 205 627 245 c 257
 641 259 l 258
 661.666666667 279.666666667 682 295.333333333 702 306 c 257
 702 308 l 257
 681.333333333 318.666666667 661 334.333333333 641 355 c 258
 627 370 l 257
 591.666666667 409.333333333 563.333333333 462.666666667 542 530 c 257
 522 603 l 258
 516.666666667 625 513.333333333 637 512 639 c 257
EndSplineSet
Validated: 33
EndChar

StartChar: e
Encoding: 101 101 45
Width: 1024
HStem: -153 102<440.946 582.472> 256 102<77.3447 193.125 831.988 946.655> 666 102<441.113 581.107>
LayerCount: 2
Fore
SplineSet
501 768 m 258
 519 770 540 768.333333333 564 763 c 256
 584 758.333333333 601.333333333 751.666666667 616 743 c 256
 627.333333333 737 638.666666667 729.333333333 650 720 c 256
 672.666666667 700 692 672.333333333 708 637 c 256
 716.666666667 618.333333333 728.5 585.166666667 743.5 537.5 c 0
 758.5 489.833333333 771 456 781 436 c 256
 803 396 834.666666667 371.333333333 876 362 c 256
 889.333333333 359.333333333 901 358 911 358 c 256
 932.333333333 358 947.666666667 353.333333333 957 344 c 256
 969 332.666666667 974.166666667 318.333333333 972.5 301 c 0
 970.833333333 283.666666667 962.333333333 270.666666667 947 262 c 256
 939.666666667 258 931 256 921 256 c 256
 897.666666667 256 877.333333333 253.333333333 860 248 c 256
 848.666666667 244.666666667 838.333333333 239.833333333 829 233.5 c 0
 819.666666667 227.166666667 811.333333333 219.333333333 804 210 c 0
 796.666666667 200.666666667 790.166666667 191.833333333 784.5 183.5 c 0
 778.833333333 175.166666667 773.5 164.166666667 768.5 150.5 c 0
 763.5 136.833333333 759.666666667 126 757 118 c 0
 754.333333333 110 750.5 98.3333333333 745.5 83 c 0
 740.5 67.6666666667 737 57.3333333333 735 52 c 256
 727 26.6666666667 720.166666667 6.66666666667 714.5 -8 c 0
 708.833333333 -22.6666666667 700 -39.6666666667 688 -59 c 0
 676 -78.3333333333 662.333333333 -94.6666666667 647 -108 c 256
 636.333333333 -117.333333333 625.333333333 -124.666666667 614 -130 c 256
 598.666666667 -137.333333333 584.333333333 -142.666666667 571 -146 c 256
 551 -150.666666667 529.666666667 -153.333333333 507 -154 c 257
 497 -153 l 257
 487 -153 l 258
 469.666666667 -151 454 -147.666666667 440 -143 c 256
 424 -137.666666667 409 -130.666666667 395 -122 c 256
 383 -114 371.666666667 -104 361 -92 c 0
 350.333333333 -80 341.666666667 -68.8333333333 335 -58.5 c 0
 328.333333333 -48.1666666667 321.333333333 -34.5 314 -17.5 c 0
 306.666666667 -0.5 301.333333333 13 298 23 c 0
 294.666666667 33 289.833333333 47.8333333333 283.5 67.5 c 0
 277.166666667 87.1666666667 272.666666667 101 270 109 c 256
 260 141 250.666666667 164.666666667 242 180 c 256
 230.666666667 200 217.666666667 215.833333333 203 227.5 c 0
 188.333333333 239.166666667 170.666666667 247.333333333 150 252 c 256
 136.666666667 254.666666667 124.333333333 256 113 256 c 256
 91.6666666667 256 76.3333333333 260.666666667 67 270 c 256
 55 281.333333333 49.8333333333 295.666666667 51.5 313 c 0
 53.1666666667 330.333333333 61.6666666667 343.333333333 77 352 c 256
 84.3333333333 356 93 358 103 358 c 256
 126.333333333 358 146.666666667 361 164 367 c 256
 185.333333333 373.666666667 202.833333333 384.5 216.5 399.5 c 0
 230.166666667 414.5 242 433.666666667 252 457 c 256
 259.333333333 473 268 496.333333333 278 527 c 256
 295.333333333 582.333333333 309 621.333333333 319 644 c 256
 345.666666667 700.666666667 383.666666667 737.666666667 433 755 c 256
 448.333333333 760.333333333 466 764.333333333 486 767 c 258
 501 768 l 258
757 308 m 257
 747 315.333333333 736.666666667 325.333333333 726 338 c 256
 716.666666667 348.666666667 708 360.166666667 700 372.5 c 0
 692 384.833333333 684.833333333 399 678.5 415 c 0
 672.166666667 431 667.166666667 443.833333333 663.5 453.5 c 0
 659.833333333 463.166666667 654.833333333 478.166666667 648.5 498.5 c 0
 642.166666667 518.833333333 638 532.666666667 636 540 c 256
 630.666666667 556.666666667 626.666666667 568.5 624 575.5 c 0
 621.333333333 582.5 616.666666667 592.833333333 610 606.5 c 0
 603.333333333 620.166666667 595.666666667 631 587 639 c 0
 578.333333333 647 569 653.333333333 559 658 c 256
 546.333333333 662.666666667 527.666666667 665.333333333 503 666 c 256
 496.333333333 666 488.666666667 665 480 663 c 256
 463.333333333 659.666666667 450 653 440 643 c 0
 430 633 421 619.333333333 413 602 c 256
 407 590 401.333333333 577.333333333 396 564 c 258
 379 510 l 258
 361.666666667 454.666666667 346 414 332 388 c 256
 313.333333333 353.333333333 291.666666667 326.666666667 267 308 c 257
 267 306 l 257
 291.666666667 287.333333333 313.333333333 260.666666667 332 226 c 256
 346.666666667 200 362.333333333 159.333333333 379 104 c 258
 396 51 l 258
 400.666666667 37.6666666667 406.333333333 24.6666666667 413 12 c 256
 421 -5.33333333333 430 -18.6666666667 440 -28 c 0
 450 -37.3333333333 463 -44 479 -48 c 256
 487 -50 494.666666667 -51 502 -51 c 256
 527.333333333 -51 546.333333333 -48.6666666667 559 -44 c 256
 569 -39.3333333333 578.333333333 -32.8333333333 587 -24.5 c 0
 595.666666667 -16.1666666667 603.333333333 -5.16666666667 610 8.5 c 0
 616.666666667 22.1666666667 621.333333333 32.5 624 39.5 c 0
 626.666666667 46.5 630.666666667 58.3333333333 636 75 c 256
 638 81.6666666667 642.166666667 95.1666666667 648.5 115.5 c 0
 654.833333333 135.833333333 659.833333333 150.833333333 663.5 160.5 c 0
 667.166666667 170.166666667 672.166666667 183 678.5 199 c 0
 684.833333333 215 692 229.166666667 700 241.5 c 0
 708 253.833333333 716.666666667 265.333333333 726 276 c 256
 736 288 746.333333333 298 757 306 c 257
 757 308 l 257
EndSplineSet
Validated: 33
EndChar

StartChar: f
Encoding: 102 102 46
Width: 1024
HStem: 256 102<67.4707 157.843 259 765 866.157 956.529>
VStem: 156 103<149.878 256 358 464.3> 765 103<152.684 256 358 461>
LayerCount: 2
Fore
SplineSet
156 358 m 257
 160.666666667 418.666666667 175.5 477.666666667 200.5 535 c 0
 225.5 592.333333333 258.666666667 640.333333333 300 679 c 256
 349.333333333 725 403 753 461 763 c 258
 492 767 l 257
 502 768 l 257
 546.666666667 768.666666667 588.333333333 760.666666667 627 744 c 256
 661 728.666666667 693.333333333 707 724 679 c 256
 759.333333333 646.333333333 789 606 813 558 c 256
 844.333333333 495.333333333 862.666666667 428.666666667 868 358 c 257
 906 358 l 258
 914.666666667 358 921.166666667 357.833333333 925.5 357.5 c 0
 929.833333333 357.166666667 935 356 941 354 c 0
 947 352 952.333333333 348.666666667 957 344 c 256
 967 334.666666667 972.166666667 322.5 972.5 307.5 c 0
 972.833333333 292.5 967.666666667 280 957 270 c 256
 947 260.666666667 934.333333333 256 919 256 c 258
 868 256 l 257
 863.333333333 195.333333333 848.5 136.5 823.5 79.5 c 0
 798.5 22.5 765.333333333 -25.6666666667 724 -65 c 256
 674.666666667 -111 621 -138.666666667 563 -148 c 258
 532 -153 l 257
 522 -154 l 257
 477.333333333 -154.666666667 435.666666667 -146.666666667 397 -130 c 256
 363 -114.666666667 330.666666667 -93 300 -65 c 256
 264.666666667 -32.3333333333 235 8 211 56 c 256
 179.666666667 118.666666667 161.333333333 185.333333333 156 256 c 257
 118 256 l 258
 109.333333333 256 102.833333333 256.166666667 98.5 256.5 c 0
 94.1666666667 256.833333333 89 258 83 260 c 0
 77 262 71.6666666667 265.333333333 67 270 c 256
 57 279.333333333 51.8333333333 291.666666667 51.5 307 c 0
 51.1666666667 322.333333333 56.3333333333 334.666666667 67 344 c 256
 77 353.333333333 89.6666666667 358 105 358 c 258
 156 358 l 257
765 358 m 257
 765 364.666666667 763 378.666666667 759 400 c 256
 753.666666667 431.333333333 745 460.333333333 733 487 c 256
 715 528.333333333 693.666666667 563 669 591 c 258
 660 600 l 257
 637.333333333 621.333333333 614 637.666666667 590 649 c 256
 564.666666667 660.333333333 536.333333333 666 505 666 c 257
 495 665 l 258
 459 662.333333333 424.333333333 648.666666667 391 624 c 256
 332.333333333 580 292.333333333 515.333333333 271 430 c 256
 263 397.333333333 259 373.333333333 259 358 c 257
 765 358 l 257
765 256 m 257
 259 256 l 257
 259 240.666666667 263 216.666666667 271 184 c 256
 292.333333333 98.6666666667 332.333333333 34.3333333333 391 -9 c 256
 423.666666667 -33.6666666667 458.333333333 -47.3333333333 495 -50 c 258
 505 -51 l 258
 536.333333333 -51.6666666667 564.666666667 -46.3333333333 590 -35 c 256
 614.666666667 -23.6666666667 638 -7.33333333333 660 14 c 257
 669 24 l 258
 694.333333333 51.3333333333 715.666666667 85.6666666667 733 127 c 256
 744.333333333 153.666666667 753 182.666666667 759 214 c 256
 763 235.333333333 765 249.333333333 765 256 c 257
EndSplineSet
Validated: 33
EndChar

StartChar: g
Encoding: 103 103 47
Width: 1024
HStem: -153 103<403.824 571> 256 102<59.4194 161.413 862.587 964.074> 666 101.5<346.461 676.697>
VStem: 205 102<-10.5591 201.652 511 626.685> 717 102<-6.58789 103 515 621.591>
LayerCount: 2
Fore
SplineSet
486 768 m 256
 498 768 498 768 507.5 768 c 0
 513.833333333 768 522.5 767.833333333 533.5 767.5 c 0
 544.5 767.166666667 552 767 556 767 c 258
 577 766 l 257
 626 761 l 258
 694.666666667 751.666666667 744.333333333 731.333333333 775 700 c 256
 783 692 791 681.666666667 799 669 c 256
 803.666666667 660.333333333 808 649.666666667 812 637 c 256
 816 621.666666667 818 607 818 593 c 258
 819 578 l 257
 819 528 l 257
 820 515 l 257
 823 480 l 257
 831.666666667 416 853 377.333333333 887 364 c 256
 895.666666667 360.666666667 907.666666667 358.666666667 923 358 c 256
 942.333333333 358 956.833333333 349.333333333 966.5 332 c 0
 976.166666667 314.666666667 976 297.666666667 966 281 c 0
 956 264.333333333 941.666666667 256 923 256 c 256
 915 256 908 255.666666667 902 255 c 256
 887.333333333 252.333333333 874.666666667 246.333333333 864 237 c 256
 851.333333333 225.666666667 841 206 833 178 c 256
 827 160 823 138.666666667 821 114 c 258
 820 103 l 257
 819 84 l 257
 819 35 l 257
 818 18 l 258
 818 3.33333333333 815.333333333 -12.3333333333 810 -29 c 256
 805.333333333 -41.6666666667 799.666666667 -53.6666666667 793 -65 c 256
 764.333333333 -108.333333333 708.666666667 -135.333333333 626 -146 c 257
 571 -152 l 257
 561 -153 l 257
 545 -153 l 257
 529 -154 l 257
 495 -154 l 257
 477 -153 l 257
 447 -152 l 257
 398 -146 l 257
 307.333333333 -134 248.666666667 -101.666666667 222 -49 c 256
 211.333333333 -27 206 -5 206 17 c 258
 205 36 l 257
 205 84 l 257
 204 99 l 257
 201 134 l 257
 192.333333333 198 171 237 137 251 c 256
 128.333333333 254.333333333 116.333333333 256 101 256 c 256
 82.3333333333 256 68.1666666667 263.833333333 58.5 279.5 c 0
 48.8333333333 295.166666667 47.6666666667 311.666666667 55 329 c 256
 57 333 59.6666666667 337 63 341 c 256
 73 352.333333333 85.6666666667 358 101 358 c 256
 113 358 123 359 131 361 c 256
 152.333333333 367 169 382.333333333 181 407 c 0
 193 431.666666667 200.333333333 463 203 501 c 258
 204 511 l 257
 205 530 l 258
 205 533 205 533 205 549 c 0
 205 565 205 565 205 569.5 c 0
 205 572.5 205.166666667 578.833333333 205.5 588.5 c 0
 205.833333333 598.166666667 206.333333333 605 207 609 c 0
 208 615 208 615 210 627 c 0
 211.333333333 635 213 641.333333333 215 646 c 0
 217 650.666666667 219.5 656.333333333 222.5 663 c 0
 225.5 669.666666667 228.666666667 675.666666667 232 681 c 256
 264 726.333333333 325.333333333 753.666666667 416 763 c 258
 451 766 l 257
 468 767 l 258
 477.333333333 767 483.333333333 767.333333333 486 768 c 256
475 666 m 258
 471.666666667 665.333333333 467 665 461 665 c 258
 443 664 l 258
 406.333333333 660.666666667 378.666666667 655.666666667 360 649 c 256
 340 642.333333333 326.333333333 635 319 627 c 256
 313 620.333333333 309.333333333 609.666666667 308 595 c 258
 307 541 l 257
 306 525 l 258
 306 488.333333333 301.333333333 452 292 416 c 256
 284.666666667 386.666666667 274 361.333333333 260 340 c 256
 254.666666667 332 249 324.333333333 243 317 c 256
 238.333333333 311.666666667 236 308.333333333 236 307 c 256
 236 306.333333333 240 301 248 291 c 256
 258.666666667 277.666666667 267 264 273 250 c 256
 289 214.666666667 299.333333333 172.666666667 304 124 c 258
 306 100 l 257
 306 87 l 257
 307 72 l 257
 307 31 l 258
 307 12.3333333333 310.666666667 -1.66666666667 318 -11 c 256
 325.333333333 -19.6666666667 339 -27.3333333333 359 -34 c 256
 389.666666667 -44 425.666666667 -49.3333333333 467 -50 c 258
 482 -51 l 257
 558 -51 613.333333333 -47 648 -39 c 256
 679.333333333 -31.6666666667 699.333333333 -21 708 -7 c 256
 714 1.66666666667 717 18.3333333333 717 43 c 258
 717 72 l 257
 718 89 l 257
 718 147 727.333333333 197.666666667 746 241 c 256
 754 259.666666667 763 275.333333333 773 288 c 258
 784 301 l 258
 786.666666667 303.666666667 788 305.666666667 788 307 c 0
 788 308.333333333 785.666666667 311.666666667 781 317 c 256
 775 323.666666667 769.333333333 331.333333333 764 340 c 256
 750.666666667 362 739.666666667 388 731 418 c 256
 721.666666667 456 717 511.333333333 717 584 c 256
 717 600.666666667 714 613.333333333 708 622 c 256
 700 634.666666667 681.333333333 644.666666667 652 652 c 256
 634 656 612 659.666666667 586 663 c 258
 564 665 l 257
 542 666 l 257
 475 666 l 258
EndSplineSet
Validated: 33
EndChar

StartChar: h
Encoding: 104 104 48
Width: 1024
HStem: -154 103<69.4404 118 906 954.56> 256 102<347.72 556> 666 102<67.4409 161.426 861.846 955.559>
VStem: 205 102<2.68481 209.588 406.378 513> 717 102<102 211.591 399.441 513>
LayerCount: 2
Fore
SplineSet
97 768 m 256
 112.333333333 769.333333333 132 767 156 761 c 256
 171.333333333 757.666666667 186 751.666666667 200 743 c 256
 238 721 265 687.833333333 281 643.5 c 0
 297 599.166666667 305.333333333 550.666666667 306 498 c 257
 307 482 l 257
 307 441 l 258
 307 425.666666667 309.333333333 414 314 406 c 256
 322.666666667 390.666666667 343.333333333 379 376 371 c 256
 413.333333333 362.333333333 469 358 543 358 c 257
 558 359 l 257
 563 359 l 257
 585 361 l 258
 619 364.333333333 645.666666667 369.333333333 665 376 c 256
 684.333333333 382 698 389.666666667 706 399 c 256
 713.333333333 408.333333333 717 422.333333333 717 441 c 258
 717 482 l 257
 718 498 l 257
 719.333333333 610 749.333333333 688 808 732 c 256
 834.666666667 752.666666667 867.333333333 764.333333333 906 767 c 258
 920 768 l 258
 934.666666667 768 946.666666667 763.666666667 956 755 c 256
 966.666666667 745.666666667 972.166666667 733 972.5 717 c 0
 972.833333333 701 967.333333333 688.333333333 956 679 c 256
 946.666666667 670.333333333 933 666 915 666 c 256
 908.333333333 666 901.333333333 665 894 663 c 256
 856.666666667 653 833 613.333333333 823 544 c 257
 820 513 l 257
 819 496 l 258
 819 482 819 482 819 469.5 c 0
 819 461.166666667 818.833333333 452.5 818.5 443.5 c 0
 818.166666667 434.5 817.666666667 426.166666667 817 418.5 c 0
 816.333333333 410.833333333 815 402.5 813 393.5 c 0
 811 384.5 808.333333333 376 805 368 c 256
 798.333333333 351.333333333 788.333333333 336.666666667 775 324 c 258
 762 312 l 258
 759.333333333 310 758 308.333333333 758 307 c 256
 758 306.333333333 761 303.333333333 767 298 c 256
 775.666666667 290.666666667 783.666666667 282 791 272 c 256
 809 246.666666667 818 218.333333333 818 187 c 258
 819 168 l 257
 819 121 l 257
 820 102 l 257
 821 91 l 258
 823 61 828.333333333 34.6666666667 837 12 c 256
 853 -29.3333333333 879 -50.3333333333 915 -51 c 256
 932.333333333 -51 945.666666667 -55 955 -63 c 256
 965.666666667 -72.3333333333 971.333333333 -84.8333333333 972 -100.5 c 0
 972.666666667 -116.166666667 967.666666667 -129 957 -139 c 256
 947 -148.333333333 933.333333333 -153.333333333 916 -154 c 258
 906 -153 l 258
 886 -151.666666667 869.333333333 -148.333333333 856 -143 c 256
 838 -137 823 -129.666666667 811 -121 c 256
 750.333333333 -77 719.333333333 2.33333333333 718 117 c 257
 717 132 l 257
 717 175 l 258
 717 191 714 203.333333333 708 212 c 256
 701.333333333 221.333333333 689.666666667 229.333333333 673 236 c 256
 649 245.333333333 620 251 586 253 c 258
 556 255 l 257
 541 256 l 257
 465.666666667 256 410.666666667 252 376 244 c 256
 344.666666667 236 324.333333333 224.666666667 315 210 c 256
 309.666666667 201.333333333 307 185.333333333 307 162 c 258
 307 132 l 257
 306 119 l 257
 306 103 l 257
 305 93 l 257
 302 59 l 258
 291.333333333 -33.6666666667 256.666666667 -96.6666666667 198 -130 c 256
 186 -136.666666667 174 -141.666666667 162 -145 c 256
 147.333333333 -149 132.666666667 -151.666666667 118 -153 c 258
 108 -154 l 258
 90.6666666667 -154 77 -149 67 -139 c 0
 57 -129 52 -116.333333333 52 -101 c 0
 52 -85.6666666667 57.6666666667 -73 69 -63 c 256
 78.3333333333 -55 91.6666666667 -51 109 -51 c 256
 145.666666667 -50.3333333333 171.666666667 -29.3333333333 187 12 c 256
 195 34.6666666667 200.333333333 61 203 91 c 258
 204 101 l 257
 205 121 l 257
 205 170 l 257
 206 186 l 258
 206 218 215 246.666666667 233 272 c 256
 239.666666667 281.333333333 247.666666667 290 257 298 c 256
 263 303.333333333 266 306.333333333 266 307 c 256
 266 308.333333333 264.666666667 310 262 312 c 258
 249 324 l 258
 236.333333333 336.666666667 226.333333333 351.333333333 219 368 c 256
 215.666666667 376 213 384.5 211 393.5 c 0
 209 402.5 207.666666667 410.833333333 207 418.5 c 0
 206.333333333 426.166666667 205.833333333 434.5 205.5 443.5 c 0
 205.166666667 452.5 205 461 205 469 c 0
 205 481 205 481 205 496 c 258
 204 513 l 257
 201 544 l 257
 191.666666667 612.666666667 168 652.333333333 130 663 c 256
 122.666666667 665 115.666666667 666 109 666 c 256
 90.3333333333 666 76.3333333333 670.666666667 67 680 c 256
 57 689.333333333 51.8333333333 701.166666667 51.5 715.5 c 0
 51.1666666667 729.833333333 56 742.333333333 66 753 c 256
 73.3333333333 760.333333333 83.6666666667 765.333333333 97 768 c 256
EndSplineSet
Validated: 33
EndChar

StartChar: p
Encoding: 112 112 49
Width: 1024
HStem: 647 115<389.861 634.139>
VStem: 57 58<178.678 441.373> 909 58<178.642 440.809>
LayerCount: 2
Fore
SplineSet
788 306 m 256
 805.333333333 304 819.833333333 299 831.5 291 c 0
 843.166666667 283 851.166666667 273.833333333 855.5 263.5 c 0
 859.833333333 253.166666667 862.666666667 244.833333333 864 238.5 c 0
 865.333333333 232.166666667 866 226.666666667 866 222 c 256
 866 212 853 158.333333333 827 61 c 0
 801 -36.3333333333 784.666666667 -90 778 -100 c 256
 758 -130 729 -142.333333333 691 -137 c 256
 674.333333333 -134.333333333 658.333333333 -125.333333333 643 -110 c 0
 627.666666667 -94.6666666667 620.333333333 -74 621 -48 c 256
 621 -42 633.833333333 9.66666666667 659.5 107 c 0
 685.166666667 204.333333333 701.333333333 258 708 268 c 256
 716 280.666666667 727.333333333 290.666666667 742 298 c 0
 756.666666667 305.333333333 772 308 788 306 c 256
767 532 m 256
 697 608.666666667 612 647 512 647 c 0
 412 647 327 608.666666667 257 532 c 256
 253.666666667 528 250 524.5 246 521.5 c 0
 242 518.5 238.166666667 516.166666667 234.5 514.5 c 0
 230.833333333 512.833333333 227.333333333 511.833333333 224 511.5 c 0
 220.666666667 511.166666667 217.5 511 214.5 511 c 0
 211.5 511 208.5 511.5 205.5 512.5 c 0
 202.5 513.5 200 514.5 198 515.5 c 0
 196 516.5 193.833333333 517.666666667 191.5 519 c 0
 189.166666667 520.333333333 187.333333333 521.5 186 522.5 c 0
 184.666666667 523.5 183.333333333 524.333333333 182 525 c 258
 181 527 l 257
 136.333333333 463 114.333333333 390.333333333 115 309 c 256
 115 292.333333333 118.166666667 268.166666667 124.5 236.5 c 0
 130.833333333 204.833333333 137.5 176.666666667 144.5 152 c 0
 151.5 127.333333333 160.333333333 96.3333333333 171 59 c 0
 187 3 187 3 189 -4 c 256
 191.666666667 -13.3333333333 190.333333333 -21.1666666667 185 -27.5 c 0
 179.666666667 -33.8333333333 174.333333333 -38 169 -40 c 256
 163.666666667 -41.3333333333 157 -40.5 149 -37.5 c 0
 141 -34.5 136 -28 134 -18 c 256
 133.333333333 -16.6666666667 130 -6.16666666667 124 13.5 c 0
 118 33.1666666667 111.5 54.6666666667 104.5 78 c 0
 97.5 101.333333333 90.3333333333 127 83 155 c 0
 75.6666666667 183 69.5 210.833333333 64.5 238.5 c 0
 59.5 266.166666667 57 289 57 307 c 256
 57 363.666666667 67.6666666667 419 89 473 c 0
 110.333333333 527 140.166666667 575.5 178.5 618.5 c 0
 216.833333333 661.5 265 696.166666667 323 722.5 c 0
 381 748.833333333 444 762 512 762 c 0
 580 762 643 748.833333333 701 722.5 c 0
 759 696.166666667 807.166666667 661.666666667 845.5 619 c 0
 883.833333333 576.333333333 913.666666667 527.833333333 935 473.5 c 0
 956.333333333 419.166666667 967 363.666666667 967 307 c 256
 967 288.333333333 964.5 265.333333333 959.5 238 c 0
 954.5 210.666666667 948.333333333 183 941 155 c 0
 933.666666667 127 926.5 101.333333333 919.5 78 c 0
 912.5 54.6666666667 906 33.1666666667 900 13.5 c 0
 894 -6.16666666667 890.666666667 -16.6666666667 890 -18 c 256
 888 -27.3333333333 883 -33.6666666667 875 -37 c 0
 867 -40.3333333333 860.333333333 -41.3333333333 855 -40 c 256
 849.666666667 -38 844.166666667 -33.8333333333 838.5 -27.5 c 0
 832.833333333 -21.1666666667 831.666666667 -13.3333333333 835 -4 c 256
 837 3 837 3 853 59 c 0
 863.666666667 96.3333333333 872.5 127.333333333 879.5 152 c 0
 886.5 176.666666667 893.166666667 205 899.5 237 c 0
 905.833333333 269 909 293 909 309 c 256
 909 390.333333333 887 463 843 527 c 257
 841 525 l 258
 839.666666667 524.333333333 838.5 523.5 837.5 522.5 c 0
 836.5 521.5 834.833333333 520.333333333 832.5 519 c 0
 830.166666667 517.666666667 827.833333333 516.5 825.5 515.5 c 0
 823.166666667 514.5 820.666666667 513.5 818 512.5 c 0
 815.333333333 511.5 812.5 511 809.5 511 c 0
 806.5 511 803.333333333 511.166666667 800 511.5 c 0
 796.666666667 511.833333333 793.166666667 512.833333333 789.5 514.5 c 0
 785.833333333 516.166666667 782 518.5 778 521.5 c 0
 774 524.5 770.333333333 528 767 532 c 256
236 306 m 256
 252 308 267.333333333 305.5 282 298.5 c 0
 296.666666667 291.5 308 281.333333333 316 268 c 256
 322 258 338 204.333333333 364 107 c 0
 390 9.66666666667 403 -42 403 -48 c 256
 403.666666667 -74 396.166666667 -94.6666666667 380.5 -110 c 0
 364.833333333 -125.333333333 349 -134.333333333 333 -137 c 256
 295 -142.333333333 266 -130 246 -100 c 256
 239.333333333 -90 223 -36.3333333333 197 61 c 0
 171 158.333333333 158 212 158 222 c 256
 158 226.666666667 158.666666667 232.166666667 160 238.5 c 0
 161.333333333 244.833333333 164.166666667 253.166666667 168.5 263.5 c 0
 172.833333333 273.833333333 180.833333333 283 192.5 291 c 0
 204.166666667 299 218.666666667 304 236 306 c 256
EndSplineSet
Validated: 33
EndChar

StartChar: q
Encoding: 113 113 50
Width: 1024
VStem: 623 161<-113.418 -15.5413> 834 54<-39.5144 19.7813>
LayerCount: 2
Fore
SplineSet
112 52 m 257
 110 58.6666666667 105 76 97 104 c 0
 89 132 83.5 151.833333333 80.5 163.5 c 0
 77.5 175.166666667 73.5 192.166666667 68.5 214.5 c 0
 63.5 236.833333333 60.3333333333 257 59 275 c 0
 57.6666666667 293 57.3333333333 311.333333333 58 330 c 256
 61.3333333333 418.666666667 89.8333333333 500.666666667 143.5 576 c 0
 197.166666667 651.333333333 265.333333333 703.666666667 348 733 c 256
 413.333333333 757 482.5 766 555.5 760 c 0
 628.5 754 694.666666667 732.333333333 754 695 c 257
 746.666666667 686.333333333 738.5 677.5 729.5 668.5 c 0
 720.5 659.5 710.166666667 649.333333333 698.5 638 c 0
 686.833333333 626.666666667 678.333333333 618 673 612 c 257
 667 613.333333333 650.666666667 618.833333333 624 628.5 c 0
 597.333333333 638.166666667 576 643.333333333 560 644 c 256
 506 651.333333333 452.833333333 646.166666667 400.5 628.5 c 0
 348.166666667 610.833333333 303.666666667 582.333333333 267 543 c 257
 261.666666667 532.333333333 253.166666667 524.333333333 241.5 519 c 0
 229.833333333 513.666666667 218.333333333 511.666666667 207 513 c 0
 195.666666667 514.333333333 186 517.666666667 178 523 c 257
 149.333333333 477.666666667 130.166666667 429.5 120.5 378.5 c 0
 110.833333333 327.5 113.333333333 276 128 224 c 256
 130.666666667 208 135.833333333 185.666666667 143.5 157 c 0
 151.166666667 128.333333333 156 109 158 99 c 257
 147.333333333 85.6666666667 132 70 112 52 c 257
863 717 m 256
 885 721 902.166666667 712.5 914.5 691.5 c 0
 926.833333333 670.5 925.666666667 651.666666667 911 635 c 256
 839 562.333333333 736 459.166666667 602 325.5 c 0
 468 191.833333333 384.666666667 108.333333333 352 75 c 256
 187 -90 187 -90 185 -92 c 256
 175.666666667 -99.3333333333 165 -102.833333333 153 -102.5 c 0
 141 -102.166666667 130.833333333 -98.5 122.5 -91.5 c 0
 114.166666667 -84.5 107.833333333 -75.6666666667 103.5 -65 c 0
 99.1666666667 -54.3333333333 100 -43 106 -31 c 256
 116 -16.3333333333 133.666666667 3.33333333333 159 28 c 0
 184.333333333 52.6666666667 198.333333333 66.3333333333 201 69 c 256
 259 127 259 127 485 353 c 0
 635.666666667 503.666666667 752 619.333333333 834 700 c 256
 844.666666667 710.666666667 854.333333333 716.333333333 863 717 c 256
899 548 m 257
 957 449.333333333 977.666666667 350.333333333 961 251 c 256
 952.333333333 192.333333333 929.666666667 106.666666667 893 -6 c 256
 891 -14 889.333333333 -20 888 -24 c 256
 877.333333333 -42.6666666667 864 -46.3333333333 848 -35 c 256
 834.666666667 -24.3333333333 830 -10.6666666667 834 6 c 256
 835.333333333 10.6666666667 838 15.3333333333 842 20 c 257
 845.333333333 32.6666666667 851.833333333 55.3333333333 861.5 88 c 0
 871.166666667 120.666666667 878.333333333 145.833333333 883 163.5 c 0
 887.666666667 181.166666667 892.666666667 203.5 898 230.5 c 0
 903.333333333 257.5 907 282.666666667 909 306 c 256
 909.666666667 374.666666667 892.666666667 440.666666667 858 504 c 257
 859.333333333 508 861.833333333 512.166666667 865.5 516.5 c 0
 869.166666667 520.833333333 872.5 524.333333333 875.5 527 c 0
 878.5 529.666666667 882.666666667 533.5 888 538.5 c 0
 893.333333333 543.5 897 546.666666667 899 548 c 257
181 122 m 257
 179.666666667 128 177.5 136.666666667 174.5 148 c 0
 171.5 159.333333333 169.166666667 168.5 167.5 175.5 c 0
 165.833333333 182.5 164.166666667 191 162.5 201 c 0
 160.833333333 211 159.666666667 220 159 228 c 256
 159.666666667 258.666666667 175 281.5 205 296.5 c 0
 235 311.5 262.666666667 311 288 295 c 257
 306 289 315 279.333333333 315 266 c 0
 315 252.666666667 307.666666667 241.333333333 293 232 c 257
 231 170.666666667 193.666666667 134 181 122 c 257
776 307 m 256
 804.666666667 309 828.666666667 298 848 274 c 0
 867.333333333 250 871.666666667 224.666666667 861 198 c 257
 833 82 807.333333333 -13 784 -87 c 256
 777.333333333 -107 764 -121.333333333 744 -130 c 0
 724 -138.666666667 703.166666667 -140.166666667 681.5 -134.5 c 0
 659.833333333 -128.833333333 644 -116.666666667 634 -98 c 256
 628 -88.6666666667 624.333333333 -78 623 -66 c 0
 621.666666667 -54 622 -43.6666666667 624 -35 c 0
 626 -26.3333333333 629 -14.6666666667 633 0 c 0
 637 14.6666666667 639.333333333 25.3333333333 640 32 c 256
 644.666666667 48 651.333333333 72.6666666667 660 106 c 0
 668.666666667 139.333333333 676.5 168.5 683.5 193.5 c 0
 690.5 218.5 698.333333333 242.666666667 707 266 c 257
 719.666666667 290 742.666666667 303.666666667 776 307 c 256
384 33 m 257
 385.333333333 25.6666666667 387.833333333 15.1666666667 391.5 1.5 c 0
 395.166666667 -12.1666666667 398 -24.6666666667 400 -36 c 0
 402 -47.3333333333 402.333333333 -58.3333333333 401 -69 c 256
 398.333333333 -89 388.666666667 -105.5 372 -118.5 c 0
 355.333333333 -131.5 337.333333333 -137.833333333 318 -137.5 c 0
 298.666666667 -137.166666667 280.333333333 -131 263 -119 c 256
 257 -116.333333333 253.166666667 -113.166666667 251.5 -109.5 c 0
 249.833333333 -105.833333333 250 -102.333333333 252 -99 c 0
 254 -95.6666666667 256.333333333 -92.5 259 -89.5 c 0
 261.666666667 -86.5 265 -83.1666666667 269 -79.5 c 0
 273 -75.8333333333 276.333333333 -73 279 -71 c 256
 284.333333333 -66.3333333333 299.5 -51 324.5 -25 c 0
 349.5 1 369.333333333 20.3333333333 384 33 c 257
EndSplineSet
Validated: 33
EndChar

StartChar: r
Encoding: 114 114 51
Width: 1024
HStem: 697 20G<788 870>
VStem: 154 204<139.539 473.976> 410 460<102 512>
LayerCount: 2
Fore
SplineSet
870 -102 m 257
 826 -102 l 257
 819 -102 l 257
 788 -87 l 257
 713 -49 l 257
 515 49 l 257
 434 90 l 257
 418 98 l 257
 411 102 l 257
 410 111 l 257
 410 504 l 257
 411 512 l 257
 418 516 l 257
 434 524 l 257
 515 565 l 257
 713 664 l 257
 788 701 l 257
 819 717 l 257
 826 717 l 257
 870 717 l 257
 870 -102 l 257
358 102 m 257
 288 102 l 257
 254 102 l 258
 205 102 205 102 174 142 c 256
 166 152 166 152 161 167 c 256
 154 184 154 184 154 203 c 258
 154 412 l 258
 154 453 154 453 183.5 482.5 c 0
 213 512 213 512 254 512 c 258
 358 512 l 257
 358 102 l 257
EndSplineSet
Validated: 1
EndChar

StartChar: s
Encoding: 115 115 52
Width: 1024
VStem: 154 204<275.5 474.563>
LayerCount: 2
Fore
SplineSet
863 717 m 256
 879.666666667 719 893.666666667 714.833333333 905 704.5 c 0
 916.333333333 694.166666667 922 681 922 665 c 256
 922 661 921.5 657 920.5 653 c 0
 919.5 649 918.333333333 645.833333333 917 643.5 c 0
 915.666666667 641.166666667 913.666666667 638.333333333 911 635 c 0
 908.333333333 631.666666667 906.333333333 629.333333333 905 628 c 0
 903.666666667 626.666666667 901.166666667 624 897.5 620 c 0
 893.833333333 616 891.333333333 613.333333333 890 612 c 258
 816 539 l 257
 315 38 l 257
 224 -53 l 257
 185 -92 l 258
 182.333333333 -94 178.666666667 -96 174 -98 c 256
 172 -99.3333333333 168.333333333 -100.333333333 163 -101 c 256
 143.666666667 -104.333333333 128 -99.6666666667 116 -87 c 256
 107.333333333 -77 102.666666667 -64.6666666667 102 -50 c 256
 102 -36.6666666667 110 -22 126 -6 c 258
 144 12 l 257
 265 133 l 257
 694 562 l 257
 804 672 l 258
 805.333333333 673.333333333 808.666666667 676.833333333 814 682.5 c 0
 819.333333333 688.166666667 823.5 692.5 826.5 695.5 c 0
 829.5 698.5 833.666666667 702 839 706 c 0
 844.333333333 710 848.666666667 712.666666667 852 714 c 256
 853.333333333 714.666666667 857 715.666666667 863 717 c 256
732 674 m 257
 725 665 l 257
 709 648 l 257
 648 588 l 257
 489 429 l 257
 438 378 l 257
 410 350 l 257
 410 504 l 257
 411 512 l 257
 428 521 l 257
 485 550 l 257
 648 632 l 257
 701 658 l 257
 732 674 l 257
869 520 m 257
 870 502 l 257
 870 465 l 257
 870 337 l 257
 870 -102 l 257
 826 -102 l 257
 818 -101 l 257
 782 -84 l 257
 690 -38 l 257
 524 45 l 257
 469 73 l 257
 438 88 l 257
 456 106 l 257
 485 136 l 257
 580 230 l 257
 869 520 l 257
187 128 m 257
 177 138 169.333333333 148.333333333 164 159 c 256
 157.333333333 173.666666667 154 194 154 220 c 258
 154 253 l 257
 154 412 l 258
 154 442 165 466.666666667 187 486 c 256
 207 503.333333333 229.333333333 512 254 512 c 258
 286 512 l 257
 358 512 l 257
 358 306 l 258
 358 300.666666667 354 294 346 286 c 258
 318 258 l 257
 232 172 l 257
 187 128 l 257
EndSplineSet
Validated: 33
EndChar

StartChar: t
Encoding: 116 116 53
Width: 1024
HStem: 154 102<429.355 591.864> 307 51<411.128 600.843> 410 51<366.22 656.78> 512 51<366.22 656.78> 614 103<381.502 642.075>
VStem: 461 102<-144.641 2.45203>
LayerCount: 2
Fore
SplineSet
449 717 m 257
 516 717 l 257
 567 717 l 258
 602 717 602 717 635 699 c 0
 668 681 668 681 689 652 c 256
 717 613 717 613 717 567 c 258
 717 542 l 257
 717 496 l 257
 717 406 l 258
 717 395 717 395 708 352 c 256
 696 294 696 294 663.5 244.5 c 0
 631 195 631 195 583 171 c 256
 569 164 569 164 558 161 c 256
 533 154 533 154 506 154 c 256
 493 154 493 154 476 158 c 256
 400 176 400 176 354 255 c 256
 325 303 325 303 313 364 c 256
 307 397 307 397 307 406 c 258
 307 489 l 257
 307 567 l 258
 307 634 307 634 359 679 c 256
 374 692 374 692 397 703 c 256
 414 711 414 711 449 717 c 257
380 614 m 258
 364 611 364 611 359.5 596 c 0
 355 581 355 581 366 570 c 256
 373 563 373 563 387 563 c 258
 549 563 l 257
 639 563 l 258
 658 563 658 563 664 580 c 0
 670 597 670 597 657 608 c 256
 650 614 650 614 637 614 c 258
 467 614 l 257
 411 614 l 257
 380 614 l 258
380 512 m 258
 364 509 364 509 359.5 493.5 c 0
 355 478 355 478 366 468 c 256
 373 461 373 461 387 461 c 258
 549 461 l 257
 639 461 l 258
 658 461 658 461 664 478 c 0
 670 495 670 495 657 506 c 256
 650 512 650 512 637 512 c 258
 467 512 l 257
 411 512 l 257
 380 512 l 258
380 410 m 258
 364 407 364 407 359.5 391.5 c 0
 355 376 355 376 366 366 c 256
 373 359 373 359 387 358 c 258
 549 358 l 257
 639 358 l 258
 658 358 658 358 664 375 c 0
 670 392 670 392 657 403 c 256
 650 409 650 409 637 410 c 258
 467 410 l 257
 411 410 l 257
 380 410 l 258
431 307 m 258
 415 304 415 304 411 288.5 c 0
 407 273 407 273 417 263 c 256
 424 256 424 256 438 256 c 258
 586 256 l 258
 600 256 600 256 607 263 c 256
 616 272 616 272 614 285 c 0
 612 298 612 298 601 304 c 256
 596 307 596 307 586 307 c 258
 484 307 l 257
 431 307 l 258
269 256 m 256
 302 260 302 260 323 229 c 257
 337 202 l 258
 347 185 347 185 359 171 c 256
 424 101 424 101 519 102 c 257
 538 104 l 258
 617 114 617 114 668 174 c 256
 680 189 680 189 691 208 c 258
 701 229 l 257
 717 253 717 253 742 256 c 256
 767 258 767 258 784.5 240.5 c 0
 802 223 802 223 799 199 c 256
 798 191 798 191 787 171 c 256
 776 148 776 148 766 133 c 256
 750 109 750 109 732 92 c 256
 686 44 686 44 625 22 c 256
 603 14 603 14 585 8 c 256
 584 8 584 8 579 7 c 0
 574 6 574 6 570 5 c 0
 566 4 566 4 565 4 c 256
 563 2 563 2 563 -5 c 258
 563 -101 l 258
 563 -120 563 -120 552 -134 c 256
 539 -151 539 -151 516 -153 c 0
 493 -155 493 -155 476 -139 c 256
 469 -132 469 -132 465 -124 c 256
 461 -114 461 -114 461 -101 c 258
 461 -5 l 258
 461 1 461 1 460 2.5 c 0
 459 4 459 4 442 8 c 256
 413 14 413 14 388 26 c 256
 289 71 289 71 240 165 c 256
 228 189 228 189 225 199 c 256
 222 227 222 227 241 243 c 256
 252 252 252 252 269 256 c 256
EndSplineSet
Validated: 33
EndChar

StartChar: u
Encoding: 117 117 54
Width: 1024
HStem: 410 51<372.191 492.25> 512 51<372.191 595.25> 614 103<382.112 642.747>
VStem: 461 102<-144.641 2.93652>
LayerCount: 2
Fore
SplineSet
340 282 m 257
 328.666666667 309.333333333 319.666666667 337.666666667 313 367 c 256
 309 385.666666667 307 398.666666667 307 406 c 258
 307 512 l 257
 307 567 l 258
 307 591 313.333333333 614.5 326 637.5 c 0
 338.666666667 660.5 355.333333333 678.333333333 376 691 c 256
 402 708.333333333 429 717 457 717 c 258
 493 717 l 257
 567 717 l 258
 586.333333333 717 606.166666667 712.333333333 626.5 703 c 0
 646.833333333 693.666666667 663.333333333 682 676 668 c 256
 683.333333333 659.333333333 688.666666667 652.333333333 692 647 c 256
 694.666666667 642.333333333 696 639.333333333 696 638 c 0
 696 636.666666667 693.333333333 633.333333333 688 628 c 256
 665 605 665 605 662 602 c 257
 660 604 657.833333333 605.833333333 655.5 607.5 c 0
 653.166666667 609.166666667 651.333333333 610.5 650 611.5 c 0
 648.666666667 612.5 646.666666667 613.166666667 644 613.5 c 0
 641.333333333 613.833333333 639.5 614 638.5 614 c 0
 637 614 637 614 631 614 c 0
 625 614 625 614 624 614 c 258
 589 614 l 257
 388 614 l 258
 379.333333333 614 372.666666667 612 368 608 c 256
 361.333333333 602 358.333333333 594.666666667 359 586 c 0
 359.666666667 577.333333333 364 570.666666667 372 566 c 256
 376 564 384.333333333 563 397 563 c 258
 446 563 l 257
 516 563 l 257
 623 563 l 257
 586 525 l 258
 577.333333333 516.333333333 570 512 564 512 c 258
 388 512 l 258
 379.333333333 512 372.666666667 510 368 506 c 256
 361.333333333 500 358.333333333 492.666666667 359 484 c 0
 359.666666667 475.333333333 364 468.666666667 372 464 c 256
 376 462 385 461 399 461 c 258
 453 461 l 257
 520 461 l 257
 483 423 l 258
 474.333333333 414.333333333 467.333333333 410 462 410 c 258
 388 410 l 258
 380.666666667 410 374.666666667 408 370 404 c 256
 363.333333333 399.333333333 359.666666667 393.166666667 359 385.5 c 0
 358.333333333 377.833333333 361.333333333 371 368 365 c 256
 371.333333333 362.333333333 374.666666667 360.333333333 378 359 c 256
 380 358.333333333 393.333333333 358 418 358 c 257
 416 355.333333333 409.666666667 349 399 339 c 258
 367 306 l 258
 351.666666667 291.333333333 342.666666667 283.333333333 340 282 c 257
863 717 m 256
 879.666666667 719 893.666666667 714.833333333 905 704.5 c 0
 916.333333333 694.166666667 922 681 922 665 c 256
 922 661 921.5 657 920.5 653 c 0
 919.5 649 918.333333333 645.833333333 917 643.5 c 0
 915.666666667 641.166666667 913.666666667 638.333333333 911 635 c 0
 908.333333333 631.666666667 906.333333333 629.333333333 905 628 c 0
 903.666666667 626.666666667 901.166666667 624 897.5 620 c 0
 893.833333333 616 891.333333333 613.333333333 890 612 c 258
 816 539 l 257
 315 38 l 257
 224 -53 l 257
 185 -92 l 258
 182.333333333 -94 178.666666667 -96 174 -98 c 256
 172 -99.3333333333 168.333333333 -100.333333333 163 -101 c 256
 143.666666667 -104.333333333 128 -99.6666666667 116 -87 c 256
 107.333333333 -77 102.666666667 -64.6666666667 102 -50 c 256
 102 -36.6666666667 110 -22 126 -6 c 258
 144 12 l 257
 265 133 l 257
 694 562 l 257
 804 672 l 258
 805.333333333 673.333333333 808.666666667 676.833333333 814 682.5 c 0
 819.333333333 688.166666667 823.5 692.5 826.5 695.5 c 0
 829.5 698.5 833.666666667 702 839 706 c 0
 844.333333333 710 848.666666667 712.666666667 852 714 c 256
 853.333333333 714.666666667 857 715.666666667 863 717 c 256
709 359 m 257
 709 356.333333333 707.666666667 349.666666667 705 339 c 256
 701 322.333333333 695.333333333 306.333333333 688 291 c 256
 675.333333333 261 658 234.166666667 636 210.5 c 0
 614 186.833333333 589 170.666666667 561 162 c 256
 545 156.666666667 526 154 504 154 c 257
 527 178 l 257
 571 222 l 257
 709 359 l 257
234 175 m 257
 224 191 222.333333333 207.333333333 229 224 c 0
 235.666666667 240.666666667 248 251 266 255 c 256
 272 256.333333333 278 256.666666667 284 256 c 256
 292 254.666666667 299.333333333 251.666666667 306 247 c 257
 270 210 l 257
 234 175 l 257
380 30 m 257
 382 32.6666666667 388.333333333 39.3333333333 399 50 c 258
 435 86 l 257
 451 101 l 258
 457 107 457 107 459 109 c 256
 460.333333333 109 465.333333333 108 474 106 c 256
 485.333333333 103.333333333 495.666666667 102 505 102 c 256
 552.333333333 101.333333333 594 114 630 140 c 256
 652.666666667 156 671.333333333 176 686 200 c 256
 687.333333333 202 690.833333333 208.5 696.5 219.5 c 0
 702.166666667 230.5 707.333333333 238.333333333 712 243 c 0
 716.666666667 247.666666667 723 251 731 253 c 256
 751 259.666666667 768.166666667 256.166666667 782.5 242.5 c 0
 796.833333333 228.833333333 802 212.333333333 798 193 c 256
 796.666666667 189.666666667 793.333333333 183 788 173 c 258
 772 143 l 257
 742 95 702 58.6666666667 652 34 c 256
 630.666666667 23.3333333333 608.333333333 14.6666666667 585 8 c 256
 572.333333333 5.33333333333 565.333333333 3.66666666667 564 3 c 256
 563.333333333 1.66666666667 563 -1 563 -5 c 258
 563 -101 l 258
 563 -113.666666667 559.333333333 -124.666666667 552 -134 c 256
 543.333333333 -145.333333333 531.333333333 -151.666666667 516 -153 c 0
 500.666666667 -154.333333333 487.333333333 -149.666666667 476 -139 c 256
 471.333333333 -134.333333333 467.666666667 -129.333333333 465 -124 c 256
 462.333333333 -117.333333333 461 -109.666666667 461 -101 c 258
 461 -5 l 258
 461 -1 460.666666667 1.66666666667 460 3 c 256
 459.333333333 3.66666666667 452.666666667 5.33333333333 440 8 c 256
 420 14 400 21.3333333333 380 30 c 257
EndSplineSet
Validated: 33
EndChar

StartChar: v
Encoding: 118 118 55
Width: 1024
HStem: -102 102<161.322 343.045 673.322 855.045> 512 205<442.844 534>
VStem: 154 204<-87.0448 0 51 333> 666 204<-87.0448 0 51 327>
LayerCount: 2
Fore
SplineSet
154 51 m 257
 154 228 l 257
 154 322 l 257
 155 333 l 257
 156 348 l 258
 167 469 167 469 230 561 c 256
 270 618 270 618 325 656 c 256
 367 686 367 686 420 703 c 256
 465 717 465 717 523 717 c 257
 534 716 l 258
 559 714 559 714 582 709 c 256
 667 691 667 691 733 630.5 c 0
 799 570 799 570 835 487 c 256
 867 412 867 412 869 334 c 258
 870 321 l 257
 870 239 l 257
 870 51 l 257
 666 51 l 257
 666 253 l 257
 666 314 l 257
 665 327 l 258
 660 396 660 396 625 445 c 256
 607 472 607 472 584 488 c 256
 550 512 550 512 514 512 c 256
 455 512 455 512 414 464 c 0
 373 416 373 416 362 352 c 256
 358 328 358 328 358 314 c 258
 358 51 l 257
 154 51 l 257
154 0 m 257
 358 0 l 257
 358 -50 l 258
 358 -73 358 -73 343.5 -87.5 c 0
 329 -102 329 -102 306 -102 c 258
 206 -102 l 258
 196 -102 196 -102 187 -99 c 256
 181 -97 181 -97 175 -93 c 256
 153 -78 153 -78 154 -52 c 258
 154 -35 l 257
 154 0 l 257
666 0 m 257
 870 0 l 257
 870 -50 l 258
 870 -73 870 -73 855.5 -87.5 c 0
 841 -102 841 -102 818 -102 c 258
 718 -102 l 258
 708 -102 708 -102 699 -99 c 256
 693 -97 693 -97 687 -93 c 256
 665 -78 665 -78 666 -52 c 258
 666 -35 l 257
 666 0 l 257
EndSplineSet
Validated: 33
EndChar

StartChar: w
Encoding: 119 119 56
Width: 1024
HStem: -102 102<673.322 855.045> 512 205<443.186 560.968>
VStem: 666 204<-87.0448 0 51 339.156>
LayerCount: 2
Fore
SplineSet
154 94 m 257
 154 248 l 257
 154 321 l 257
 155 334 l 258
 158 404 158 404 183 472 c 256
 216 558 216 558 281 621 c 0
 346 684 346 684 432 707 c 256
 471 717 471 717 521 717 c 257
 534 716 l 258
 605 711 605 711 666 678 c 257
 709 650 l 257
 707 646 707 646 696 636 c 258
 675 614 l 257
 599 539 l 257
 573 513 l 258
 563 503 563 503 561 503 c 256
 560 502 560 502 556.5 503 c 0
 553 504 553 504 548.5 506 c 0
 544 508 544 508 543 508 c 256
 527 512 527 512 508 512 c 256
 488 512 488 512 465 502 c 0
 442 492 442 492 427 477 c 258
 411 461 l 257
 372 415 372 415 361 345 c 258
 358 316 l 257
 358 305 l 258
 358 298 358 298 345 285 c 258
 310 250 l 257
 207 146 l 257
 174 114 l 258
 158 97 158 97 154 94 c 257
863 717 m 256
 888 720 888 720 905 704.5 c 0
 922 689 922 689 922 665 c 256
 922 659 922 659 920.5 653 c 0
 919 647 919 647 917 643.5 c 0
 915 640 915 640 911 635 c 0
 907 630 907 630 905 628 c 0
 903 626 903 626 897.5 620 c 0
 892 614 892 614 890 612 c 258
 816 539 l 257
 315 38 l 257
 224 -53 l 257
 185 -92 l 258
 181 -95 181 -95 174 -98 c 256
 171 -100 171 -100 163 -101 c 256
 134 -106 134 -106 116 -87 c 256
 103 -72 103 -72 102 -50 c 256
 102 -30 102 -30 126 -6 c 258
 144 12 l 257
 265 133 l 257
 694 562 l 257
 804 672 l 258
 806 674 806 674 814 682.5 c 0
 822 691 822 691 826.5 695.5 c 0
 831 700 831 700 839 706 c 0
 847 712 847 712 852 714 c 256
 854 715 854 715 863 717 c 256
666 51 m 257
 666 308 l 258
 666 316 666 316 678 329 c 258
 703 354 l 257
 794 444 l 257
 820 471 l 258
 831 482 831 482 836 484 c 257
 845 461 l 258
 859 420 859 420 865 380 c 258
 869 342 l 257
 869 333 l 257
 870 321 l 257
 870 241 l 257
 870 51 l 257
 666 51 l 257
248 -102 m 257
 275 -74 l 257
 326 -24 l 257
 341 -8 l 257
 350 -1 l 257
 358 0 l 257
 358 -50 l 258
 358 -60 358 -60 355 -69 c 256
 353 -75 353 -75 349 -81 c 256
 347 -84 347 -84 344 -87 c 0
 341 -90 341 -90 339 -92 c 0
 337 -94 337 -94 333.5 -95.5 c 0
 330 -97 330 -97 328 -98 c 0
 326 -99 326 -99 321 -100 c 0
 316 -101 316 -101 314.5 -101.5 c 0
 313 -102 313 -102 308 -102 c 0
 303 -102 303 -102 301.5 -102 c 0
 300 -102 300 -102 294 -102 c 0
 288 -102 288 -102 287 -102 c 258
 248 -102 l 257
666 0 m 257
 870 0 l 257
 870 -50 l 258
 870 -73 870 -73 855.5 -87.5 c 0
 841 -102 841 -102 818 -102 c 258
 718 -102 l 258
 708 -102 708 -102 699 -99 c 256
 693 -97 693 -97 687 -93 c 256
 665 -78 665 -78 666 -52 c 258
 666 -35 l 257
 666 0 l 257
EndSplineSet
Validated: 33
EndChar

StartChar: x
Encoding: 120 120 57
Width: 1024
HStem: 697 20G<52 972>
VStem: 410 204<-17.5 205>
LayerCount: 2
Fore
SplineSet
52 717 m 257
 972 717 l 257
 946 679 l 257
 889 597 l 257
 707 337 l 257
 639 240 l 257
 623 216 l 257
 615 205 l 257
 614 197 l 257
 614 -154 l 257
 561 -114 l 257
 458 -37 l 257
 424 -11 l 258
 422 -10 422 -10 419 -7.5 c 0
 416 -5 416 -5 415 -4.5 c 0
 414 -4 414 -4 412.5 -2 c 0
 411 0 411 0 410.5 2.5 c 0
 410 5 410 5 410 8 c 258
 410 197 l 258
 410 203 410 203 409 205 c 256
 409 207 409 207 401 216 c 258
 385 240 l 257
 317 337 l 257
 135 597 l 257
 78 679 l 258
 53 715 53 715 52 717 c 257
EndSplineSet
Validated: 1
EndChar

StartChar: y
Encoding: 121 121 58
Width: 1024
HStem: 697 20G<52 776>
VStem: 410 204<-2.78076 79.9413>
LayerCount: 2
Fore
SplineSet
52 717 m 257
 776 717 l 257
 698 637 698 637 553.5 492.5 c 0
 409 348 409 348 357 297 c 256
 352 294 352 294 349 294 c 0
 346 294 346 294 343 298.5 c 0
 340 303 340 303 337.5 307.5 c 0
 335 312 335 312 331.5 317.5 c 0
 328 323 328 323 326 326 c 256
 301 361 301 361 202.5 500.5 c 0
 104 640 104 640 52 717 c 257
863 717 m 256
 896 723 896 723 914.5 691.5 c 0
 933 660 933 660 911 635 c 256
 813 535 813 535 628 350.5 c 0
 443 166 443 166 398 121 c 256
 389 112 389 112 308 31 c 0
 227 -50 227 -50 185 -92 c 256
 161 -112 161 -112 130 -97 c 0
 99 -82 99 -82 102 -50 c 256
 103 -35 103 -35 112 -21.5 c 0
 121 -8 121 -8 138 6 c 0
 155 20 155 20 160 28 c 256
 223 91 223 91 463 331 c 0
 703 571 703 571 834 700 c 256
 850 716 850 716 863 717 c 256
751 401 m 257
 725 362 725 362 674.5 290 c 0
 624 218 624 218 617 209 c 256
 613 202 613 202 613.5 154 c 0
 614 106 614 106 614 98 c 258
 614 -154 l 257
 576 -125 576 -125 506.5 -73.5 c 0
 437 -22 437 -22 414 -3 c 256
 411 4 411 4 410 13 c 0
 409 22 409 22 409.5 27.5 c 0
 410 33 410 33 410.5 45 c 0
 411 57 411 57 411 60 c 256
 477 127 477 127 599.5 249.5 c 0
 722 372 722 372 751 401 c 257
EndSplineSet
Validated: 33
EndChar

StartChar: X
Encoding: 88 88 59
Width: 1164
Flags: HW
LayerCount: 2
Fore
SplineSet
601 213 m 257
 598.333007812 211.666992188 589 206.333007812 573 197 c 258
 559 188 l 257
 542 177 l 257
 525 167 l 257
 487 142 l 257
 468 131 l 257
 431 108 l 257
 391 83 l 257
 364 66 l 257
 346 55 l 258
 343 53 343 53 337 49 c 0
 333 46.3330078125 330.166992188 44.5 328.5 43.5 c 0
 326.833007812 42.5 324.333007812 41.1669921875 321 39.5 c 0
 317.666992188 37.8330078125 314.833007812 36.6669921875 312.5 36 c 0
 310.166992188 35.3330078125 307.333007812 34.6669921875 304 34 c 0
 300.666992188 33.3330078125 297 33 293 33 c 256
 278.333007812 33 266.166992188 38 256.5 48 c 0
 246.833007812 58 242 70.3330078125 242 85 c 258
 242 468 l 257
 242 509 l 258
 242 510 242 510 242 517 c 0
 242 524 242 524 242 525.5 c 0
 242 526.5 242.166992188 529 242.5 533 c 0
 242.833007812 537 243.166992188 539.666992188 243.5 541 c 0
 243.833007812 542.333007812 244.333007812 544.5 245 547.5 c 0
 245.666992188 550.5 246.666992188 552.833007812 248 554.5 c 0
 249.333007812 556.166992188 250.666992188 558.166992188 252 560.5 c 0
 253.333007812 562.833007812 255 564.833007812 257 566.5 c 0
 259 568.166992188 261.333007812 570 264 572 c 256
 268 574.666992188 272.333007812 577 277 579 c 256
 282.333007812 581 289 582 297 582 c 256
 300.333007812 582 303.666992188 581.666992188 307 581 c 0
 310.333007812 580.333007812 314 578.833007812 318 576.5 c 0
 322 574.166992188 324.833007812 572.5 326.5 571.5 c 0
 328.166992188 570.5 331.5 568.333007812 336.5 565 c 0
 341.5 561.666992188 344.666992188 559.666992188 346 559 c 258
 364 549 l 257
 392 530 l 257
 430 508 l 257
 467 484 l 257
 480 476 l 257
 525 447 l 257
 543 437 l 257
 559 426 l 257
 601 401 l 257
 601 529 l 258
 601 545 606.166992188 557.833007812 616.5 567.5 c 0
 626.833007812 577.166992188 639.666992188 582 655 582 c 256
 662.333007812 582 669.333007812 580.333007812 676 577 c 0
 682.666992188 573.666992188 690 569.166992188 698 563.5 c 0
 706 557.833007812 712.333007812 554 717 552 c 258
 742 536 l 257
 760 525 l 257
 772 517 l 257
 787 509 l 257
 825 484 l 257
 838 476 l 257
 883 447 l 257
 905 435 l 257
 921 424 l 257
 932 418 l 257
 952 404 l 257
 975 391 l 257
 993 379 l 257
 1006 371 l 257
 1028 357 l 257
 1039 349 l 258
 1052.33300781 338.333007812 1059.33300781 323.666992188 1060 305 c 256
 1060 289 1053.33300781 275.666992188 1040 265 c 258
 1028 257 l 257
 1011 247 l 257
 993 236 l 257
 975 223 l 257
 952 210 l 257
 932 197 l 257
 921 190 l 257
 904 179 l 257
 884 168 l 257
 860 152 l 257
 825 130 l 257
 788 106 l 257
 772 97 l 257
 760 89 l 257
 742 79 l 257
 717 62 l 258
 712.333007812 60 705.833007812 56 697.5 50 c 0
 689.166992188 44 681.5 39.6669921875 674.5 37 c 0
 667.5 34.3330078125 659.666992188 33 651 33 c 256
 636.333007812 33 624.333007812 38 615 48 c 0
 605.666992188 58 601 70.3330078125 601 85 c 258
 601 213 l 257
EndSplineSet
Validated: 1
EndChar

StartChar: uni0080
Encoding: 128 128 60
Width: 1024
HStem: 697 20G<594.049 768>
LayerCount: 2
Fore
SplineSet
768 717 m 257
 358 307 l 257
 768 -102 l 257
 614 -102 l 257
 205 307 l 257
 614 717 l 257
 768 717 l 257
EndSplineSet
Validated: 1
EndChar

StartChar: uni0081
Encoding: 129 129 61
Width: 1024
LayerCount: 2
Fore
SplineSet
102 51 m 257
 102 205 l 257
 512 614 l 257
 922 205 l 257
 922 51 l 257
 512 461 l 257
 102 51 l 257
EndSplineSet
Validated: 1
EndChar

StartChar: uni0082
Encoding: 130 130 62
Width: 1024
HStem: 697 20G<256 429.951>
LayerCount: 2
Fore
SplineSet
256 717 m 257
 410 717 l 257
 819 307 l 257
 410 -102 l 257
 256 -102 l 257
 666 307 l 257
 256 717 l 257
EndSplineSet
Validated: 1
EndChar

StartChar: uni0083
Encoding: 131 131 63
Width: 1024
LayerCount: 2
Fore
SplineSet
102 563 m 257
 512 154 l 257
 922 563 l 257
 922 410 l 257
 512 0 l 257
 102 410 l 257
 102 563 l 257
EndSplineSet
Validated: 1
EndChar

StartChar: uni0084
Encoding: 132 132 64
Width: 1024
HStem: 697 20G<478 537>
LayerCount: 2
Fore
SplineSet
492 717 m 257
 525 717 l 257
 537 716 l 257
 546 716 l 257
 582 712 582 712 610 705 c 256
 722 677 722 677 802 597 c 0
 882 517 882 517 909 406 c 256
 916 377 916 377 921 341 c 257
 921 332 l 257
 922 322 l 257
 923 237 923 237 896 164 c 256
 865 81 865 81 801.5 17.5 c 0
 738 -46 738 -46 655 -77 c 256
 582 -104 582 -104 498 -102 c 257
 486 -101 l 258
 436 -99 436 -99 384 -82 c 256
 297 -53 297 -53 232 7 c 256
 131 101 131 101 109 239 c 258
 103 274 l 257
 103 283 l 257
 102 293 l 257
 102 319 l 257
 103 332 l 257
 103 341 l 257
 110 416 110 416 138 476 c 256
 199 609 199 609 328 673 c 256
 353 685 353 685 370 691 c 256
 412 706 412 706 452 713 c 258
 478 716 l 257
 492 717 l 257
EndSplineSet
Validated: 33
EndChar

StartChar: uni0085
Encoding: 133 133 65
Width: 1024
LayerCount: 2
Fore
SplineSet
909 406 m 256
 929.666666667 325.333333333 925.333333333 244.666666667 896 164 c 256
 875.333333333 108.666666667 843.833333333 59.8333333333 801.5 17.5 c 0
 759.166666667 -24.8333333333 710.333333333 -56.3333333333 655 -77 c 256
 564.333333333 -110.333333333 474 -112 384 -82 c 256
 326 -62.6666666667 275.333333333 -33 232 7 c 256
 188 47.6666666667 155 95.5 133 150.5 c 0
 111 205.5 100.666666667 261 102 317 c 0
 103.333333333 373 115.333333333 426 138 476 c 256
 164.666666667 532.666666667 200.5 580.166666667 245.5 618.5 c 0
 290.5 656.833333333 338.666666667 683.5 390 698.5 c 0
 441.333333333 713.5 494.666666667 718.5 550 713.5 c 0
 605.333333333 708.5 656.666666667 693.833333333 704 669.5 c 0
 751.333333333 645.166666667 793.5 610.166666667 830.5 564.5 c 0
 867.5 518.833333333 893.666666667 466 909 406 c 256
422 601 m 256
 381.333333333 588.333333333 344.666666667 568.333333333 312 541 c 0
 279.333333333 513.666666667 254 480.666666667 236 442 c 256
 204.666666667 377.333333333 197 309.5 213 238.5 c 0
 229 167.5 265.666666667 109.666666667 323 65 c 256
 351 43.6666666667 381.666666667 27 415 15 c 256
 437 8.33333333333 459.666666667 3.83333333333 483 1.5 c 0
 506.333333333 -0.833333333333 533 0.166666666667 563 4.5 c 0
 593 8.83333333333 621.666666667 18 649 32 c 256
 682.333333333 49.3333333333 712.333333333 72 739 100 c 256
 794.333333333 160.666666667 820.833333333 232.666666667 818.5 316 c 0
 816.166666667 399.333333333 786 469.333333333 728 526 c 256
 694 559.333333333 654 583.666666667 608 599 c 256
 546 619.666666667 484 620.333333333 422 601 c 256
EndSplineSet
Validated: 33
EndChar

StartChar: uni0086
Encoding: 134 134 66
Width: 1024
HStem: -102 819<102 922>
VStem: 102 820<-102 717>
LayerCount: 2
Fore
SplineSet
102 717 m 257
 922 717 l 257
 922 -102 l 257
 102 -102 l 257
 102 717 l 257
EndSplineSet
Validated: 1
EndChar

StartChar: uni0087
Encoding: 135 135 67
Width: 1024
HStem: -102 102<205 819> 614 103<205 819>
VStem: 102 103<0 614> 819 103<0 614>
LayerCount: 2
Fore
SplineSet
102 717 m 257
 922 717 l 257
 922 -102 l 257
 102 -102 l 257
 102 717 l 257
819 614 m 257
 205 614 l 257
 205 0 l 257
 819 0 l 257
 819 614 l 257
EndSplineSet
Validated: 1
EndChar

StartChar: uni0088
Encoding: 136 136 68
Width: 1024
HStem: 696 20G<488.667 540.667>
LayerCount: 2
Fore
SplineSet
511 716 m 257
 570.333333333 612.666666667 724.333333333 340 973 -102 c 257
 51 -102 l 257
 106.333333333 -4 185.666666667 136.833333333 289 320.5 c 0
 392.333333333 504.166666667 466.333333333 636 511 716 c 257
EndSplineSet
Validated: 1
EndChar

StartChar: uni0089
Encoding: 137 137 69
Width: 1024
HStem: -102 102<230 794> 696 20G<488.667 540.667>
LayerCount: 2
Fore
SplineSet
511 716 m 257
 570.333333333 612.666666667 724.333333333 340 973 -102 c 257
 51 -102 l 257
 106.333333333 -4 185.666666667 136.833333333 289 320.5 c 0
 392.333333333 504.166666667 466.333333333 636 511 716 c 257
513 511 m 257
 507.666666667 505 413.333333333 334.666666667 230 0 c 257
 794 0 l 257
 760.666666667 61.3333333333 712.333333333 149.333333333 649 264 c 0
 585.666666667 378.666666667 540.333333333 461 513 511 c 257
EndSplineSet
Validated: 1
EndChar

StartChar: uni0090
Encoding: 144 144 70
Width: 1024
HStem: -102 102<478.533 554.101> 614 103<373.471 650.529>
VStem: 205 256<12.9865 246.771> 256 102<358 599.045> 563 256<8.56335 243.044> 666 102<358 599.045>
LayerCount: 2
Fore
SplineSet
256 358 m 257xd0
 256 567 l 258
 256 595 256 595 268.5 624 c 0
 281 653 281 653 301 673 c 256
 346 717 346 717 406 717 c 258
 618 717 l 258
 677 717 677 717 723 673 c 256
 743 654 743 654 755.5 624.5 c 0
 768 595 768 595 768 567 c 258
 768 358 l 257xd4
 790 358 790 358 804.5 344 c 0
 819 330 819 330 819 308 c 258
 819 163 l 257
 819 -51 l 258
 819 -74 819 -74 804.5 -88 c 0
 790 -102 790 -102 767 -102 c 258
 335 -102 l 257
 257 -102 l 258
 234 -102 234 -102 219.5 -87.5 c 0
 205 -73 205 -73 205 -50 c 258
 205 307 l 258xe8
 205 329 205 329 219.5 343.5 c 0
 234 358 234 358 256 358 c 257xd0
666 358 m 257
 666 562 l 258
 666 585 666 585 651 599.5 c 0
 636 614 636 614 613 614 c 258
 411 614 l 258
 388 614 388 614 373 599.5 c 0
 358 585 358 585 358 562 c 258
 358 358 l 257
 666 358 l 257
506 256 m 256
 486 252 486 252 473.5 238 c 0
 461 224 461 224 461 204 c 258
 461 52 l 258
 461 28 461 28 478 12.5 c 0
 495 -3 495 -3 518 0 c 256
 538 3 538 3 550.5 17.5 c 0
 563 32 563 32 563 52 c 258
 563 204 l 258xe8
 563 229 563 229 546.5 243.5 c 0
 530 258 530 258 506 256 c 256
EndSplineSet
Validated: 33
EndChar

StartChar: uni0091
Encoding: 145 145 71
Width: 1024
HStem: -102 460<219.955 256 358 461 563 804.045> -102 102<478.533 554.101> 614 103<373.986 650.014>
VStem: 205 256<12.9865 246.771> 256 102<358 598.529> 563 256<8.56335 243.044> 666 102<461 598.529>
LayerCount: 2
Fore
SplineSet
256 358 m 257xa8
 256 510 l 257
 256 568 l 258xa8
 256 626 256 626 300 672 c 256
 319 692 319 692 348.5 704.5 c 0
 378 717 378 717 406 717 c 258
 461 717 l 257xb0
 618 717 l 258
 646 717 646 717 676 704 c 0
 706 691 706 691 725 671 c 256
 752 642 752 642 761 609 c 256
 768 585 768 585 768 537 c 258
 768 461 l 257
 666 461 l 257
 666 561 l 258
 666 584 666 584 650.5 599 c 0
 635 614 635 614 612 614 c 258
 412 614 l 258
 389 614 389 614 373.5 599 c 0
 358 584 358 584 358 561 c 258
 358 358 l 257
 714 358 l 257
 752 358 l 257
 768 358 l 258xaa
 795 358 795 358 810 337 c 256
 814 331 814 331 816 325 c 256
 819 317 819 317 819 306 c 258
 819 -51 l 258
 819 -74 819 -74 804.5 -88 c 0
 790 -102 790 -102 767 -102 c 258xa4
 335 -102 l 257
 257 -102 l 258
 234 -102 234 -102 219.5 -87.5 c 0
 205 -73 205 -73 205 -50 c 258
 205 307 l 258x74
 205 329 205 329 219.5 343.5 c 0
 234 358 234 358 256 358 c 257xa8
506 256 m 256
 486 252 486 252 473.5 238 c 0
 461 224 461 224 461 204 c 258
 461 52 l 258
 461 28 461 28 478 12.5 c 0
 495 -3 495 -3 518 0 c 256
 538 3 538 3 550.5 17.5 c 0
 563 32 563 32 563 52 c 258
 563 204 l 258x74
 563 229 563 229 546.5 243.5 c 0
 530 258 530 258 506 256 c 256
EndSplineSet
Validated: 33
EndChar

StartChar: uni0092
Encoding: 146 146 72
Width: 1024
HStem: 117 103<505.57 590.344> 394 104<431.94 518.949>
VStem: 106 102<82.7953 169.433> 816 102<444.567 531.205>
LayerCount: 2
Fore
SplineSet
459 543 m 257
 461 545.666666667 468.666666667 553.666666667 482 567 c 258
 524 609 l 257
 570 655 l 258
 586 671 596.666666667 681 602 685 c 256
 625.333333333 702.333333333 652.333333333 712 683 714 c 258
 693 715 l 257
 725.666666667 714.333333333 754.666666667 705 780 687 c 258
 791 679 l 257
 797 675 l 257
 836 636 l 258
 868.666666667 603.333333333 887.666666667 582.666666667 893 574 c 256
 906.333333333 554 914.666666667 532.166666667 918 508.5 c 0
 921.333333333 484.833333333 918.666666667 461.333333333 910 438 c 258
 904 422 l 258
 898.666666667 411.333333333 894 403 890 397 c 256
 886 391.666666667 876.333333333 381.666666667 861 367 c 258
 818 324 l 257
 694 200 l 258
 662.666666667 168.666666667 644.333333333 150.666666667 639 146 c 256
 611.666666667 126 581.666666667 116.333333333 549 117 c 256
 520.333333333 117.666666667 494.333333333 124.666666667 471 138 c 256
 464.333333333 142 455.666666667 148 445 156 c 258
 407 195 l 257
 378 223 l 258
 372 229 369 232.666666667 369 234 c 256
 369 235.333333333 370.333333333 237.666666667 373 241 c 258
 386 254 l 257
 420 288 l 258
 430.666666667 298.666666667 437.333333333 305 440 307 c 257
 498 250 l 258
 499 249 499 249 503.5 244.5 c 0
 508 240 508 240 509.5 238.5 c 0
 511 237 511 237 515 233 c 0
 517.666666667 230.333333333 519.666666667 228.666666667 521 228 c 0
 522.333333333 227.333333333 524.333333333 226.166666667 527 224.5 c 0
 529.666666667 222.833333333 532.166666667 221.833333333 534.5 221.5 c 0
 536.833333333 221.166666667 539.5 220.833333333 542.5 220.5 c 0
 545.5 220.166666667 548.333333333 220 551 220 c 256
 557 220 562.833333333 221.333333333 568.5 224 c 0
 574.166666667 226.666666667 578.333333333 229.333333333 581 232 c 0
 585 236 585 236 594 245 c 258
 622 272 l 257
 768 419 l 257
 791 441 l 258
 801 451 806.666666667 457.333333333 808 460 c 256
 814 468 816.666666667 477.666666667 816 489 c 256
 816 497.666666667 814.333333333 504.833333333 811 510.5 c 0
 807.666666667 516.166666667 802 523 794 531 c 258
 776 549 l 257
 740 585 l 258
 728 597 720.333333333 604 717 606 c 256
 699.666666667 614.666666667 682.666666667 613.666666667 666 603 c 256
 663.333333333 601.666666667 657.666666667 597 649 589 c 258
 607 547 l 258
 588 528 588 528 584 524 c 257
 578 529.333333333 573 533.333333333 569 536 c 256
 566.333333333 538 561.666666667 540.333333333 555 543 c 256
 523 556.333333333 494 558 468 548 c 257
 459 543 l 257
565 72 m 257
 563 69.3333333333 555.333333333 61 542 47 c 258
 500 5 l 257
 454 -41 l 258
 438 -57 427.333333333 -67 422 -71 c 256
 398.666666667 -88.3333333333 371.666666667 -97.6666666667 341 -99 c 258
 331 -100 l 257
 298.333333333 -99.3333333333 269.333333333 -90.3333333333 244 -73 c 258
 233 -65 l 257
 227 -60 l 257
 188 -22 l 258
 155.333333333 10.6666666667 136.333333333 31.3333333333 131 40 c 256
 117.666666667 60 109.333333333 81.8333333333 106 105.5 c 0
 102.666666667 129.166666667 105.333333333 152.666666667 114 176 c 258
 120 193 l 258
 125.333333333 203.666666667 130 211.666666667 134 217 c 256
 138 222.333333333 147.666666667 232.666666667 163 248 c 258
 206 291 l 257
 330 415 l 258
 361.333333333 446.333333333 379.666666667 464 385 468 c 256
 412.333333333 488 442.333333333 498 475 498 c 256
 503.666666667 497.333333333 529.666666667 490 553 476 c 256
 559.666666667 472 568.333333333 466.333333333 579 459 c 258
 617 420 l 257
 646 391 l 258
 652 385 655 381.333333333 655 380 c 256
 655 378.666666667 653.666666667 376.666666667 651 374 c 258
 638 360 l 257
 604 327 l 258
 588 311 588 311 584 307 c 257
 526 365 l 258
 525 366 525 366 520.5 370.5 c 0
 516 375 516 375 514.5 376.5 c 0
 513.5 377.5 511.666666667 379.166666667 509 381.5 c 0
 506.333333333 383.833333333 504.333333333 385.333333333 503 386 c 0
 501.666666667 386.666666667 499.666666667 387.833333333 497 389.5 c 0
 494.333333333 391.166666667 491.833333333 392.166666667 489.5 392.5 c 0
 487.166666667 392.833333333 484.5 393.166666667 481.5 393.5 c 0
 478.5 393.833333333 475.666666667 394 473 394 c 256
 467 394 461.166666667 392.666666667 455.5 390 c 0
 449.833333333 387.333333333 445.666666667 384.833333333 443 382.5 c 0
 440.333333333 380.166666667 436 376 430 370 c 258
 402 342 l 257
 256 196 l 257
 233 173 l 258
 223 163 217.333333333 157 216 155 c 256
 210 147 207.333333333 137 208 125 c 256
 208 116.333333333 209.666666667 109.166666667 213 103.5 c 0
 216.333333333 97.8333333333 222 91 230 83 c 258
 248 66 l 257
 284 30 l 258
 296 18 303.666666667 10.6666666667 307 8 c 256
 324.333333333 -0.666666666667 341.333333333 0.333333333333 358 11 c 256
 360.666666667 12.3333333333 366.333333333 17.3333333333 375 26 c 258
 417 68 l 258
 429.666666667 80.6666666667 437.333333333 88 440 90 c 257
 446 84.6666666667 451 81 455 79 c 256
 457.666666667 77 462.333333333 74.6666666667 469 72 c 256
 501 58.6666666667 530 57 556 67 c 257
 565 72 l 257
EndSplineSet
Validated: 33
EndChar

StartChar: uni0093
Encoding: 147 147 73
Width: 1024
HStem: -154 154<571.96 656.152> 154 102<838.442 964.045> 358 103<70.4419 195.285> 614 154<367.525 452.392>
VStem: 358 103<623.937 731.775> 563 103<-144.395 -36.2253>
LayerCount: 2
Fore
SplineSet
402 768 m 256
 414 769.333333333 425.5 766.833333333 436.5 760.5 c 0
 447.5 754.166666667 455 744.666666667 459 732 c 256
 460.333333333 727.333333333 461 713.666666667 461 691 c 256
 461 689 461 689 461 680 c 0
 461 671 461 671 461 668 c 0
 461 666 460.666666667 662.5 460 657.5 c 0
 459.333333333 652.5 458.5 648.833333333 457.5 646.5 c 0
 456.5 644.166666667 455 641.166666667 453 637.5 c 0
 451 633.833333333 448 630.666666667 444 628 c 256
 440.666666667 624.666666667 437 622 433 620 c 256
 428.333333333 618 423 616 417 614 c 256
 405 612.666666667 393.666666667 615.333333333 383 622 c 0
 372.333333333 628.666666667 365 637.666666667 361 649 c 256
 359 654.333333333 358 667 358 687 c 256
 358 690 358 690 358 699 c 0
 358 708 358 708 358 711.5 c 0
 358 713.833333333 358.166666667 717.333333333 358.5 722 c 0
 358.833333333 726.666666667 359.5 730.5 360.5 733.5 c 0
 361.5 736.5 363.333333333 740 366 744 c 0
 368.666666667 748 371.333333333 751.333333333 374 754 c 256
 377.333333333 757.333333333 381 760 385 762 c 256
 389 764.666666667 394.666666667 766.666666667 402 768 c 256
144 716 m 256
 153.333333333 718 162.166666667 717.166666667 170.5 713.5 c 0
 178.833333333 709.833333333 184.333333333 706.666666667 187 704 c 0
 189.666666667 701.333333333 196.333333333 695 207 685 c 258
 280 612 l 258
 281 611 281 611 285 607 c 0
 289 603 289 603 290 602 c 0
 291 601 291 601 294.5 597.5 c 0
 296.833333333 595.166666667 298.166666667 593.5 298.5 592.5 c 0
 298.833333333 591.5 299.666666667 590 301 588 c 0
 302.333333333 586 303.333333333 584.166666667 304 582.5 c 0
 304.666666667 580.833333333 305.333333333 578.666666667 306 576 c 0
 306.666666667 573.333333333 307 570.833333333 307 568.5 c 0
 307 565 307 565 307 561 c 256
 307 546.333333333 301.833333333 534.5 291.5 525.5 c 0
 281.166666667 516.5 269 512 255 512 c 256
 251.666666667 512 248.666666667 512.166666667 246 512.5 c 0
 243.333333333 512.833333333 240.5 513.666666667 237.5 515 c 0
 234.5 516.333333333 232.166666667 517.333333333 230.5 518 c 0
 228.833333333 518.666666667 226.5 520.333333333 223.5 523 c 0
 220.5 525.666666667 218.666666667 527.333333333 218 528 c 0
 217.333333333 528.666666667 215.333333333 530.833333333 212 534.5 c 0
 208.666666667 538.166666667 206.666666667 540.333333333 206 541 c 258
 135 611 l 258
 117 629 107 641.333333333 105 648 c 256
 103 652.666666667 102 659.333333333 102 668 c 256
 102 680 106 690.5 114 699.5 c 0
 122 708.5 132 714 144 716 c 256
403 488 m 257
 544 629 l 258
 577.333333333 662.333333333 596.666666667 681 602 685 c 256
 620.666666667 697.666666667 642 706.666666667 666 712 c 256
 707.333333333 720 745.333333333 711.666666667 780 687 c 256
 788 681.666666667 808 663.333333333 840 632 c 256
 870 602 887.666666667 582.666666667 893 574 c 256
 908.333333333 551.333333333 917 526 919 498 c 258
 920 487 l 257
 919 478 l 257
 916 460 l 258
 911.333333333 435.333333333 902.666666667 414.333333333 890 397 c 256
 886 391.666666667 871.333333333 376.333333333 846 351 c 258
 776 282 l 257
 722 227 l 258
 704.666666667 209.666666667 694.666666667 200.333333333 692 199 c 257
 646 245 l 257
 621 271 l 257
 767 418 l 257
 792 442 l 258
 801.333333333 451.333333333 806.666666667 457.333333333 808 460 c 256
 813.333333333 468 816 477 816 487 c 256
 816 493.666666667 814.666666667 500.166666667 812 506.5 c 0
 809.333333333 512.833333333 807 517.166666667 805 519.5 c 0
 803 521.833333333 798.333333333 527 791 535 c 258
 763 562 l 257
 737 588 l 258
 731 594 726.666666667 598.166666667 724 600.5 c 0
 721.333333333 602.833333333 717.5 605.166666667 712.5 607.5 c 0
 707.5 609.833333333 701.333333333 611 694 611 c 256
 686.666666667 611.666666667 680 610.5 674 607.5 c 0
 668 604.5 663.5 601.833333333 660.5 599.5 c 0
 657.5 597.166666667 652.333333333 592.333333333 645 585 c 258
 622 561 l 257
 525 465 l 257
 495 434 l 258
 485 424 478.333333333 418 475 416 c 257
 429 462 l 257
 403 488 l 257
95 461 m 257
 128 461 l 258
 131 461 131 461 138 461 c 0
 145 461 145 461 148.5 461 c 0
 150.833333333 461 153.833333333 460.833333333 157.5 460.5 c 0
 161.166666667 460.166666667 164.166666667 459.666666667 166.5 459 c 0
 168.833333333 458.333333333 171.5 457.5 174.5 456.5 c 0
 177.5 455.5 180.333333333 454 183 452 c 0
 185.666666667 450 188.333333333 447.333333333 191 444 c 256
 201 433.333333333 205.5 420.5 204.5 405.5 c 0
 203.5 390.5 197 378.666666667 185 370 c 256
 176.333333333 362.666666667 165.666666667 358.666666667 153 358 c 258
 116 358 l 258
 94.6666666667 358 79.3333333333 362 70 370 c 256
 59.3333333333 379.333333333 53.1666666667 391.166666667 51.5 405.5 c 0
 49.8333333333 419.833333333 53.6666666667 432.333333333 63 443 c 256
 71.6666666667 452.333333333 82.3333333333 458.333333333 95 461 c 257
331 416 m 257
 368 380 l 257
 403 343 l 257
 257 197 l 257
 232 172 l 258
 222.666666667 162.666666667 217.333333333 157 216 155 c 256
 210.666666667 147 208 137.666666667 208 127 c 256
 208 120.333333333 209.333333333 113.833333333 212 107.5 c 0
 214.666666667 101.166666667 217 96.8333333333 219 94.5 c 0
 221 92.1666666667 225.666666667 87.3333333333 233 80 c 258
 261 52 l 257
 287 27 l 258
 296 18 296 18 300 14 c 0
 302.666666667 11.3333333333 306.5 8.83333333333 311.5 6.5 c 0
 316.5 4.16666666667 322.666666667 3 330 3 c 256
 337.333333333 2.33333333333 344 3.5 350 6.5 c 0
 356 9.5 360.5 12.1666666667 363.5 14.5 c 0
 366.5 16.8333333333 371.666666667 22 379 30 c 258
 402 53 l 257
 499 150 l 257
 529 180 l 258
 539 190 545.666666667 196.333333333 549 199 c 257
 595 153 l 257
 621 126 l 257
 481 -13 l 258
 447 -47 427.333333333 -66.3333333333 422 -71 c 256
 409.333333333 -80.3333333333 393.666666667 -87.6666666667 375 -93 c 256
 353.666666667 -99.6666666667 331 -101.166666667 307 -97.5 c 0
 283 -93.8333333333 262 -85.6666666667 244 -73 c 258
 233 -65 l 257
 227 -60 l 257
 186 -19 l 258
 154.666666667 12.3333333333 136.333333333 32 131 40 c 256
 105 78 98 119.666666667 110 165 c 256
 115.333333333 185 123.333333333 202.333333333 134 217 c 256
 138 222.333333333 156.333333333 241.333333333 189 274 c 258
 331 416 l 257
863 256 m 257
 896 256 l 258
 899 256 899 256 906 256 c 0
 913 256 913 256 916.5 256 c 0
 918.833333333 256 921.833333333 255.833333333 925.5 255.5 c 0
 929.166666667 255.166666667 932.166666667 254.666666667 934.5 254 c 0
 936.833333333 253.333333333 939.5 252.5 942.5 251.5 c 0
 945.5 250.5 948.333333333 249 951 247 c 0
 953.666666667 245 956.333333333 242.666666667 959 240 c 256
 969 229.333333333 973.5 216.333333333 972.5 201 c 0
 971.5 185.666666667 965 173.666666667 953 165 c 256
 944.333333333 157.666666667 933.666666667 154 921 154 c 258
 884 154 l 258
 862.666666667 154 847.333333333 157.666666667 838 165 c 256
 827.333333333 174.333333333 821.166666667 186.166666667 819.5 200.5 c 0
 817.833333333 214.833333333 821.666666667 227.666666667 831 239 c 256
 839.666666667 247.666666667 850.333333333 253.333333333 863 256 c 257
759 101 m 256
 768.333333333 103 777.166666667 102.166666667 785.5 98.5 c 0
 793.833333333 94.8333333333 799.333333333 91.8333333333 802 89.5 c 0
 804.666666667 87.1666666667 811 81 821 71 c 258
 894 -2 l 258
 895 -3 895 -3 899 -7 c 0
 903 -11 903 -11 904 -12 c 0
 905 -13 905 -13 908.5 -16.5 c 0
 910.833333333 -18.8333333333 912.166666667 -20.6666666667 912.5 -22 c 0
 912.833333333 -23.3333333333 913.833333333 -25 915.5 -27 c 0
 917.166666667 -29 918.333333333 -30.8333333333 919 -32.5 c 0
 919.666666667 -34.1666666667 920.333333333 -36.1666666667 921 -38.5 c 0
 921.666666667 -40.8333333333 922 -43.1666666667 922 -45.5 c 0
 922 -49 922 -49 922 -53 c 256
 922 -67.6666666667 916.833333333 -79.5 906.5 -88.5 c 0
 896.166666667 -97.5 883.666666667 -102 869 -102 c 256
 865.666666667 -102 862.666666667 -101.833333333 860 -101.5 c 0
 857.333333333 -101.166666667 854.666666667 -100.333333333 852 -99 c 0
 849.333333333 -97.6666666667 847.166666667 -96.6666666667 845.5 -96 c 0
 843.833333333 -95.3333333333 841.5 -93.6666666667 838.5 -91 c 0
 835.5 -88.3333333333 833.5 -86.6666666667 832.5 -86 c 0
 831.5 -85.3333333333 829.333333333 -83.3333333333 826 -80 c 0
 821 -75 821 -75 820 -74 c 258
 750 -3 l 258
 732 15 722 27.3333333333 720 34 c 256
 718 38.6666666667 717 45 717 53 c 256
 717 65 721 75.5 729 84.5 c 0
 737 93.5 747 99 759 101 c 256
607 0 m 256
 619 1.33333333333 630.333333333 -1.16666666667 641 -7.5 c 0
 651.666666667 -13.8333333333 659.333333333 -23.3333333333 664 -36 c 256
 665.333333333 -40.6666666667 666 -54.3333333333 666 -77 c 256
 666 -79 666 -79 666 -88 c 0
 666 -97 666 -97 666 -100 c 0
 666 -102 665.666666667 -105.5 665 -110.5 c 0
 664.333333333 -115.5 663.333333333 -119.166666667 662 -121.5 c 0
 660.666666667 -123.833333333 659 -126.833333333 657 -130.5 c 0
 655 -134.166666667 652.333333333 -137.333333333 649 -140 c 256
 645.666666667 -143.333333333 642 -146 638 -148 c 256
 633.333333333 -150 628 -152 622 -154 c 256
 610 -155.333333333 598.5 -152.666666667 587.5 -146 c 0
 576.5 -139.333333333 569.333333333 -130.333333333 566 -119 c 256
 564 -113.666666667 563 -101 563 -81 c 256
 563 -78 563 -78 563 -69 c 0
 563 -60 563 -60 563 -56.5 c 0
 563 -54.1666666667 563.166666667 -50.6666666667 563.5 -46 c 0
 563.833333333 -41.3333333333 564.5 -37.5 565.5 -34.5 c 0
 566.5 -31.5 568.166666667 -28 570.5 -24 c 0
 572.833333333 -20 575.666666667 -16.6666666667 579 -14 c 256
 582.333333333 -10.6666666667 586 -8 590 -6 c 256
 594 -3.33333333333 599.666666667 -1.33333333333 607 0 c 256
EndSplineSet
Validated: 33
EndChar

StartChar: uni0094
Encoding: 148 148 74
Width: 1024
VStem: 102 152<100 206.125>
LayerCount: 2
Fore
SplineSet
102 100 m 257
 100.666666667 172.666666667 118.5 241.5 155.5 306.5 c 0
 192.5 371.5 242.333333333 422.333333333 305 459 c 256
 373.666666667 499.666666667 449.833333333 517.833333333 533.5 513.5 c 0
 617.166666667 509.166666667 691 482.666666667 755 434 c 256
 779.666666667 416.666666667 803 395 825 369 c 256
 828.333333333 369 831.833333333 370.333333333 835.5 373 c 0
 839.166666667 375.666666667 842.833333333 379.166666667 846.5 383.5 c 0
 850.166666667 387.833333333 853.333333333 391 856 393 c 256
 860 397 860 397 884 421 c 0
 900 437 912.666666667 449.333333333 922 458 c 257
 922 152 l 257
 615 152 l 257
 629.666666667 167.333333333 664.333333333 202 719 256 c 257
 696.333333333 286 668.5 310.166666667 635.5 328.5 c 0
 602.5 346.833333333 567.333333333 357 530 359 c 256
 474 364.333333333 421.166666667 350.666666667 371.5 318 c 0
 321.833333333 285.333333333 288 242.333333333 270 189 c 256
 266.666666667 180.333333333 264.166666667 171.166666667 262.5 161.5 c 0
 260.833333333 151.833333333 259.166666667 140 257.5 126 c 0
 255.833333333 112 254.666666667 103.333333333 254 100 c 257
 102 100 l 257
EndSplineSet
Validated: 33
EndChar

StartChar: uni0095
Encoding: 149 149 75
Width: 1024
VStem: 770 152<100 203.013>
LayerCount: 2
Fore
SplineSet
922 100 m 257
 770 100 l 257
 769 105 769 105 766.5 126 c 0
 764 147 764 147 761 161.5 c 0
 758 176 758 176 753 189 c 256
 727 269 727 269 652.5 318.5 c 0
 578 368 578 368 494 359 c 256
 439 356 439 356 389 328.5 c 0
 339 301 339 301 305 256 c 257
 387 174 387 174 409 152 c 257
 102 152 l 257
 102 458 l 257
 115 446 115 446 139.5 421.5 c 0
 164 397 164 397 168 393 c 256
 172 390 172 390 177.5 383.5 c 0
 183 377 183 377 188.5 373 c 0
 194 369 194 369 199 369 c 256
 233 409 233 409 269 434 c 256
 364 507 364 507 489.5 513.5 c 0
 615 520 615 520 719 459 c 256
 813 405 813 405 868.5 307 c 0
 924 209 924 209 922 100 c 257
EndSplineSet
Validated: 33
EndChar

StartChar: uni0096
Encoding: 150 150 76
Width: 1024
HStem: 585 115<512 590.636>
VStem: 115.5 117.5<198.57 424.25> 791 117.5<189.75 415.688>
LayerCount: 2
Fore
SplineSet
512 700 m 257
 524 700 l 257
 554 697 l 257
 600 691 l 257
 695 669 695 669 768.5 607 c 0
 842 545 842 545 877 463 c 0
 912 381 912 381 908.5 284 c 0
 905 187 905 187 856 101 c 256
 839 72 839 72 815 44 c 258
 803 31 l 258
 798 26 798 26 798 24 c 0
 798 22 798 22 820.5 -2 c 0
 843 -26 843 -26 873 -55.5 c 0
 903 -85 903 -85 903 -86 c 257
 599 -86 l 257
 599 217 l 257
 601 215 601 215 631.5 185 c 0
 662 155 662 155 685.5 132.5 c 0
 709 110 709 110 712 110 c 0
 715 110 715 110 723 119 c 256
 732 129 732 129 745 147 c 256
 786 204 786 204 791 278 c 0
 796 352 796 352 768.5 416 c 0
 741 480 741 480 679.5 527 c 0
 618 574 618 574 538 583 c 258
 512 585 l 257
 512 700 l 257
121 700 m 257
 425 700 l 257
 425 397 l 257
 418 403 418 403 390 431 c 0
 362 459 362 459 338.5 482 c 0
 315 505 315 505 312 505 c 256
 309 505 309 505 301 496 c 256
 292 486 292 486 279 467 c 256
 238 410 238 410 233 336 c 0
 228 262 228 262 255.5 198 c 0
 283 134 283 134 344.5 87 c 0
 406 40 406 40 486 32 c 258
 512 30 l 257
 512 -86 l 257
 500 -86 l 257
 470 -83 l 257
 424 -77 l 257
 329 -55 329 -55 255.5 7.5 c 0
 182 70 182 70 147 151.5 c 0
 112 233 112 233 115.5 330 c 0
 119 427 119 427 168 513 c 256
 185 542 185 542 209 570 c 258
 221 584 l 258
 226 589 226 589 226 591 c 0
 226 593 226 593 202.5 617 c 0
 179 641 179 641 152.5 667.5 c 0
 126 694 126 694 121 700 c 257
EndSplineSet
Validated: 33
EndChar

StartChar: uni0097
Encoding: 151 151 77
Width: 1024
LayerCount: 2
Fore
SplineSet
401 307 m 257
 172 532 l 257
 287 647 l 257
 512 418 l 257
 737 647 l 257
 852 532 l 257
 623 307 l 257
 852 82 l 257
 737 -33 l 257
 512 197 l 257
 287 -33 l 257
 172 82 l 257
 401 307 l 257
EndSplineSet
Validated: 1
EndChar

StartChar: uni0098
Encoding: 152 152 78
Width: 1024
HStem: 666 51<563 616.828>
VStem: 205 614<-102 461 505 510> 768 51<461 515.437>
LayerCount: 2
Fore
SplineSet
205 717 m 257xc0
 607 717 l 258
 615 717 615 717 627 706 c 258
 645 687 l 257
 735 597 l 257
 798 535 l 258
 817 516 817 516 818 512 c 256
 819 510 819 510 819 505 c 258
 819 -102 l 257
 205 -102 l 257
 205 717 l 257xc0
768 461 m 257xa0
 768 484 l 258
 768 492 768 492 755 506 c 258
 723 538 l 257
 627 634 l 257
 606 654 l 258
 595 665 595 665 587 666 c 258
 563 666 l 257
 563 461 l 257
 768 461 l 257xa0
EndSplineSet
Validated: 1
EndChar

StartChar: uni0099
Encoding: 153 153 79
Width: 1024
LayerCount: 2
Fore
SplineSet
204 102 m 257
 212 139 l 257
 230 216 l 257
 288 457 l 257
 306 534 l 257
 312 559 l 257
 315 572 l 258
 315 575 315 575 309 581 c 256
 302 587 302 587 297 594 c 256
 282 616 282 616 282 643 c 256
 282 673 282 673 304 695 c 0
 326 717 326 717 355 717 c 256
 400 718 400 718 424 681 c 256
 429 673 429 673 432 664 c 256
 434 655 434 655 436 652 c 258
 449 647 l 258
 458 643 458 643 468 637 c 256
 503 615 503 615 529 579 c 256
 549 549 549 549 591 461.5 c 0
 633 374 633 374 668 338 c 256
 686 320 686 320 708 307 c 258
 726 298 l 257
 729 308 729 308 741 323 c 256
 763 350 763 350 799 357 c 0
 835 364 835 364 865 348 c 256
 893 334 893 334 907.5 309 c 0
 922 284 922 284 922 252 c 256
 922 236 922 236 914 217 c 256
 902 186 902 186 875.5 170 c 0
 849 154 849 154 816 154 c 256
 788 154 788 154 764.5 169 c 0
 741 184 741 184 728 209 c 256
 722 219 722 219 719 233 c 256
 717 245 717 245 716 247 c 256
 715 248 715 248 712 249 c 0
 709 250 709 250 705 251.5 c 0
 701 253 701 253 700 254 c 256
 682 262 682 262 670 270 c 256
 627 299 627 299 594 348 c 256
 581 368 581 368 569 391 c 0
 557 414 557 414 542.5 444.5 c 0
 528 475 528 475 521 489 c 256
 491 549 491 549 463 577 c 256
 452 587 452 587 425 602 c 257
 415 580 415 580 391 570 c 256
 384 567 384 567 375 565 c 256
 368 563 368 563 366 561 c 258
 358 532 l 257
 343 465 l 257
 287 230 l 257
 263 134 l 257
 257 106 l 258
 254 94 254 94 254 93 c 256
 254 90 254 90 262 85 c 256
 272 79 272 79 281 70 c 256
 308 40 308 40 307 4 c 256
 307 -30 307 -30 290.5 -56.5 c 0
 274 -83 274 -83 244 -95 c 256
 226 -102 226 -102 209 -102 c 256
 180 -102 180 -102 159 -92 c 256
 112 -68 112 -68 103.5 -14.5 c 0
 95 39 95 39 134 75 c 256
 148 88 148 88 166 95 c 256
 185 102 185 102 204 102 c 257
EndSplineSet
Validated: 33
EndChar

StartChar: uni009A
Encoding: 154 154 80
Width: 1024
HStem: -102 307<102 205 819 922> -102 102<205 406 614 819> 410 307<102 205 819 922> 614 103<205 406 614 819>
VStem: 102 304<-102 0 614 717> 102 103<0 205 410 614> 614 308<-102 0 614 717> 819 103<0 205 410 614>
LayerCount: 2
Fore
SplineSet
102 717 m 257x28
 406 717 l 257
 406 614 l 257x18
 205 614 l 257x14
 205 410 l 257
 102 410 l 257x24
 102 717 l 257x28
614 717 m 257x12
 922 717 l 257x22
 922 410 l 257
 819 410 l 257x21
 819 614 l 257x11
 614 614 l 257
 614 717 l 257x12
102 205 m 257x84
 205 205 l 257x84
 205 0 l 257x44
 406 0 l 257
 406 -102 l 257x48
 102 -102 l 257x88
 102 205 l 257x84
819 205 m 257x81
 922 205 l 257x81
 922 -102 l 257x82
 614 -102 l 257
 614 0 l 257x42
 819 0 l 257x41
 819 205 l 257x81
EndSplineSet
Validated: 1
EndChar

StartChar: uni009B
Encoding: 155 155 81
Width: 1024
HStem: -127 21G<347 387 636.187 676.769> 721 20G<346.718 387.571 636.429 677>
LayerCount: 2
Fore
SplineSet
367 741 m 257
 403 706 l 257
 474 635 l 257
 501 608 l 258
 510 599 510 599 512 599 c 0
 514 599 514 599 523 608 c 258
 550 635 l 257
 621 706 l 257
 657 741 l 257
 703 695 l 257
 729 669 l 257
 567 507 l 257
 527 467 l 258
 514 454 514 454 512 454 c 0
 510 454 510 454 497 467 c 258
 458 506 l 257
 349 614 l 257
 314 649 l 258
 298 665 298 665 295 670 c 257
 367 741 l 257
150 524 m 257
 154 521 154 521 170 505 c 258
 205 470 l 257
 313 361 l 257
 352 323 l 258
 365 310 365 310 365.5 307.5 c 0
 366 305 366 305 352 292 c 258
 313 253 l 257
 205 144 l 257
 170 110 l 258
 154 94 154 94 150 90 c 257
 103 136 l 257
 78 163 l 257
 184 269 l 257
 211 296 l 258
 220 305 220 305 220 307 c 0
 220 309 220 309 211 318 c 258
 184 345 l 257
 114 416 l 257
 78 453 l 257
 150 524 l 257
873 524 m 257
 910 488 l 257
 946 452 l 257
 840 345 l 257
 813 318 l 258
 804 309 804 309 804 307 c 0
 804 305 804 305 813 296 c 258
 840 269 l 257
 910 199 l 257
 946 162 l 257
 900 116 l 257
 873 90 l 257
 712 252 l 257
 672 292 l 258
 659 305 659 305 658.5 307 c 0
 658 309 658 309 672 323 c 258
 712 362 l 257
 873 524 l 257
295 -54 m 257
 457 108 l 257
 497 147 l 258
 510 160 510 160 512 160.5 c 0
 514 161 514 161 527 147 c 258
 566 109 l 257
 675 0 l 257
 710 -35 l 258
 726 -51 726 -51 729 -55 c 257
 683 -101 l 257
 656 -127 l 257
 550 -20 l 257
 523 6 l 258
 514 15 514 15 512 15 c 0
 510 15 510 15 501 6 c 258
 474 -20 l 257
 403 -91 l 257
 367 -127 l 257
 321 -81 l 257
 295 -54 l 257
EndSplineSet
Validated: 1
EndChar

StartChar: uni009C
Encoding: 156 156 82
Width: 1024
HStem: 256 102<195 389 635 829> 697 20G<102 357 667 922>
VStem: 463 100<-12 183 431 627>
LayerCount: 2
Fore
SplineSet
692 626 m 257
 686 626 l 258
 681 626 681 626 672.5 626 c 0
 664 626 664 626 652.5 626 c 0
 641 626 641 626 628.5 626 c 0
 616 626 616 626 604.5 626 c 0
 593 626 593 626 581.5 626 c 0
 570 626 570 626 563 627 c 257
 563 431 l 257
 589 456 589 456 637 504 c 256
 717 583 717 583 756 625 c 257
 741 643 741 643 710.5 672 c 0
 680 701 680 701 667 717 c 257
 922 717 l 257
 922 462 l 257
 908 474 908 474 877.5 505 c 0
 847 536 847 536 829 551 c 257
 787 512 787 512 708 431 c 256
 660 383 660 383 635 358 c 257
 829 358 l 257
 829 486 l 257
 920 397 920 397 1010 306 c 257
 1002 298 l 258
 994 290 994 290 981.5 277.5 c 0
 969 265 969 265 953 248.5 c 0
 937 232 937 232 919 215 c 0
 901 198 901 198 884.5 181.5 c 0
 868 165 868 165 853.5 150.5 c 0
 839 136 839 136 829 127 c 257
 829 256 l 257
 635 256 l 257
 660 231 660 231 708 183 c 256
 788 102 788 102 829 63 c 257
 847 78 847 78 876.5 108.5 c 0
 906 139 906 139 922 153 c 257
 922 -102 l 257
 667 -102 l 257
 679 -88 679 -88 709.5 -58 c 0
 740 -28 740 -28 756 -10 c 257
 717 32 717 32 637 111 c 256
 589 159 589 159 563 183 c 257
 563 -12 l 257
 595 -11 595 -11 692 -11 c 257
 593 -112 593 -112 512 -190 c 257
 489 -167 489 -167 445 -124 c 256
 369 -49 369 -49 334 -11 c 257
 339 -11 l 258
 345 -11 345 -11 353.5 -11 c 0
 362 -11 362 -11 373.5 -11 c 0
 385 -11 385 -11 398 -11 c 0
 411 -11 411 -11 422.5 -11 c 0
 434 -11 434 -11 445 -11 c 0
 456 -11 456 -11 463 -12 c 257
 463 185 l 257
 437 160 437 160 389 113 c 256
 308 32 308 32 268 -10 c 257
 283 -28 283 -28 313.5 -57.5 c 0
 344 -87 344 -87 357 -102 c 257
 102 -102 l 257
 102 153 l 257
 116 141 116 141 146.5 110 c 0
 177 79 177 79 195 63 c 257
 237 102 237 102 316 183 c 256
 364 231 364 231 389 256 c 257
 195 256 l 257
 195 127 l 257
 104 216 104 216 14 307 c 257
 22 315 l 258
 30 324 30 324 42.5 336 c 0
 55 348 55 348 71 364.5 c 0
 87 381 87 381 105 398.5 c 0
 123 416 123 416 139.5 432.5 c 0
 156 449 156 449 170.5 463 c 0
 185 477 185 477 195 486 c 257
 195 358 l 257
 389 358 l 257
 364 383 364 383 316 431 c 256
 236 512 236 512 195 551 c 257
 177 536 177 536 147.5 505.5 c 0
 118 475 118 475 102 462 c 257
 102 717 l 257
 357 717 l 257
 345 703 345 703 314.5 672.5 c 0
 284 642 284 642 268 625 c 257
 308 583 308 583 389 502 c 256
 437 454 437 454 463 429 c 257
 463 627 l 257
 433 626 433 626 334 626 c 257
 370 664 370 664 445 738 c 256
 489 782 489 782 512 805 c 257
 592 727 592 727 692 626 c 257
EndSplineSet
Validated: 1
EndChar

StartChar: uni00A0
Encoding: 160 160 83
Width: 1024
Flags: HW
LayerCount: 2
Fore
SplineSet
921 709 m 262
 920.333007812 725.666992188 914.833007812 738.5 904.5 747.5 c 4
 894.166992188 756.5 881.666992188 761 867 761 c 260
 858.333007812 761 844.666992188 755.666992188 826 745 c 260
 822 742.333007812 802 731 766 711 c 4
 730 691 702.666992188 675.666992188 684 665 c 260
 618.666992188 629 580 607.333007812 568 600 c 262
 428 521 l 262
 426.666992188 520.333007812 418.666992188 516 404 508 c 4
 389.333007812 500 373.666992188 491.166992188 357 481.5 c 4
 340.333007812 471.833007812 325 463 311 455 c 262
 290 443 l 262
 262 427 219.666992188 403.333007812 163 372 c 262
 140 359 l 262
 132.666992188 355 127 351.5 123 348.5 c 4
 119 345.5 114.5 340.333007812 109.5 333 c 4
 104.5 325.666992188 102 317 102 307 c 260
 102 292.333007812 105.5 281.666992188 112.5 275 c 4
 119.5 268.333007812 132 260 150 250 c 260
 174.666992188 236.666992188 233.333007812 204 326 152 c 260
 350 137.333007812 371.666992188 125 391 115 c 260
 441.666992188 86.3330078125 470 70.3330078125 476 67 c 261
 476 66 l 261
 480.666992188 64.6669921875 489.833007812 60 503.5 52 c 4
 517.166992188 44 534.166992188 34.1669921875 554.5 22.5 c 4
 574.833007812 10.8330078125 591.666992188 1.3330078125 605 -6 c 260
 617 -12 632.5 -20.5 651.5 -31.5 c 4
 670.5 -42.5 693.333007812 -55.6669921875 720 -71 c 260
 744.666992188 -85.6669921875 771.333007812 -100.666992188 800 -116 c 260
 813.333007812 -124 823 -129.333007812 829 -132 c 260
 845.666992188 -140.666992188 859 -145 869 -145 c 260
 883.666992188 -145 895.833007812 -140 905.5 -130 c 4
 915.166992188 -120 920.333007812 -107.666992188 921 -93 c 262
 921 709 l 262
EndSplineSet
Validated: 9
EndChar

StartChar: exclamdown
Encoding: 161 161 84
Width: 1204
Flags: HW
LayerCount: 2
Fore
SplineSet
282 709 m 262
 282.666992188 725.666992188 288.166992188 738.5 298.5 747.5 c 4
 308.833007812 756.5 321.333007812 761 336 761 c 260
 344.666992188 761 358.333007812 755.666992188 377 745 c 260
 381 742.333007812 401 731 437 711 c 4
 473 691 500.333007812 675.666992188 519 665 c 260
 584.333007812 629 623 607.333007812 635 600 c 262
 775 521 l 262
 776.333007812 520.333007812 784.333007812 516 799 508 c 4
 813.666992188 500 829.333007812 491.166992188 846 481.5 c 4
 862.666992188 471.833007812 878 463 892 455 c 262
 913 443 l 262
 941 427 983.333007812 403.333007812 1040 372 c 262
 1063 359 l 262
 1070.33300781 355 1076 351.5 1080 348.5 c 4
 1084 345.5 1088.5 340.333007812 1093.5 333 c 4
 1098.5 325.666992188 1101 317 1101 307 c 260
 1101 292.333007812 1097.5 281.666992188 1090.5 275 c 4
 1083.5 268.333007812 1071 260 1053 250 c 260
 1028.33300781 236.666992188 969.666992188 204 877 152 c 260
 853 137.333007812 831.333007812 125 812 115 c 260
 761.333007812 86.3330078125 733 70.3330078125 727 67 c 261
 727 66 l 261
 722.333007812 64.6669921875 713.166992188 60 699.5 52 c 4
 685.833007812 44 668.833007812 34.1669921875 648.5 22.5 c 4
 628.166992188 10.8330078125 611.333007812 1.3330078125 598 -6 c 260
 586 -12 570.5 -20.5 551.5 -31.5 c 4
 532.5 -42.5 509.666992188 -55.6669921875 483 -71 c 260
 458.333007812 -85.6669921875 431.666992188 -100.666992188 403 -116 c 260
 389.666992188 -124 380 -129.333007812 374 -132 c 260
 357.333007812 -140.666992188 344 -145 334 -145 c 260
 319.333007812 -145 307.166992188 -140 297.5 -130 c 4
 287.833007812 -120 282.666992188 -107.666992188 282 -93 c 262
 282 709 l 262
EndSplineSet
Validated: 1
EndChar

StartChar: cent
Encoding: 162 162 85
Width: 1144
Flags: HW
HStem: -102 818<237.955 1026.05>
VStem: 222 820<-86.5603 701.045>
LayerCount: 2
Fore
SplineSet
266 716 m 256
 326 716 326 716 627.5 716 c 0
 929 716 929 716 989 716 c 256
 1004.33300781 716 1016.83300781 711.166992188 1026.5 701.5 c 0
 1036.16699219 691.833007812 1041.33300781 679.666992188 1042 665 c 258
 1042 -50 l 258
 1041.33300781 -65.3330078125 1036.16699219 -77.6669921875 1026.5 -87 c 0
 1016.83300781 -96.3330078125 1004.33300781 -101.333007812 989 -102 c 258
 275 -102 l 258
 259.666992188 -101.333007812 247.166992188 -96.3330078125 237.5 -87 c 0
 227.833007812 -77.6669921875 222.666992188 -65.3330078125 222 -50 c 258
 222 665 l 258
 222.666992188 678.333007812 226.833007812 689.666992188 234.5 699 c 0
 242.166992188 708.333007812 252.666992188 714 266 716 c 256
EndSplineSet
Validated: 1
EndChar

StartChar: sterling
Encoding: 163 163 86
Width: 1144
Flags: HW
VStem: 325 256<-76.3743 692.374> 683 256<-76.3743 692.374>
LayerCount: 2
Fore
SplineSet
369 717 m 256
 383 717 383 717 454.5 717 c 0
 502.166992188 717 530.666992188 716.666992188 540 716 c 256
 554.666992188 714 565.666992188 706.333007812 573 693 c 0
 578.761723371 682.523930059 581.642821911 671.429894346 581.642821911 659.718840279 c 0
 581.642821911 656.525108846 581.428551143 653.285489014 581 650 c 256
 581 585 581 585 581 296.5 c 0
 581 8 581 8 581 -55 c 256
 580.333007812 -71 573.333007812 -83.3330078125 560 -92 c 0
 549.167040826 -99.0418598609 537.453461359 -102.562527896 524.859785391 -102.562527896 c 0
 521.953395554 -102.562527896 519.000131611 -102.375016451 516 -102 c 256
 504 -102 504 -102 440.5 -102 c 0
 398.166992188 -102 373 -101.666992188 365 -101 c 256
 349.666992188 -98.3330078125 338.666992188 -90.3330078125 332 -77 c 0
 326.871620041 -66.7439912736 324.307652301 -55.8957061787 324.307652301 -44.4560336721 c 0
 324.307652301 -41.0239127772 324.538438868 -37.5385602177 325 -34 c 256
 325 29 325 29 325 317 c 0
 325 605 325 605 325 669 c 256
 325.666992188 681 330.333007812 691.5 339 700.5 c 0
 347.666992188 709.5 357.666992188 715 369 717 c 256
727 717 m 256
 741 717 741 717 812.5 717 c 0
 860.166992188 717 888.666992188 716.666992188 898 716 c 256
 912.666992188 714 923.666992188 706.333007812 931 693 c 0
 936.761723371 682.523930059 939.642821911 671.429894346 939.642821911 659.718840279 c 0
 939.642821911 656.525108846 939.428551143 653.285489014 939 650 c 256
 939 585 939 585 939 296.5 c 0
 939 8 939 8 939 -55 c 256
 938.333007812 -71 931.333007812 -83.3330078125 918 -92 c 0
 907.167040826 -99.0418598609 895.673294096 -102.562527896 883.519807393 -102.562527896 c 0
 880.715005179 -102.562527896 877.875065089 -102.375016451 875 -102 c 256
 863 -102 863 -102 799 -102 c 0
 756.333007812 -102 731 -101.666992188 723 -101 c 256
 707.666992188 -98.3330078125 696.666992188 -90.3330078125 690 -77 c 0
 684.871620041 -66.7439912736 682.307652301 -55.8957061787 682.307652301 -44.4560336721 c 0
 682.307652301 -41.0239127772 682.538438868 -37.5385602177 683 -34 c 256
 683 29 683 29 683 317 c 0
 683 605 683 605 683 669 c 256
 683.666992188 681 688.333007812 691.5 697 700.5 c 0
 705.666992188 709.5 715.666992188 715 727 717 c 256
EndSplineSet
Validated: 1
EndChar

StartChar: currency
Encoding: 164 164 87
Width: 1144
Flags: HW
LayerCount: 2
Fore
SplineSet
612 717 m 257
 645 717 l 257
 657 716 l 257
 666 716 l 257
 702 712 702 712 730 705 c 256
 842 677 842 677 922 597 c 0
 1002 517 1002 517 1029 406 c 256
 1036 377 1036 377 1041 341 c 257
 1041 332 l 257
 1042 322 l 257
 1042.16139048 308.281809387 1042.29673407 296.777604112 1042.29673407 286.823196505 c 0
 1042.29673407 235.098577298 1038.6424571 225.218495121 1016 164 c 256
 985 81 985 81 921.5 17.5 c 0
 858 -46 858 -46 775 -77 c 256
 717.617530147 -98.2236532334 705.341195177 -102.764215483 661.915914634 -102.764215483 c 0
 650.097050272 -102.764215483 635.970856607 -102.427877538 618 -102 c 257
 606 -101 l 258
 556 -99 556 -99 504 -82 c 256
 417 -53 417 -53 352 7 c 256
 251 101 251 101 229 239 c 258
 223 274 l 257
 223 283 l 257
 222 293 l 257
 222 319 l 257
 223 332 l 257
 223 341 l 257
 230 416 230 416 258 476 c 256
 319 609 319 609 448 673 c 256
 473 685 473 685 490 691 c 256
 532 706 532 706 572 713 c 258
 598 716 l 257
 612 717 l 257
EndSplineSet
Validated: 1
EndChar

StartChar: yen
Encoding: 165 165 88
Width: 1164
Flags: HW
VStem: 242 154<-92.5078 707.902>
LayerCount: 2
Fore
SplineSet
315 717 m 257
 350 716 l 258
 364 716 364 716 378 705 c 256
 396 692 396 692 396 662 c 258
 396 521 l 257
 396 -46 l 258
 396 -58 396 -58 394 -67 c 256
 392 -74 392 -74 388 -80 c 256
 378 -94 378 -94 364.5 -98 c 0
 351 -102 351 -102 329 -102 c 258
 301 -102 l 258
 260 -102 260 -102 248 -72 c 256
 243 -61 243 -61 242 -19 c 258
 242 73 l 257
 242 571 l 257
 242 638 l 258
 242 671 242 671 244 679 c 256
 250 704 250 704 273 713 c 256
 285 717 285 717 309 717 c 258
 315 717 l 257
1018 687 m 256
 1038 683 1038 683 1050 669 c 0
 1062 655 1062 655 1062 635 c 258
 1062 516 l 257
 1062 -30 l 258
 1062 -52 1062 -52 1047.5 -67 c 0
 1033 -82 1033 -82 1011 -82 c 256
 1005 -82 1005 -82 1000 -81.5 c 0
 995 -81 995 -81 989.5 -78.5 c 0
 984 -76 984 -76 981 -74.5 c 0
 978 -73 978 -73 971 -69 c 0
 964 -65 964 -65 961 -62 c 258
 878 -11 l 257
 750 68 l 257
 657 125 l 257
 540 197 l 257
 453 250 l 258
 440 258 440 258 434 263 c 0
 428 268 428 268 421.5 278 c 0
 415 288 415 288 415 301 c 256
 415 327 415 327 433 342 c 256
 436 345 436 345 456 357 c 258
 498 383 l 257
 696 505 l 257
 770 550 l 257
 899 630 l 257
 933 650 l 257
 969 673 l 258
 970 674 970 674 975.5 676.5 c 0
 981 679 981 679 982 679.5 c 0
 983 680 983 680 987 682 c 0
 991 684 991 684 992.5 684.5 c 0
 994 685 994 685 997.5 686 c 0
 1001 687 1001 687 1003.5 687 c 0
 1006 687 1006 687 1010 687 c 0
 1014 687 1014 687 1018 687 c 256
EndSplineSet
Validated: 1
EndChar

StartChar: brokenbar
Encoding: 166 166 89
Width: 1104
Flags: HW
VStem: 848 154<-93 708.297>
LayerCount: 2
Fore
SplineSet
929 717 m 257
 935 717 l 258
 959 717 959 717 971 713 c 256
 994 704 994 704 1000 679 c 256
 1002 671 1002 671 1002 638 c 258
 1002 571 l 257
 1002 73 l 257
 1002 -19 l 258
 1002 -60 1002 -60 998 -72 c 256
 986.979364557 -98.2799768251 985.301375696 -102.281334878 959.457722099 -102.281334878 c 0
 954.81606489 -102.281334878 949.394870108 -102.152258812 943 -102 c 258
 915 -102 l 258
 901 -102 901 -102 892.5 -101 c 0
 884 -100 884 -100 873.5 -95 c 0
 863 -90 863 -90 857 -80 c 256
 852 -74 852 -74 850 -67 c 256
 848 -59 848 -59 848 -46 c 258
 848 521 l 257
 848 662 l 258
 848 692 848 692 866 705 c 256
 879 716 879 716 894 716 c 258
 929 717 l 257
226 687 m 256
 230 687 230 687 234 687 c 0
 238 687 238 687 240.5 687 c 0
 243 687 243 687 246.5 686 c 0
 250 685 250 685 251.5 684.5 c 0
 253 684 253 684 257 682 c 0
 261 680 261 680 262 679.5 c 0
 263 679 263 679 268.5 676.5 c 0
 274 674 274 674 275 673 c 258
 311 650 l 257
 345 630 l 257
 474 550 l 257
 548 505 l 257
 746 383 l 257
 788 357 l 258
 808 345 808 345 811 342 c 256
 828 327 828 327 829 301 c 256
 829 288 829 288 822.5 278 c 0
 816 268 816 268 810 263 c 0
 804 258 804 258 791 250 c 258
 704 197 l 257
 587 125 l 257
 494 68 l 257
 366 -11 l 257
 283 -62 l 258
 280 -64 280 -64 273 -68.5 c 0
 266 -73 266 -73 263 -74.5 c 0
 260 -76 260 -76 255 -78.5 c 0
 250 -81 250 -81 244.5 -81.5 c 0
 239 -82 239 -82 233 -82 c 256
 211 -82 211 -82 196.5 -66.5 c 0
 182 -51 182 -51 182 -30 c 258
 182 516 l 257
 182 635 l 258
 182 655 182 655 194 669 c 0
 206 683 206 683 226 687 c 256
EndSplineSet
Validated: 1
EndChar

StartChar: section
Encoding: 167 167 90
Width: 1024
VWidth: 1375
Flags: HW
LayerCount: 2
Fore
SplineSet
561 166.6953125 m 257
 561 -24.025390625 l 258
 561 -56.8046875 561 -56.8046875 546.5 -79.1552734375 c 0
 532 -101.504882812 532 -101.504882812 511 -101.504882812 c 256
 498 -101.504882812 498 -101.504882812 487.5 -95.544921875 c 0
 477 -89.5849609375 477 -89.5849609375 465 -76.1748046875 c 0
 453 -62.7646484375 453 -62.7646484375 445 -58.294921875 c 258
 420 -32.96484375 l 257
 402 -18.0654296875 l 257
 390 -6.14453125 l 257
 374 7.2646484375 l 257
 337 43.025390625 l 257
 302 75.8046875 l 257
 278 99.64453125 l 257
 258 116.03515625 l 257
 241 132.424804688 l 257
 230 142.85546875 l 257
 210 162.224609375 l 257
 187 181.594726562 l 257
 169 200.96484375 l 257
 151 217.35546875 l 257
 134 232.254882812 l 257
 122 244.174804688 l 258
 103 268.014648438 103 268.014648438 102 303.775390625 c 256
 102 345.495117188 102 345.495117188 123 369.334960938 c 258
 134 381.254882812 l 257
 156 402.115234375 l 257
 169 414.03515625 l 257
 187 431.915039062 l 257
 210 451.28515625 l 257
 230 472.14453125 l 257
 241 481.084960938 l 257
 257 497.474609375 l 257
 279 515.35546875 l 257
 324 558.565429688 l 257
 337 570.485351562 l 257
 375 607.735351562 l 257
 390 619.655273438 l 257
 402 631.575195312 l 257
 420 647.96484375 l 257
 445 671.8046875 l 258
 451 676.275390625 451 676.275390625 463.5 688.940429688 c 0
 476 701.60546875 476 701.60546875 486 709.0546875 c 0
 496 716.504882812 496 716.504882812 507 716.504882812 c 256
 531 716.504882812 531 716.504882812 546 694.900390625 c 0
 561 673.294921875 561 673.294921875 561 637.53515625 c 258
 561 446.815429688 l 257
 603 484.065429688 l 257
 618 500.455078125 l 257
 637 515.35546875 l 257
 682 558.565429688 l 257
 695 570.485351562 l 257
 732 606.245117188 l 257
 770 639.025390625 l 257
 798 667.334960938 l 257
 816 682.235351562 l 258
 817 683.724609375 817 683.724609375 825 691.174804688 c 0
 833 698.625 833 698.625 835.5 700.860351562 c 0
 838 703.094726562 838 703.094726562 844 708.309570312 c 0
 850 713.525390625 850 713.525390625 855 715.014648438 c 0
 860 716.504882812 860 716.504882812 865 716.504882812 c 256
 876 716.504882812 876 716.504882812 885 712.03515625 c 256
 892 709.0546875 892 709.0546875 898 701.60546875 c 256
 909 689.684570312 909 689.684570312 914.5 672.549804688 c 0
 920 655.415039062 920 655.415039062 920 646.474609375 c 0
 920 637.53515625 920 637.53515625 920 607.735351562 c 258
 920 546.64453125 l 257
 920 -24.025390625 l 258
 920 -56.8046875 920 -56.8046875 905.5 -79.1552734375 c 0
 891 -101.504882812 891 -101.504882812 869 -101.504882812 c 256
 862 -101.504882812 862 -101.504882812 857 -100.014648438 c 0
 852 -98.525390625 852 -98.525390625 845.5 -94.7998046875 c 0
 839 -91.0751953125 839 -91.0751953125 837 -88.83984375 c 0
 835 -86.60546875 835 -86.60546875 826.5 -78.41015625 c 0
 818 -70.21484375 818 -70.21484375 816 -68.724609375 c 258
 798 -52.3349609375 l 257
 771 -27.0048828125 l 257
 731 10.2451171875 l 257
 694 44.5146484375 l 257
 675 60.9052734375 l 257
 637 98.1552734375 l 257
 620 113.0546875 l 257
 603 129.4453125 l 257
 589 142.85546875 l 258
 565 163.71484375 565 163.71484375 561 166.6953125 c 257
EndSplineSet
Validated: 1
EndChar

StartChar: dieresis
Encoding: 168 168 91
Width: 1184
VWidth: 1375
Flags: HW
LayerCount: 2
Fore
SplineSet
621 166.6953125 m 257
 618.333007812 164.708007812 609 156.76171875 593 142.85546875 c 258
 579 129.4453125 l 257
 562 113.0546875 l 257
 545 98.1552734375 l 257
 507 60.9052734375 l 257
 488 44.5146484375 l 257
 451 10.2451171875 l 257
 411 -27.0048828125 l 257
 384 -52.3349609375 l 257
 366 -68.724609375 l 258
 363 -71.705078125 363 -71.705078125 357 -77.6650390625 c 0
 353 -81.638671875 350.166992188 -84.3701171875 348.5 -85.8603515625 c 0
 346.833007812 -87.349609375 344.333007812 -89.3369140625 341 -91.8203125 c 0
 337.666992188 -94.3037109375 334.833007812 -96.0419921875 332.5 -97.03515625 c 0
 330.166992188 -98.0283203125 327.333007812 -99.021484375 324 -100.014648438 c 0
 320.666992188 -101.008789062 317 -101.504882812 313 -101.504882812 c 256
 298.333007812 -101.504882812 286.166992188 -94.0546875 276.5 -79.1552734375 c 0
 266.833007812 -64.2548828125 262 -45.8779296875 262 -24.025390625 c 258
 262 546.64453125 l 257
 262 607.735351562 l 258
 262 609.224609375 262 609.224609375 262 619.655273438 c 0
 262 630.084960938 262 630.084960938 262 632.3203125 c 0
 262 633.809570312 262.166992188 637.53515625 262.5 643.495117188 c 0
 262.833007812 649.455078125 263.166992188 653.428710938 263.5 655.415039062 c 0
 263.833007812 657.401367188 264.333007812 660.629882812 265 665.099609375 c 0
 265.666992188 669.5703125 266.666992188 673.046875 268 675.530273438 c 0
 269.333007812 678.013671875 270.666992188 680.993164062 272 684.469726562 c 0
 273.333007812 687.946289062 275 690.926757812 277 693.41015625 c 0
 279 695.893554688 281.333007812 698.625 284 701.60546875 c 256
 288 705.578125 292.333007812 709.0546875 297 712.03515625 c 256
 302.333007812 715.014648438 309 716.504882812 317 716.504882812 c 256
 320.333007812 716.504882812 323.666992188 716.008789062 327 715.014648438 c 0
 330.333007812 714.021484375 334 711.787109375 338 708.309570312 c 0
 342 704.833007812 344.833007812 702.349609375 346.5 700.860351562 c 0
 348.166992188 699.370117188 351.5 696.141601562 356.5 691.174804688 c 0
 361.5 686.208007812 364.666992188 683.228515625 366 682.235351562 c 258
 384 667.334960938 l 257
 412 639.025390625 l 257
 450 606.245117188 l 257
 487 570.485351562 l 257
 500 558.565429688 l 257
 545 515.35546875 l 257
 563 500.455078125 l 257
 579 484.065429688 l 257
 621 446.815429688 l 257
 621 637.53515625 l 258
 621 661.375 626.166992188 680.497070312 636.5 694.900390625 c 0
 646.833007812 709.303710938 659.666992188 716.504882812 675 716.504882812 c 256
 682.333007812 716.504882812 689.333007812 714.021484375 696 709.0546875 c 0
 702.666992188 704.087890625 710 697.383789062 718 688.940429688 c 0
 726 680.497070312 732.333007812 674.78515625 737 671.8046875 c 258
 762 647.96484375 l 257
 780 631.575195312 l 257
 792 619.655273438 l 257
 807 607.735351562 l 257
 845 570.485351562 l 257
 858 558.565429688 l 257
 903 515.35546875 l 257
 925 497.474609375 l 257
 941 481.084960938 l 257
 952 472.14453125 l 257
 972 451.28515625 l 257
 995 431.915039062 l 257
 1013 414.03515625 l 257
 1026 402.115234375 l 257
 1048 381.254882812 l 257
 1059 369.334960938 l 258
 1072.33300781 353.44140625 1079.33300781 331.587890625 1080 303.775390625 c 256
 1080 279.934570312 1073.33300781 260.068359375 1060 244.174804688 c 258
 1048 232.254882812 l 257
 1031 217.35546875 l 257
 1013 200.96484375 l 257
 995 181.594726562 l 257
 972 162.224609375 l 257
 952 142.85546875 l 257
 941 132.424804688 l 257
 924 116.03515625 l 257
 904 99.64453125 l 257
 880 75.8046875 l 257
 845 43.025390625 l 257
 808 7.2646484375 l 257
 792 -6.14453125 l 257
 780 -18.0654296875 l 257
 762 -32.96484375 l 257
 737 -58.294921875 l 258
 732.333007812 -61.275390625 725.833007812 -67.2353515625 717.5 -76.1748046875 c 0
 709.166992188 -85.115234375 701.5 -91.5712890625 694.5 -95.544921875 c 0
 687.5 -99.5185546875 679.666992188 -101.504882812 671 -101.504882812 c 256
 656.333007812 -101.504882812 644.333007812 -94.0546875 635 -79.1552734375 c 0
 625.666992188 -64.2548828125 621 -45.8779296875 621 -24.025390625 c 258
 621 166.6953125 l 257
EndSplineSet
Validated: 1
EndChar

StartChar: degree
Encoding: 176 176 92
Width: 814
VWidth: 787
Flags: HW
LayerCount: 2
Fore
SplineSet
740.169921875 33.634765625 m 262
 751.336914062 34.08203125 759.934570312 37.7666015625 765.96484375 44.6904296875 c 4
 771.995117188 51.61328125 775.009765625 59.98828125 775.009765625 69.8154296875 c 260
 775.009765625 75.6220703125 771.436523438 84.7783203125 764.290039062 97.28515625 c 260
 762.502929688 99.96484375 754.91015625 113.365234375 741.509765625 137.485351562 c 4
 728.110351562 161.60546875 717.836914062 179.91796875 710.690429688 192.424804688 c 260
 686.5703125 236.198242188 672.052734375 262.10546875 667.139648438 270.14453125 c 262
 614.209960938 363.9453125 l 262
 613.762695312 364.837890625 610.860351562 370.198242188 605.5 380.025390625 c 4
 600.139648438 389.8515625 594.221679688 400.34765625 587.745117188 411.514648438 c 4
 581.268554688 422.681640625 575.349609375 432.955078125 569.990234375 442.334960938 c 262
 561.950195312 456.405273438 l 262
 551.23046875 475.165039062 535.373046875 503.528320312 514.379882812 541.495117188 c 262
 505.669921875 556.905273438 l 262
 502.990234375 561.818359375 500.64453125 565.615234375 498.634765625 568.294921875 c 4
 496.625 570.974609375 493.163085938 573.990234375 488.25 577.33984375 c 4
 483.336914062 580.690429688 477.530273438 582.365234375 470.830078125 582.365234375 c 260
 461.002929688 582.365234375 453.856445312 580.01953125 449.389648438 575.330078125 c 4
 444.922851562 570.639648438 439.33984375 562.264648438 432.639648438 550.205078125 c 260
 423.70703125 533.677734375 401.8203125 494.372070312 366.98046875 432.28515625 c 260
 357.153320312 416.205078125 348.889648438 401.688476562 342.190429688 388.735351562 c 260
 322.983398438 354.788085938 312.262695312 335.8046875 310.030273438 331.78515625 c 261
 309.360351562 331.78515625 l 261
 308.466796875 328.658203125 305.33984375 322.516601562 299.98046875 313.360351562 c 4
 294.620117188 304.203125 288.032226562 292.813476562 280.21484375 279.190429688 c 4
 272.3984375 265.56640625 266.033203125 254.288085938 261.120117188 245.35546875 c 260
 257.099609375 237.315429688 251.405273438 226.9296875 244.03515625 214.200195312 c 4
 236.665039062 201.469726562 227.842773438 186.171875 217.5703125 168.3046875 c 260
 207.743164062 151.778320312 197.693359375 133.912109375 187.419921875 114.705078125 c 260
 182.059570312 105.771484375 178.487304688 99.294921875 176.700195312 95.275390625 c 260
 170.893554688 84.1083984375 167.990234375 75.1748046875 167.990234375 68.474609375 c 260
 167.990234375 58.6484375 171.33984375 50.4970703125 178.040039062 44.01953125 c 4
 184.740234375 37.54296875 193.002929688 34.08203125 202.830078125 33.634765625 c 262
 740.169921875 33.634765625 l 262
EndSplineSet
Validated: 9
EndChar

StartChar: plusminus
Encoding: 177 177 93
Width: 814
VWidth: 787
Flags: HW
LayerCount: 2
Fore
SplineSet
740.169921875 582.365234375 m 262
 751.336914062 581.91796875 759.934570312 578.233398438 765.96484375 571.309570312 c 4
 771.995117188 564.38671875 775.009765625 556.01171875 775.009765625 546.184570312 c 260
 775.009765625 540.377929688 771.436523438 531.221679688 764.290039062 518.71484375 c 260
 762.502929688 516.03515625 754.91015625 502.634765625 741.509765625 478.514648438 c 4
 728.110351562 454.39453125 717.836914062 436.08203125 710.690429688 423.575195312 c 260
 686.5703125 379.801757812 672.052734375 353.89453125 667.139648438 345.85546875 c 262
 614.209960938 252.0546875 l 262
 613.762695312 251.162109375 610.860351562 245.801757812 605.5 235.974609375 c 4
 600.139648438 226.1484375 594.221679688 215.65234375 587.745117188 204.485351562 c 4
 581.268554688 193.318359375 575.349609375 183.044921875 569.990234375 173.665039062 c 262
 561.950195312 159.594726562 l 262
 551.23046875 140.834960938 535.373046875 112.471679688 514.379882812 74.5048828125 c 262
 505.669921875 59.0947265625 l 262
 502.990234375 54.181640625 500.64453125 50.384765625 498.634765625 47.705078125 c 4
 496.625 45.025390625 493.163085938 42.009765625 488.25 38.66015625 c 4
 483.336914062 35.3095703125 477.530273438 33.634765625 470.830078125 33.634765625 c 260
 461.002929688 33.634765625 453.856445312 35.98046875 449.389648438 40.669921875 c 4
 444.922851562 45.3603515625 439.33984375 53.7353515625 432.639648438 65.794921875 c 260
 423.70703125 82.322265625 401.8203125 121.627929688 366.98046875 183.71484375 c 260
 357.153320312 199.794921875 348.889648438 214.311523438 342.190429688 227.264648438 c 260
 322.983398438 261.211914062 312.262695312 280.1953125 310.030273438 284.21484375 c 261
 309.360351562 284.21484375 l 261
 308.466796875 287.341796875 305.33984375 293.483398438 299.98046875 302.639648438 c 4
 294.620117188 311.796875 288.032226562 323.186523438 280.21484375 336.809570312 c 4
 272.3984375 350.43359375 266.033203125 361.711914062 261.120117188 370.64453125 c 260
 257.099609375 378.684570312 251.405273438 389.0703125 244.03515625 401.799804688 c 4
 236.665039062 414.530273438 227.842773438 429.828125 217.5703125 447.6953125 c 260
 207.743164062 464.221679688 197.693359375 482.087890625 187.419921875 501.294921875 c 260
 182.059570312 510.228515625 178.487304688 516.705078125 176.700195312 520.724609375 c 260
 170.893554688 531.891601562 167.990234375 540.825195312 167.990234375 547.525390625 c 260
 167.990234375 557.3515625 171.33984375 565.502929688 178.040039062 571.98046875 c 4
 184.740234375 578.45703125 193.002929688 581.91796875 202.830078125 582.365234375 c 262
 740.169921875 582.365234375 l 262
EndSplineSet
Validated: 1
EndChar

StartChar: uni00B2
Encoding: 178 178 94
Width: 815
VWidth: 787
Flags: HW
VStem: 197.3 103.18<39.4948 575.769>
LayerCount: 2
Fore
SplineSet
746.365234375 533.290039062 m 257
 745.6953125 509.83984375 l 258
 745.6953125 500.459960938 745.6953125 500.459960938 738.325195312 491.080078125 c 256
 729.615234375 479.01953125 729.615234375 479.01953125 709.514648438 479.01953125 c 258
 615.044921875 479.01953125 l 257
 235.155273438 479.01953125 l 258
 227.115234375 479.01953125 227.115234375 479.01953125 221.084960938 480.360351562 c 256
 216.39453125 481.700195312 216.39453125 481.700195312 212.375 484.379882812 c 256
 202.995117188 491.080078125 202.995117188 491.080078125 200.315429688 500.125 c 0
 197.634765625 509.169921875 197.634765625 509.169921875 197.634765625 523.91015625 c 258
 197.634765625 542.669921875 l 258
 197.634765625 570.139648438 197.634765625 570.139648438 217.735351562 578.1796875 c 256
 225.10546875 581.530273438 225.10546875 581.530273438 253.245117188 582.200195312 c 258
 314.884765625 582.200195312 l 257
 648.544921875 582.200195312 l 257
 693.434570312 582.200195312 l 258
 715.544921875 582.200195312 715.544921875 582.200195312 720.905273438 580.860351562 c 256
 737.655273438 576.83984375 737.655273438 576.83984375 743.684570312 561.4296875 c 256
 746.365234375 553.389648438 746.365234375 553.389648438 746.365234375 537.309570312 c 258
 746.365234375 533.290039062 l 257
726.264648438 62.2802734375 m 256
 723.584960938 48.8798828125 723.584960938 48.8798828125 714.205078125 40.83984375 c 0
 704.825195312 32.7998046875 704.825195312 32.7998046875 691.424804688 32.7998046875 c 258
 611.6953125 32.7998046875 l 257
 245.875 32.7998046875 l 258
 231.134765625 32.7998046875 231.134765625 32.7998046875 221.084960938 42.5146484375 c 0
 211.03515625 52.23046875 211.03515625 52.23046875 211.03515625 66.9697265625 c 256
 211.03515625 70.990234375 211.03515625 70.990234375 211.370117188 74.33984375 c 0
 211.705078125 77.6904296875 211.705078125 77.6904296875 213.379882812 81.375 c 0
 215.0546875 85.0595703125 215.0546875 85.0595703125 216.059570312 87.0703125 c 0
 217.065429688 89.080078125 217.065429688 89.080078125 219.745117188 93.76953125 c 0
 222.424804688 98.4599609375 222.424804688 98.4599609375 224.434570312 100.469726562 c 258
 258.60546875 156.080078125 l 257
 311.53515625 241.83984375 l 257
 349.724609375 304.150390625 l 257
 397.96484375 382.540039062 l 257
 433.474609375 440.830078125 l 258
 438.834960938 449.540039062 438.834960938 449.540039062 442.184570312 453.559570312 c 0
 445.53515625 457.580078125 445.53515625 457.580078125 452.235351562 461.934570312 c 0
 458.934570312 466.290039062 458.934570312 466.290039062 467.64453125 466.290039062 c 256
 485.065429688 466.290039062 485.065429688 466.290039062 495.115234375 454.23046875 c 256
 497.125 452.219726562 497.125 452.219726562 505.165039062 438.8203125 c 258
 522.584960938 410.6796875 l 257
 604.325195312 278.01953125 l 257
 634.474609375 228.440429688 l 257
 688.075195312 142.009765625 l 257
 701.474609375 119.23046875 l 257
 716.884765625 95.1103515625 l 258
 717.5546875 94.4404296875 717.5546875 94.4404296875 719.23046875 90.7548828125 c 0
 720.905273438 87.0703125 720.905273438 87.0703125 721.240234375 86.400390625 c 0
 721.575195312 85.73046875 721.575195312 85.73046875 722.915039062 83.0498046875 c 0
 724.254882812 80.3701171875 724.254882812 80.3701171875 724.58984375 79.365234375 c 0
 724.924804688 78.3603515625 724.924804688 78.3603515625 725.594726562 76.0146484375 c 0
 726.264648438 73.669921875 726.264648438 73.669921875 726.264648438 71.9951171875 c 0
 726.264648438 70.3203125 726.264648438 70.3203125 726.264648438 67.6396484375 c 0
 726.264648438 64.9599609375 726.264648438 64.9599609375 726.264648438 62.2802734375 c 256
EndSplineSet
Validated: 1
EndChar

StartChar: uni00B3
Encoding: 179 179 95
Width: 815
VWidth: 787
Flags: HW
VStem: 643.52 103.18<39.1186 575.988>
LayerCount: 2
Fore
SplineSet
746.458984375 81.5693359375 m 257
 746.458984375 77.5498046875 l 258
 746.458984375 61.4697265625 746.458984375 61.4697265625 743.779296875 53.4296875 c 256
 737.749023438 38.01953125 737.749023438 38.01953125 720.999023438 33.9990234375 c 256
 715.639648438 32.6591796875 715.639648438 32.6591796875 693.529296875 32.6591796875 c 258
 648.639648438 32.6591796875 l 257
 314.979492188 32.6591796875 l 257
 253.338867188 32.6591796875 l 258
 225.869140625 32.6591796875 225.869140625 32.6591796875 217.829101562 35.33984375 c 256
 200.221679688 42.72265625 197.541015625 43.84765625 197.541015625 61.162109375 c 0
 197.541015625 64.2724609375 197.626953125 67.9052734375 197.729492188 72.189453125 c 258
 197.729492188 90.94921875 l 258
 197.729492188 100.329101562 197.729492188 100.329101562 198.399414062 106.024414062 c 0
 199.069335938 111.719726562 199.069335938 111.719726562 202.418945312 118.75390625 c 0
 205.76953125 125.7890625 205.76953125 125.7890625 212.46875 129.809570312 c 256
 216.489257812 133.159179688 216.489257812 133.159179688 221.1796875 134.499023438 c 256
 226.5390625 135.83984375 226.5390625 135.83984375 235.249023438 135.83984375 c 258
 615.139648438 135.83984375 l 257
 709.609375 135.83984375 l 258
 729.708984375 135.83984375 729.708984375 135.83984375 738.418945312 123.779296875 c 256
 745.7890625 115.069335938 745.7890625 115.069335938 745.7890625 105.01953125 c 258
 746.458984375 81.5693359375 l 257
726.359375 552.579101562 m 256
 726.359375 549.899414062 726.359375 549.899414062 726.359375 547.219726562 c 0
 726.359375 544.5390625 726.359375 544.5390625 726.359375 542.864257812 c 0
 726.359375 541.189453125 726.359375 541.189453125 725.689453125 538.844726562 c 0
 725.01953125 536.499023438 725.01953125 536.499023438 724.684570312 535.494140625 c 0
 724.349609375 534.489257812 724.349609375 534.489257812 723.008789062 531.809570312 c 0
 721.668945312 529.12890625 721.668945312 529.12890625 721.333984375 528.458984375 c 0
 720.999023438 527.7890625 720.999023438 527.7890625 719.32421875 524.104492188 c 0
 717.649414062 520.418945312 717.649414062 520.418945312 716.979492188 519.749023438 c 258
 701.569335938 495.62890625 l 257
 688.168945312 472.849609375 l 257
 634.569335938 386.418945312 l 257
 604.418945312 336.83984375 l 257
 522.6796875 204.1796875 l 257
 505.258789062 176.0390625 l 258
 497.21875 162.639648438 497.21875 162.639648438 495.208984375 160.62890625 c 256
 485.159179688 149.239257812 485.159179688 149.239257812 467.739257812 148.569335938 c 256
 459.029296875 148.569335938 459.029296875 148.569335938 452.329101562 152.924804688 c 0
 445.62890625 157.279296875 445.62890625 157.279296875 442.279296875 161.299804688 c 0
 438.9296875 165.319335938 438.9296875 165.319335938 433.569335938 174.029296875 c 258
 398.059570312 232.319335938 l 257
 349.819335938 310.708984375 l 257
 311.62890625 373.01953125 l 257
 258.69921875 458.779296875 l 257
 224.529296875 514.389648438 l 258
 223.189453125 516.399414062 223.189453125 516.399414062 220.173828125 521.08984375 c 0
 217.159179688 525.779296875 217.159179688 525.779296875 216.154296875 527.7890625 c 0
 215.149414062 529.799804688 215.149414062 529.799804688 213.474609375 533.149414062 c 0
 211.798828125 536.499023438 211.798828125 536.499023438 211.463867188 540.184570312 c 0
 211.12890625 543.869140625 211.12890625 543.869140625 211.12890625 547.889648438 c 256
 211.12890625 562.62890625 211.12890625 562.62890625 221.514648438 572.344726562 c 0
 231.899414062 582.059570312 231.899414062 582.059570312 245.96875 582.059570312 c 258
 611.7890625 582.059570312 l 257
 691.51953125 582.059570312 l 258
 704.918945312 582.059570312 704.918945312 582.059570312 714.298828125 574.01953125 c 0
 723.6796875 565.979492188 723.6796875 565.979492188 726.359375 552.579101562 c 256
EndSplineSet
Validated: 1
EndChar

StartChar: acute
Encoding: 180 180 96
Width: 814
VWidth: 1022
Flags: HW
LayerCount: 2
Fore
SplineSet
376.661132812 274 m 257
 248.877929688 274 l 258
 226.916015625 274 226.916015625 274 211.94140625 283.71484375 c 0
 196.966796875 293.4296875 196.966796875 293.4296875 196.966796875 307.5 c 256
 196.966796875 316.209960938 196.966796875 316.209960938 200.959960938 323.245117188 c 0
 204.953125 330.280273438 204.953125 330.280273438 213.9375 338.3203125 c 0
 222.922851562 346.360351562 222.922851562 346.360351562 225.916992188 351.719726562 c 258
 242.888671875 368.469726562 l 257
 252.87109375 380.530273438 l 257
 260.858398438 388.5703125 l 257
 269.842773438 399.290039062 l 257
 293.801757812 424.080078125 l 257
 315.763671875 447.530273438 l 257
 331.737304688 463.610351562 l 257
 342.71875 477.009765625 l 257
 353.69921875 488.400390625 l 257
 360.688476562 495.76953125 l 257
 373.665039062 509.169921875 l 257
 386.643554688 524.580078125 l 257
 399.62109375 536.639648438 l 257
 410.603515625 548.700195312 l 257
 420.5859375 560.08984375 l 257
 428.572265625 568.129882812 l 258
 444.544921875 580.860351562 444.544921875 580.860351562 468.504882812 581.530273438 c 256
 496.45703125 581.530273438 496.45703125 581.530273438 512.4296875 567.459960938 c 258
 520.416015625 560.08984375 l 257
 534.392578125 545.349609375 l 257
 542.37890625 536.639648438 l 257
 554.358398438 524.580078125 l 257
 567.3359375 509.169921875 l 257
 581.311523438 495.76953125 l 257
 587.301757812 488.400390625 l 257
 598.283203125 477.6796875 l 257
 610.262695312 462.940429688 l 257
 639.213867188 432.790039062 l 257
 647.200195312 424.080078125 l 257
 672.157226562 398.620117188 l 257
 680.143554688 388.5703125 l 257
 688.130859375 380.530273438 l 257
 699.111328125 368.469726562 l 257
 715.083984375 351.719726562 l 258
 718.079101562 347.700195312 718.079101562 347.700195312 726.565429688 339.325195312 c 0
 735.05078125 330.950195312 735.05078125 330.950195312 740.041992188 324.25 c 0
 745.033203125 317.549804688 745.033203125 317.549804688 745.033203125 310.1796875 c 256
 745.033203125 294.099609375 745.033203125 294.099609375 730.55859375 284.049804688 c 0
 716.083007812 274 716.083007812 274 692.124023438 274 c 258
 564.341796875 274 l 257
 589.298828125 245.860351562 l 257
 600.280273438 235.809570312 l 257
 610.262695312 223.080078125 l 257
 639.213867188 192.9296875 l 257
 647.200195312 184.219726562 l 257
 671.159179688 159.4296875 l 257
 693.122070312 133.969726562 l 257
 712.08984375 115.209960938 l 257
 722.072265625 103.150390625 l 258
 723.0703125 102.48046875 723.0703125 102.48046875 728.0625 97.1201171875 c 0
 733.053710938 91.759765625 733.053710938 91.759765625 734.551757812 90.0849609375 c 0
 736.048828125 88.41015625 736.048828125 88.41015625 739.541992188 84.3896484375 c 0
 743.037109375 80.3701171875 743.037109375 80.3701171875 744.03515625 77.01953125 c 0
 745.033203125 73.669921875 745.033203125 73.669921875 745.033203125 70.3203125 c 256
 745.033203125 62.9501953125 745.033203125 62.9501953125 742.038085938 56.919921875 c 256
 740.041992188 52.23046875 740.041992188 52.23046875 735.05078125 48.2099609375 c 256
 727.063476562 40.83984375 727.063476562 40.83984375 715.583007812 37.1552734375 c 0
 704.103515625 33.4697265625 704.103515625 33.4697265625 698.11328125 33.4697265625 c 0
 692.124023438 33.4697265625 692.124023438 33.4697265625 672.157226562 33.4697265625 c 258
 631.2265625 33.4697265625 l 257
 248.877929688 33.4697265625 l 258
 226.916015625 33.4697265625 226.916015625 33.4697265625 211.94140625 43.1845703125 c 0
 196.966796875 52.900390625 196.966796875 52.900390625 196.966796875 67.6396484375 c 256
 196.966796875 72.330078125 196.966796875 72.330078125 197.96484375 75.6796875 c 0
 198.962890625 79.0302734375 198.962890625 79.0302734375 201.458984375 83.384765625 c 0
 203.955078125 87.740234375 203.955078125 87.740234375 205.452148438 89.080078125 c 0
 206.94921875 90.419921875 206.94921875 90.419921875 212.440429688 96.115234375 c 0
 217.930664062 101.809570312 217.930664062 101.809570312 218.9296875 103.150390625 c 258
 229.91015625 115.209960938 l 257
 246.881835938 133.299804688 l 257
 271.838867188 160.099609375 l 257
 294.799804688 184.889648438 l 257
 305.78125 197.620117188 l 257
 330.739257812 223.080078125 l 257
 340.721679688 234.469726562 l 257
 351.703125 245.860351562 l 257
 360.688476562 255.240234375 l 258
 374.6640625 271.3203125 374.6640625 271.3203125 376.661132812 274 c 257
EndSplineSet
Validated: 1
EndChar

StartChar: mu
Encoding: 181 181 97
Width: 814
VWidth: 1022
Flags: HW
LayerCount: 2
Fore
SplineSet
376.661132812 341 m 257
 375.329101562 342.787109375 370.004882812 349.040039062 360.688476562 359.759765625 c 258
 351.703125 369.139648438 l 257
 340.721679688 380.530273438 l 257
 330.739257812 391.919921875 l 257
 305.78125 417.379882812 l 257
 294.799804688 430.110351562 l 257
 271.838867188 454.900390625 l 257
 246.881835938 481.700195312 l 257
 229.91015625 499.790039062 l 257
 218.9296875 511.849609375 l 258
 216.932617188 513.860351562 216.932617188 513.860351562 212.939453125 517.879882812 c 0
 210.27734375 520.559570312 208.447265625 522.458007812 207.448242188 523.575195312 c 0
 206.451171875 524.69140625 205.119140625 526.3671875 203.455078125 528.599609375 c 0
 201.791992188 530.833007812 200.626953125 532.731445312 199.961914062 534.294921875 c 0
 199.295898438 535.858398438 198.630859375 537.756835938 197.96484375 539.990234375 c 0
 197.298828125 542.22265625 196.966796875 544.6796875 196.966796875 547.360351562 c 256
 196.966796875 557.186523438 201.958007812 565.337890625 211.94140625 571.815429688 c 0
 221.923828125 578.291992188 234.236328125 581.530273438 248.877929688 581.530273438 c 258
 631.2265625 581.530273438 l 257
 672.157226562 581.530273438 l 258
 673.155273438 581.530273438 673.155273438 581.530273438 680.143554688 581.530273438 c 0
 687.131835938 581.530273438 687.131835938 581.530273438 688.629882812 581.530273438 c 0
 689.626953125 581.530273438 692.124023438 581.41796875 696.1171875 581.1953125 c 0
 700.110351562 580.971679688 702.772460938 580.748046875 704.103515625 580.525390625 c 0
 705.43359375 580.301757812 707.596679688 579.966796875 710.591796875 579.51953125 c 0
 713.586914062 579.073242188 715.916015625 578.403320312 717.580078125 577.509765625 c 0
 719.244140625 576.6171875 721.240234375 575.72265625 723.569335938 574.830078125 c 0
 725.899414062 573.936523438 727.895507812 572.8203125 729.559570312 571.48046875 c 0
 731.223632812 570.139648438 733.053710938 568.577148438 735.05078125 566.790039062 c 256
 737.711914062 564.110351562 740.041992188 561.20703125 742.038085938 558.080078125 c 256
 744.03515625 554.506835938 745.033203125 550.040039062 745.033203125 544.6796875 c 256
 745.033203125 542.447265625 744.701171875 540.212890625 744.03515625 537.98046875 c 0
 743.369140625 535.747070312 741.872070312 533.290039062 739.541992188 530.610351562 c 0
 737.212890625 527.9296875 735.548828125 526.032226562 734.551757812 524.915039062 c 0
 733.552734375 523.797851562 731.389648438 521.565429688 728.0625 518.21484375 c 0
 724.734375 514.865234375 722.73828125 512.743164062 722.072265625 511.849609375 c 258
 712.08984375 499.790039062 l 257
 693.122070312 481.030273438 l 257
 671.159179688 455.5703125 l 257
 647.200195312 430.780273438 l 257
 639.213867188 422.0703125 l 257
 610.262695312 391.919921875 l 257
 600.280273438 379.860351562 l 257
 589.298828125 369.139648438 l 257
 564.341796875 341 l 257
 692.124023438 341 l 258
 708.096679688 341 720.908203125 337.538085938 730.55859375 330.615234375 c 0
 740.208007812 323.69140625 745.033203125 315.092773438 745.033203125 304.8203125 c 256
 745.033203125 299.907226562 743.369140625 295.216796875 740.041992188 290.75 c 0
 736.713867188 286.283203125 732.221679688 281.370117188 726.565429688 276.009765625 c 0
 720.908203125 270.650390625 717.081054688 266.407226562 715.083984375 263.280273438 c 258
 699.111328125 246.530273438 l 257
 688.130859375 234.469726562 l 257
 680.143554688 226.4296875 l 257
 672.157226562 216.379882812 l 257
 647.200195312 190.919921875 l 257
 639.213867188 182.209960938 l 257
 610.262695312 152.059570312 l 257
 598.283203125 137.3203125 l 257
 587.301757812 126.599609375 l 257
 581.311523438 119.23046875 l 257
 567.3359375 105.830078125 l 257
 554.358398438 90.419921875 l 257
 542.37890625 78.3603515625 l 257
 534.392578125 69.650390625 l 257
 520.416015625 54.91015625 l 257
 512.4296875 47.5400390625 l 258
 501.780273438 38.6064453125 487.138671875 33.9169921875 468.504882812 33.4697265625 c 256
 452.53125 33.4697265625 439.220703125 37.9365234375 428.572265625 46.8701171875 c 258
 420.5859375 54.91015625 l 257
 410.603515625 66.2998046875 l 257
 399.62109375 78.3603515625 l 257
 386.643554688 90.419921875 l 257
 373.665039062 105.830078125 l 257
 360.688476562 119.23046875 l 257
 353.69921875 126.599609375 l 257
 342.71875 137.990234375 l 257
 331.737304688 151.389648438 l 257
 315.763671875 167.469726562 l 257
 293.801757812 190.919921875 l 257
 269.842773438 215.709960938 l 257
 260.858398438 226.4296875 l 257
 252.87109375 234.469726562 l 257
 242.888671875 246.530273438 l 257
 225.916992188 263.280273438 l 258
 223.920898438 266.407226562 219.927734375 270.76171875 213.9375 276.344726562 c 0
 207.948242188 281.927734375 203.622070312 287.065429688 200.959960938 291.754882812 c 0
 198.297851562 296.4453125 196.966796875 301.693359375 196.966796875 307.5 c 256
 196.966796875 317.327148438 201.958007812 325.3671875 211.94140625 331.620117188 c 0
 221.923828125 337.873046875 234.236328125 341 248.877929688 341 c 258
 376.661132812 341 l 257
EndSplineSet
Validated: 1
EndChar

StartChar: uni00B9
Encoding: 185 185 98
Width: 1000
Flags: HW
LayerCount: 2
Fore
SplineSet
901 717.5 m 262
 917.666992188 716.833007812 930.5 711.333007812 939.5 701 c 4
 948.5 690.666992188 953 678.166992188 953 663.5 c 260
 953 654.833007812 947.666992188 641.166992188 937 622.5 c 260
 934.333007812 618.5 923 598.5 903 562.5 c 4
 883 526.5 867.666992188 499.166992188 857 480.5 c 260
 821 415.166992188 799.333007812 376.5 792 364.5 c 262
 713 224.5 l 262
 712.333007812 223.166992188 708 215.166992188 700 200.5 c 4
 692 185.833007812 683.166992188 170.166992188 673.5 153.5 c 4
 663.833007812 136.833007812 655 121.5 647 107.5 c 262
 635 86.5 l 262
 619 58.5 595.333007812 16.1669921875 564 -40.5 c 262
 551 -63.5 l 262
 547 -70.8330078125 543.5 -76.5 540.5 -80.5 c 4
 537.5 -84.5 532.333007812 -89 525 -94 c 4
 517.666992188 -99 509 -101.5 499 -101.5 c 260
 484.333007812 -101.5 473.666992188 -98 467 -91 c 4
 460.333007812 -84 452 -71.5 442 -53.5 c 260
 428.666992188 -28.8330078125 396 29.8330078125 344 122.5 c 260
 329.333007812 146.5 317 168.166992188 307 187.5 c 260
 278.333007812 238.166992188 262.333007812 266.5 259 272.5 c 261
 258 272.5 l 261
 256.666992188 277.166992188 252 286.333007812 244 300 c 4
 236 313.666992188 226.166992188 330.666992188 214.5 351 c 4
 202.833007812 371.333007812 193.333007812 388.166992188 186 401.5 c 260
 180 413.5 171.5 429 160.5 448 c 4
 149.5 467 136.333007812 489.833007812 121 516.5 c 260
 106.333007812 541.166992188 91.3330078125 567.833007812 76 596.5 c 260
 68 609.833007812 62.6669921875 619.5 60 625.5 c 260
 51.3330078125 642.166992188 47 655.5 47 665.5 c 260
 47 680.166992188 52 692.333007812 62 702 c 4
 72 711.666992188 84.3330078125 716.833007812 99 717.5 c 262
 901 717.5 l 262
EndSplineSet
Validated: 1
EndChar

StartChar: ordmasculine
Encoding: 186 186 99
Width: 1104
Flags: HW
VStem: 182 154<-92.5078 707.902>
LayerCount: 2
Fore
SplineSet
1001.5 644.5 m 257
 1000.5 609.5 l 258
 1000.5 595.5 1000.5 595.5 989.5 581.5 c 256
 976.5 563.5 976.5 563.5 946.5 563.5 c 258
 805.5 563.5 l 257
 238.5 563.5 l 258
 226.5 563.5 226.5 563.5 217.5 565.5 c 256
 210.5 567.5 210.5 567.5 204.5 571.5 c 256
 190.5 581.5 190.5 581.5 186.5 595 c 0
 182.5 608.5 182.5 608.5 182.5 630.5 c 258
 182.5 658.5 l 258
 182.5 699.5 182.5 699.5 212.5 711.5 c 256
 223.5 716.5 223.5 716.5 265.5 717.5 c 258
 357.5 717.5 l 257
 855.5 717.5 l 257
 922.5 717.5 l 258
 955.5 717.5 955.5 717.5 963.5 715.5 c 256
 988.5 709.5 988.5 709.5 997.5 686.5 c 256
 1001.5 674.5 1001.5 674.5 1001.5 650.5 c 258
 1001.5 644.5 l 257
971.5 -58.5 m 256
 967.5 -78.5 967.5 -78.5 953.5 -90.5 c 0
 939.5 -102.5 939.5 -102.5 919.5 -102.5 c 258
 800.5 -102.5 l 257
 254.5 -102.5 l 258
 232.5 -102.5 232.5 -102.5 217.5 -88 c 0
 202.5 -73.5 202.5 -73.5 202.5 -51.5 c 256
 202.5 -45.5 202.5 -45.5 203 -40.5 c 0
 203.5 -35.5 203.5 -35.5 206 -30 c 0
 208.5 -24.5 208.5 -24.5 210 -21.5 c 0
 211.5 -18.5 211.5 -18.5 215.5 -11.5 c 0
 219.5 -4.5 219.5 -4.5 222.5 -1.5 c 258
 273.5 81.5 l 257
 352.5 209.5 l 257
 409.5 302.5 l 257
 481.5 419.5 l 257
 534.5 506.5 l 258
 542.5 519.5 542.5 519.5 547.5 525.5 c 0
 552.5 531.5 552.5 531.5 562.5 538 c 0
 572.5 544.5 572.5 544.5 585.5 544.5 c 256
 611.5 544.5 611.5 544.5 626.5 526.5 c 256
 629.5 523.5 629.5 523.5 641.5 503.5 c 258
 667.5 461.5 l 257
 789.5 263.5 l 257
 834.5 189.5 l 257
 914.5 60.5 l 257
 934.5 26.5 l 257
 957.5 -9.5 l 258
 958.5 -10.5 958.5 -10.5 961 -16 c 0
 963.5 -21.5 963.5 -21.5 964 -22.5 c 0
 964.5 -23.5 964.5 -23.5 966.5 -27.5 c 0
 968.5 -31.5 968.5 -31.5 969 -33 c 0
 969.5 -34.5 969.5 -34.5 970.5 -38 c 0
 971.5 -41.5 971.5 -41.5 971.5 -44 c 0
 971.5 -46.5 971.5 -46.5 971.5 -50.5 c 0
 971.5 -54.5 971.5 -54.5 971.5 -58.5 c 256
EndSplineSet
Validated: 1
EndChar

StartChar: guillemotright
Encoding: 187 187 100
Width: 1104
Flags: W
VStem: 848 154<-93 708.297>
LayerCount: 2
Fore
SplineSet
1001.640625 -29.640625 m 257
 1001.640625 -35.640625 l 258
 1001.640625 -59.640625 1001.640625 -59.640625 997.640625 -71.640625 c 256
 988.640625 -94.640625 988.640625 -94.640625 963.640625 -100.640625 c 256
 955.640625 -102.640625 955.640625 -102.640625 922.640625 -102.640625 c 258
 855.640625 -102.640625 l 257
 357.640625 -102.640625 l 257
 265.640625 -102.640625 l 258
 224.640625 -102.640625 224.640625 -102.640625 212.640625 -98.640625 c 256
 186.360351562 -87.6201171875 182.359375 -85.9423828125 182.359375 -60.0986328125 c 0
 182.359375 -55.45703125 182.48828125 -50.03515625 182.640625 -43.640625 c 258
 182.640625 -15.640625 l 258
 182.640625 -1.640625 182.640625 -1.640625 183.640625 6.859375 c 0
 184.640625 15.359375 184.640625 15.359375 189.640625 25.859375 c 0
 194.640625 36.359375 194.640625 36.359375 204.640625 42.359375 c 256
 210.640625 47.359375 210.640625 47.359375 217.640625 49.359375 c 256
 225.640625 51.359375 225.640625 51.359375 238.640625 51.359375 c 258
 805.640625 51.359375 l 257
 946.640625 51.359375 l 258
 976.640625 51.359375 976.640625 51.359375 989.640625 33.359375 c 256
 1000.640625 20.359375 1000.640625 20.359375 1000.640625 5.359375 c 258
 1001.640625 -29.640625 l 257
971.640625 673.359375 m 256
 971.640625 669.359375 971.640625 669.359375 971.640625 665.359375 c 0
 971.640625 661.359375 971.640625 661.359375 971.640625 658.859375 c 0
 971.640625 656.359375 971.640625 656.359375 970.640625 652.859375 c 0
 969.640625 649.359375 969.640625 649.359375 969.140625 647.859375 c 0
 968.640625 646.359375 968.640625 646.359375 966.640625 642.359375 c 0
 964.640625 638.359375 964.640625 638.359375 964.140625 637.359375 c 0
 963.640625 636.359375 963.640625 636.359375 961.140625 630.859375 c 0
 958.640625 625.359375 958.640625 625.359375 957.640625 624.359375 c 258
 934.640625 588.359375 l 257
 914.640625 554.359375 l 257
 834.640625 425.359375 l 257
 789.640625 351.359375 l 257
 667.640625 153.359375 l 257
 641.640625 111.359375 l 258
 629.640625 91.359375 629.640625 91.359375 626.640625 88.359375 c 256
 611.640625 71.359375 611.640625 71.359375 585.640625 70.359375 c 256
 572.640625 70.359375 572.640625 70.359375 562.640625 76.859375 c 0
 552.640625 83.359375 552.640625 83.359375 547.640625 89.359375 c 0
 542.640625 95.359375 542.640625 95.359375 534.640625 108.359375 c 258
 481.640625 195.359375 l 257
 409.640625 312.359375 l 257
 352.640625 405.359375 l 257
 273.640625 533.359375 l 257
 222.640625 616.359375 l 258
 220.640625 619.359375 220.640625 619.359375 216.140625 626.359375 c 0
 211.640625 633.359375 211.640625 633.359375 210.140625 636.359375 c 0
 208.640625 639.359375 208.640625 639.359375 206.140625 644.359375 c 0
 203.640625 649.359375 203.640625 649.359375 203.140625 654.859375 c 0
 202.640625 660.359375 202.640625 660.359375 202.640625 666.359375 c 256
 202.640625 688.359375 202.640625 688.359375 218.140625 702.859375 c 0
 233.640625 717.359375 233.640625 717.359375 254.640625 717.359375 c 258
 800.640625 717.359375 l 257
 919.640625 717.359375 l 258
 939.640625 717.359375 939.640625 717.359375 953.640625 705.359375 c 0
 967.640625 693.359375 967.640625 693.359375 971.640625 673.359375 c 256
EndSplineSet
Validated: 1
EndChar

StartChar: cedilla
Encoding: 184 184 101
Width: 1000
Flags: HW
LayerCount: 2
Fore
SplineSet
901 -101.5 m 262
 917.666992188 -100.833007812 930.5 -95.3330078125 939.5 -85 c 4
 948.5 -74.6669921875 953 -62.1669921875 953 -47.5 c 260
 953 -38.8330078125 947.666992188 -25.1669921875 937 -6.5 c 260
 934.333007812 -2.5 923 17.5 903 53.5 c 4
 883 89.5 867.666992188 116.833007812 857 135.5 c 260
 821 200.833007812 799.333007812 239.5 792 251.5 c 262
 713 391.5 l 262
 712.333007812 392.833007812 708 400.833007812 700 415.5 c 4
 692 430.166992188 683.166992188 445.833007812 673.5 462.5 c 4
 663.833007812 479.166992188 655 494.5 647 508.5 c 262
 635 529.5 l 262
 619 557.5 595.333007812 599.833007812 564 656.5 c 262
 551 679.5 l 262
 547 686.833007812 543.5 692.5 540.5 696.5 c 4
 537.5 700.5 532.333007812 705 525 710 c 4
 517.666992188 715 509 717.5 499 717.5 c 260
 484.333007812 717.5 473.666992188 714 467 707 c 4
 460.333007812 700 452 687.5 442 669.5 c 260
 428.666992188 644.833007812 396 586.166992188 344 493.5 c 260
 329.333007812 469.5 317 447.833007812 307 428.5 c 260
 278.333007812 377.833007812 262.333007812 349.5 259 343.5 c 261
 258 343.5 l 261
 256.666992188 338.833007812 252 329.666992188 244 316 c 4
 236 302.333007812 226.166992188 285.333007812 214.5 265 c 4
 202.833007812 244.666992188 193.333007812 227.833007812 186 214.5 c 260
 180 202.5 171.5 187 160.5 168 c 4
 149.5 149 136.333007812 126.166992188 121 99.5 c 260
 106.333007812 74.8330078125 91.3330078125 48.1669921875 76 19.5 c 260
 68 6.1669921875 62.6669921875 -3.5 60 -9.5 c 260
 51.3330078125 -26.1669921875 47 -39.5 47 -49.5 c 260
 47 -64.1669921875 52 -76.3330078125 62 -86 c 4
 72 -95.6669921875 84.3330078125 -100.833007812 99 -101.5 c 262
 901 -101.5 l 262
EndSplineSet
Validated: 9
EndChar

StartChar: onequarter
Encoding: 188 188 102
Width: 1104
VWidth: 1375
Flags: HW
LayerCount: 2
Fore
SplineSet
450.1953125 257.5 m 257
 259.474609375 257.5 l 258
 226.6953125 257.5 226.6953125 257.5 204.344726562 272 c 0
 181.995117188 286.5 181.995117188 286.5 181.995117188 307.5 c 256
 181.995117188 320.5 181.995117188 320.5 187.955078125 331 c 0
 193.915039062 341.5 193.915039062 341.5 207.325195312 353.5 c 0
 220.735351562 365.5 220.735351562 365.5 225.205078125 373.5 c 258
 250.53515625 398.5 l 257
 265.434570312 416.5 l 257
 277.35546875 428.5 l 257
 290.764648438 444.5 l 257
 326.525390625 481.5 l 257
 359.3046875 516.5 l 257
 383.14453125 540.5 l 257
 399.53515625 560.5 l 257
 415.924804688 577.5 l 257
 426.35546875 588.5 l 257
 445.724609375 608.5 l 257
 465.094726562 631.5 l 257
 484.46484375 649.5 l 257
 500.85546875 667.5 l 257
 515.754882812 684.5 l 257
 527.674804688 696.5 l 258
 551.514648438 715.5 551.514648438 715.5 587.275390625 716.5 c 256
 628.995117188 716.5 628.995117188 716.5 652.834960938 695.5 c 258
 664.754882812 684.5 l 257
 685.615234375 662.5 l 257
 697.53515625 649.5 l 257
 715.415039062 631.5 l 257
 734.78515625 608.5 l 257
 755.64453125 588.5 l 257
 764.584960938 577.5 l 257
 780.974609375 561.5 l 257
 798.85546875 539.5 l 257
 842.065429688 494.5 l 257
 853.985351562 481.5 l 257
 891.235351562 443.5 l 257
 903.155273438 428.5 l 257
 915.075195312 416.5 l 257
 931.46484375 398.5 l 257
 955.3046875 373.5 l 258
 959.775390625 367.5 959.775390625 367.5 972.440429688 355 c 0
 985.10546875 342.5 985.10546875 342.5 992.5546875 332.5 c 0
 1000.00488281 322.5 1000.00488281 322.5 1000.00488281 311.5 c 256
 1000.00488281 287.5 1000.00488281 287.5 978.400390625 272.5 c 0
 956.794921875 257.5 956.794921875 257.5 921.03515625 257.5 c 258
 730.315429688 257.5 l 257
 767.565429688 215.5 l 257
 783.955078125 200.5 l 257
 798.85546875 181.5 l 257
 842.065429688 136.5 l 257
 853.985351562 123.5 l 257
 889.745117188 86.5 l 257
 922.525390625 48.5 l 257
 950.834960938 20.5 l 257
 965.735351562 2.5 l 258
 967.224609375 1.5 967.224609375 1.5 974.674804688 -6.5 c 0
 982.125 -14.5 982.125 -14.5 984.360351562 -17 c 0
 986.594726562 -19.5 986.594726562 -19.5 991.809570312 -25.5 c 0
 997.025390625 -31.5 997.025390625 -31.5 998.514648438 -36.5 c 0
 1000.00488281 -41.5 1000.00488281 -41.5 1000.00488281 -46.5 c 256
 1000.00488281 -57.5 1000.00488281 -57.5 995.53515625 -66.5 c 256
 992.5546875 -73.5 992.5546875 -73.5 985.10546875 -79.5 c 256
 973.184570312 -90.5 973.184570312 -90.5 956.049804688 -96 c 0
 938.915039062 -101.5 938.915039062 -101.5 929.974609375 -101.5 c 0
 921.03515625 -101.5 921.03515625 -101.5 891.235351562 -101.5 c 258
 830.14453125 -101.5 l 257
 259.474609375 -101.5 l 258
 226.6953125 -101.5 226.6953125 -101.5 204.344726562 -87 c 0
 181.995117188 -72.5 181.995117188 -72.5 181.995117188 -50.5 c 256
 181.995117188 -43.5 181.995117188 -43.5 183.485351562 -38.5 c 0
 184.974609375 -33.5 184.974609375 -33.5 188.700195312 -27 c 0
 192.424804688 -20.5 192.424804688 -20.5 194.66015625 -18.5 c 0
 196.89453125 -16.5 196.89453125 -16.5 205.08984375 -8 c 0
 213.28515625 0.5 213.28515625 0.5 214.775390625 2.5 c 258
 231.165039062 20.5 l 257
 256.495117188 47.5 l 257
 293.745117188 87.5 l 257
 328.014648438 124.5 l 257
 344.405273438 143.5 l 257
 381.655273438 181.5 l 257
 396.5546875 198.5 l 257
 412.9453125 215.5 l 257
 426.35546875 229.5 l 258
 447.21484375 253.5 447.21484375 253.5 450.1953125 257.5 c 257
EndSplineSet
Validated: 1
EndChar

StartChar: onehalf
Encoding: 189 189 103
Width: 1104
VWidth: 1375
Flags: HW
LayerCount: 2
Fore
SplineSet
450.1953125 357.5 m 257
 448.208007812 360.166992188 440.26171875 369.5 426.35546875 385.5 c 258
 412.9453125 399.5 l 257
 396.5546875 416.5 l 257
 381.655273438 433.5 l 257
 344.405273438 471.5 l 257
 328.014648438 490.5 l 257
 293.745117188 527.5 l 257
 256.495117188 567.5 l 257
 231.165039062 594.5 l 257
 214.775390625 612.5 l 258
 211.794921875 615.5 211.794921875 615.5 205.834960938 621.5 c 0
 201.861328125 625.5 199.129882812 628.333007812 197.639648438 630 c 0
 196.150390625 631.666992188 194.163085938 634.166992188 191.6796875 637.5 c 0
 189.196289062 640.833007812 187.458007812 643.666992188 186.46484375 646 c 0
 185.471679688 648.333007812 184.478515625 651.166992188 183.485351562 654.5 c 0
 182.491210938 657.833007812 181.995117188 661.5 181.995117188 665.5 c 256
 181.995117188 680.166992188 189.4453125 692.333007812 204.344726562 702 c 0
 219.245117188 711.666992188 237.622070312 716.5 259.474609375 716.5 c 258
 830.14453125 716.5 l 257
 891.235351562 716.5 l 258
 892.724609375 716.5 892.724609375 716.5 903.155273438 716.5 c 0
 913.584960938 716.5 913.584960938 716.5 915.8203125 716.5 c 0
 917.309570312 716.5 921.03515625 716.333007812 926.995117188 716 c 0
 932.955078125 715.666992188 936.928710938 715.333007812 938.915039062 715 c 0
 940.901367188 714.666992188 944.129882812 714.166992188 948.599609375 713.5 c 0
 953.0703125 712.833007812 956.546875 711.833007812 959.030273438 710.5 c 0
 961.513671875 709.166992188 964.493164062 707.833007812 967.969726562 706.5 c 0
 971.446289062 705.166992188 974.426757812 703.5 976.91015625 701.5 c 0
 979.393554688 699.5 982.125 697.166992188 985.10546875 694.5 c 256
 989.078125 690.5 992.5546875 686.166992188 995.53515625 681.5 c 256
 998.514648438 676.166992188 1000.00488281 669.5 1000.00488281 661.5 c 256
 1000.00488281 658.166992188 999.508789062 654.833007812 998.514648438 651.5 c 0
 997.521484375 648.166992188 995.287109375 644.5 991.809570312 640.5 c 0
 988.333007812 636.5 985.849609375 633.666992188 984.360351562 632 c 0
 982.870117188 630.333007812 979.641601562 627 974.674804688 622 c 0
 969.708007812 617 966.728515625 613.833007812 965.735351562 612.5 c 258
 950.834960938 594.5 l 257
 922.525390625 566.5 l 257
 889.745117188 528.5 l 257
 853.985351562 491.5 l 257
 842.065429688 478.5 l 257
 798.85546875 433.5 l 257
 783.955078125 415.5 l 257
 767.565429688 399.5 l 257
 730.315429688 357.5 l 257
 921.03515625 357.5 l 258
 944.875 357.5 963.997070312 352.333007812 978.400390625 342 c 0
 992.803710938 331.666992188 1000.00488281 318.833007812 1000.00488281 303.5 c 256
 1000.00488281 296.166992188 997.521484375 289.166992188 992.5546875 282.5 c 0
 987.587890625 275.833007812 980.883789062 268.5 972.440429688 260.5 c 0
 963.997070312 252.5 958.28515625 246.166992188 955.3046875 241.5 c 258
 931.46484375 216.5 l 257
 915.075195312 198.5 l 257
 903.155273438 186.5 l 257
 891.235351562 171.5 l 257
 853.985351562 133.5 l 257
 842.065429688 120.5 l 257
 798.85546875 75.5 l 257
 780.974609375 53.5 l 257
 764.584960938 37.5 l 257
 755.64453125 26.5 l 257
 734.78515625 6.5 l 257
 715.415039062 -16.5 l 257
 697.53515625 -34.5 l 257
 685.615234375 -47.5 l 257
 664.754882812 -69.5 l 257
 652.834960938 -80.5 l 258
 636.94140625 -93.8330078125 615.087890625 -100.833007812 587.275390625 -101.5 c 256
 563.434570312 -101.5 543.568359375 -94.8330078125 527.674804688 -81.5 c 258
 515.754882812 -69.5 l 257
 500.85546875 -52.5 l 257
 484.46484375 -34.5 l 257
 465.094726562 -16.5 l 257
 445.724609375 6.5 l 257
 426.35546875 26.5 l 257
 415.924804688 37.5 l 257
 399.53515625 54.5 l 257
 383.14453125 74.5 l 257
 359.3046875 98.5 l 257
 326.525390625 133.5 l 257
 290.764648438 170.5 l 257
 277.35546875 186.5 l 257
 265.434570312 198.5 l 257
 250.53515625 216.5 l 257
 225.205078125 241.5 l 258
 222.224609375 246.166992188 216.264648438 252.666992188 207.325195312 261 c 0
 198.384765625 269.333007812 191.928710938 277 187.955078125 284 c 0
 183.981445312 291 181.995117188 298.833007812 181.995117188 307.5 c 256
 181.995117188 322.166992188 189.4453125 334.166992188 204.344726562 343.5 c 0
 219.245117188 352.833007812 237.622070312 357.5 259.474609375 357.5 c 258
 450.1953125 357.5 l 257
EndSplineSet
Validated: 1
EndChar

